G04 Layer_Color=65535*
%FSLAX43Y43*%
%MOMM*%
G71*
G01*
G75*
%ADD96C,0.150*%
%ADD97C,0.200*%
%ADD98C,0.250*%
%ADD100C,0.254*%
%ADD104C,1.000*%
%ADD116C,0.100*%
%ADD125C,0.220*%
%ADD126R,0.900X4.900*%
%ADD127R,1.950X1.000*%
%ADD128R,4.900X0.900*%
%ADD129R,3.625X3.625*%
D96*
X42050Y131900D02*
Y131471D01*
X42093Y131343D01*
X42179Y131300D01*
X42307D01*
X42393Y131343D01*
X42521Y131471D01*
Y131900D02*
Y131300D01*
X43357Y132071D02*
X43271Y132157D01*
X43143Y132200D01*
X42971D01*
X42843Y132157D01*
X42757Y132071D01*
Y131986D01*
X42800Y131900D01*
X42843Y131857D01*
X42928Y131814D01*
X43185Y131728D01*
X43271Y131686D01*
X43314Y131643D01*
X43357Y131557D01*
Y131429D01*
X43271Y131343D01*
X43143Y131300D01*
X42971D01*
X42843Y131343D01*
X42757Y131429D01*
X43558Y132200D02*
Y131300D01*
Y132200D02*
X43858D01*
X43987Y132157D01*
X44072Y132071D01*
X44115Y131986D01*
X44158Y131857D01*
Y131643D01*
X44115Y131514D01*
X44072Y131429D01*
X43987Y131343D01*
X43858Y131300D01*
X43558D01*
X45709Y131986D02*
X45666Y132071D01*
X45581Y132157D01*
X45495Y132200D01*
X45324D01*
X45238Y132157D01*
X45152Y132071D01*
X45109Y131986D01*
X45067Y131857D01*
Y131643D01*
X45109Y131514D01*
X45152Y131429D01*
X45238Y131343D01*
X45324Y131300D01*
X45495D01*
X45581Y131343D01*
X45666Y131429D01*
X45709Y131514D01*
X46648Y131300D02*
X46305Y132200D01*
X45962Y131300D01*
X46091Y131600D02*
X46519D01*
X46858Y132200D02*
Y131300D01*
Y132200D02*
X47243D01*
X47372Y132157D01*
X47415Y132114D01*
X47457Y132028D01*
Y131943D01*
X47415Y131857D01*
X47372Y131814D01*
X47243Y131771D01*
X46858D01*
X47157D02*
X47457Y131300D01*
X47659Y132200D02*
Y131300D01*
Y132200D02*
X47959D01*
X48087Y132157D01*
X48173Y132071D01*
X48216Y131986D01*
X48259Y131857D01*
Y131643D01*
X48216Y131514D01*
X48173Y131429D01*
X48087Y131343D01*
X47959Y131300D01*
X47659D01*
X26225Y121475D02*
X26482Y120875D01*
X26739Y121475D02*
X26482Y120875D01*
X26885Y121218D02*
X27399D01*
Y121303D01*
X27356Y121389D01*
X27313Y121432D01*
X27228Y121475D01*
X27099D01*
X27013Y121432D01*
X26928Y121346D01*
X26885Y121218D01*
Y121132D01*
X26928Y121004D01*
X27013Y120918D01*
X27099Y120875D01*
X27228D01*
X27313Y120918D01*
X27399Y121004D01*
X27592Y121475D02*
Y120875D01*
Y121218D02*
X27635Y121346D01*
X27720Y121432D01*
X27806Y121475D01*
X27935D01*
X28059Y120961D02*
X28016Y120918D01*
X28059Y120875D01*
X28102Y120918D01*
X28059Y120961D01*
X29049Y121561D02*
Y121603D01*
X29092Y121689D01*
X29134Y121732D01*
X29220Y121775D01*
X29391D01*
X29477Y121732D01*
X29520Y121689D01*
X29563Y121603D01*
Y121518D01*
X29520Y121432D01*
X29434Y121303D01*
X29006Y120875D01*
X29606D01*
D97*
X153100Y101700D02*
G03*
X153100Y102700I0J500D01*
G01*
X114000Y81350D02*
G03*
X114600Y81350I300J0D01*
G01*
X153350Y75583D02*
G03*
X153350Y76617I0J517D01*
G01*
X181950Y128300D02*
G03*
X181950Y128300I-6750J0D01*
G01*
X167625Y91150D02*
G03*
X168875Y91150I625J0D01*
G01*
X143525Y91075D02*
G03*
X144775Y91075I625J0D01*
G01*
X136450Y111017D02*
G03*
X136450Y109983I0J-517D01*
G01*
X115012Y110825D02*
G03*
X115338Y110825I162J0D01*
G01*
X167725Y80350D02*
G03*
X168975Y80350I625J0D01*
G01*
X96350Y100000D02*
G03*
X96350Y100600I0J300D01*
G01*
X50100Y102550D02*
G03*
X50100Y102150I0J-200D01*
G01*
X179325Y75175D02*
G03*
X180575Y75175I625J0D01*
G01*
X175125Y97425D02*
G03*
X175125Y98675I0J625D01*
G01*
X168325Y97425D02*
G03*
X168325Y98675I0J625D01*
G01*
X139800Y116000D02*
G03*
X139800Y117000I0J500D01*
G01*
X92975Y129325D02*
G03*
X91725Y129325I-625J0D01*
G01*
X75475Y79925D02*
G03*
X75475Y79675I0J-125D01*
G01*
X49880Y126475D02*
Y127475D01*
Y118125D02*
Y120275D01*
X45420Y118125D02*
Y127475D01*
Y118125D02*
X49880D01*
X45420Y127475D02*
X49880D01*
X156560Y121230D02*
Y123800D01*
X151490Y121230D02*
X156560D01*
X151490D02*
Y123800D01*
X156560D01*
X182725Y75750D02*
Y82450D01*
X179475Y75750D02*
Y82450D01*
X182725D01*
X179475Y75750D02*
X182725D01*
X123300Y105850D02*
X126525D01*
X128500D01*
Y103350D02*
Y105850D01*
X123300Y103350D02*
X128500D01*
X123300D02*
Y105850D01*
Y103050D02*
X126525D01*
X128500D01*
Y100550D02*
Y103050D01*
X123300Y100550D02*
X128500D01*
X123300D02*
Y103050D01*
X128700Y69000D02*
X139700D01*
X128700D02*
Y73000D01*
X139700Y69000D02*
Y73000D01*
X136200Y76000D02*
X138200D01*
X130200D02*
X132200D01*
X182725Y83550D02*
Y90250D01*
X179475Y83550D02*
Y90250D01*
X182725D01*
X179475Y83550D02*
X182725D01*
X160175Y123550D02*
Y130250D01*
X163425Y123550D02*
Y130250D01*
X160175Y123550D02*
X163425D01*
X160175Y130250D02*
X163425D01*
X153100Y100700D02*
Y101700D01*
Y102700D02*
Y103700D01*
X158100Y100700D02*
Y103700D01*
X153100Y100700D02*
X158100D01*
X153100Y103700D02*
X158100D01*
X183400Y98600D02*
X184350D01*
X185450D02*
X186000D01*
Y91800D02*
Y98600D01*
X184350D02*
X185450D01*
X183400Y91800D02*
Y98600D01*
Y91800D02*
X186000D01*
X182050D02*
X183000D01*
X180400D02*
X180950D01*
X180400D02*
Y98600D01*
X180950Y91800D02*
X182050D01*
X183000D02*
Y98600D01*
X180400D02*
X183000D01*
X180400Y106000D02*
X181350D01*
X182450D02*
X183000D01*
Y99200D02*
Y106000D01*
X181350D02*
X182450D01*
X180400Y99200D02*
Y106000D01*
Y99200D02*
X183000D01*
X185050D02*
X186000D01*
X183400D02*
X183950D01*
X183400D02*
Y106000D01*
X183950Y99200D02*
X185050D01*
X186000D02*
Y106000D01*
X183400D02*
X186000D01*
X144711Y74281D02*
Y76137D01*
Y74281D02*
X145092Y73900D01*
X149918D01*
X146910Y76137D02*
X149918D01*
X145932D02*
X146430D01*
X146910D01*
X144711D02*
X145932D01*
X149918Y73900D02*
Y76137D01*
X150918Y97600D02*
Y99837D01*
X145711D02*
X146932D01*
X147430D02*
X147910D01*
X146932D02*
X147430D01*
X147910D02*
X150918D01*
X146092Y97600D02*
X150918D01*
X145711Y97981D02*
X146092Y97600D01*
X145711Y97981D02*
Y99837D01*
X136100Y103750D02*
Y104700D01*
Y102100D02*
Y102650D01*
X129300Y102100D02*
X136100D01*
Y102650D02*
Y103750D01*
X129300Y104700D02*
X136100D01*
X129300Y102100D02*
Y104700D01*
X139600Y133600D02*
X140550D01*
X141650D02*
X142200D01*
Y126800D02*
Y133600D01*
X140550D02*
X141650D01*
X139600Y126800D02*
Y133600D01*
Y126800D02*
X142200D01*
X143015Y65600D02*
Y68170D01*
X158245D01*
Y65600D02*
Y68170D01*
X143015Y65600D02*
X158245D01*
X153725Y108400D02*
X156800D01*
X151600D02*
X153725D01*
X151600D02*
Y111300D01*
X156800D01*
Y108400D02*
Y111300D01*
X147900Y122900D02*
X149900D01*
Y127500D01*
X147900D02*
X149900D01*
X147900Y125575D02*
Y127500D01*
Y122900D02*
Y125575D01*
X198625Y114700D02*
Y117150D01*
Y121750D02*
Y124200D01*
X182625Y115150D02*
Y124200D01*
Y115150D02*
X183075Y114700D01*
X198625D01*
X182625Y124200D02*
X198625D01*
Y117150D02*
Y121750D01*
X113400Y81350D02*
X114000D01*
X114600D02*
X115200D01*
X113400Y78250D02*
X115200D01*
X113400D02*
Y81350D01*
X115200Y78250D02*
Y81350D01*
X153350Y74550D02*
Y75583D01*
Y76617D02*
Y77650D01*
X158450Y74550D02*
Y77650D01*
X153350Y74550D02*
X158450D01*
X153350Y77650D02*
X158450D01*
X177284Y130300D02*
X178300D01*
X177750Y129792D02*
Y130808D01*
X165335Y91150D02*
X167625D01*
X168875D02*
X171165D01*
Y81150D02*
Y91150D01*
X165335Y81150D02*
X171165D01*
X165335D02*
Y91150D01*
X142625Y86200D02*
Y91075D01*
Y86200D02*
X145700D01*
Y91075D01*
X142625D02*
X143525D01*
X144800D02*
X145700D01*
X30250Y67275D02*
X36950D01*
Y70525D01*
X30250Y67275D02*
Y70525D01*
Y82875D02*
X36950D01*
Y86125D01*
X30250Y82875D02*
Y86125D01*
X141700Y80775D02*
Y82625D01*
X144425Y78900D02*
Y82625D01*
X141700D02*
X144425D01*
X141750Y78900D02*
X144425D01*
X141700Y78950D02*
X141750Y78900D01*
X141700Y78950D02*
Y80775D01*
X131350Y108700D02*
X136450D01*
X131350Y112225D02*
X136450D01*
X131350Y108700D02*
Y112225D01*
X136450Y108700D02*
Y109983D01*
Y111017D02*
Y112225D01*
X140714Y103275D02*
X145286D01*
X140714Y104900D02*
X145286D01*
Y103275D02*
Y104900D01*
X140714Y103275D02*
Y104900D01*
X146825Y70700D02*
X149900D01*
X144700D02*
X146825D01*
X144700D02*
Y73600D01*
X149900D01*
Y70700D02*
Y73600D01*
X147825Y100100D02*
X150900D01*
X145700D02*
X147825D01*
X145700D02*
Y103000D01*
X150900D01*
Y100100D02*
Y103000D01*
X130800Y121500D02*
X133875D01*
X136000D01*
Y118600D02*
Y121500D01*
X130800Y118600D02*
X136000D01*
X130800D02*
Y121500D01*
X98850Y130275D02*
Y132675D01*
Y130275D02*
X102600D01*
Y132675D01*
X100000D02*
X102600D01*
X98850D02*
X100000D01*
X115012Y110825D02*
X115610D01*
X114740D02*
X115338D01*
X114740Y108875D02*
Y110825D01*
Y108875D02*
X115610D01*
Y110825D01*
X165435Y80350D02*
X167725D01*
X168975D02*
X171265D01*
Y70350D02*
Y80350D01*
X165435Y70350D02*
X171265D01*
X165435D02*
Y80350D01*
X66200Y99900D02*
X89000D01*
X66200Y122700D02*
X89000D01*
X66200Y99900D02*
Y122700D01*
X89000Y99900D02*
Y122700D01*
X96350Y99400D02*
Y100000D01*
Y100600D02*
Y101200D01*
X99450Y99400D02*
Y101200D01*
X96350Y99400D02*
X99450D01*
X96350Y101200D02*
X99450D01*
X28500Y106865D02*
X50100D01*
X28500Y97835D02*
Y106865D01*
Y97835D02*
X50100D01*
Y102150D01*
Y102550D02*
Y106865D01*
X178425Y70300D02*
Y75175D01*
Y70300D02*
X181500D01*
Y75175D01*
X178425D02*
X179325D01*
X180600D02*
X181500D01*
X175125Y98700D02*
Y99600D01*
Y96525D02*
Y97425D01*
Y99600D02*
X180000D01*
Y96525D02*
Y99600D01*
X175125Y96525D02*
X180000D01*
X168325D02*
X173200D01*
Y99600D01*
X168325D02*
X173200D01*
X168325Y96525D02*
Y97425D01*
Y98700D02*
Y99600D01*
X154200Y92000D02*
X157275D01*
X159400D01*
Y89100D02*
Y92000D01*
X154200Y89100D02*
X159400D01*
X154200D02*
Y92000D01*
X130800Y124800D02*
X133875D01*
X136000D01*
Y121900D02*
Y124800D01*
X130800Y121900D02*
X136000D01*
X130800D02*
Y124800D01*
X154200Y88700D02*
X157275D01*
X159400D01*
Y85800D02*
Y88700D01*
X154200Y85800D02*
X159400D01*
X154200D02*
Y88700D01*
X163030Y120270D02*
X165570D01*
Y115200D02*
Y120270D01*
X163030Y115200D02*
X165570D01*
X163030D02*
Y120270D01*
Y114870D02*
X165570D01*
Y109800D02*
Y114870D01*
X163030Y109800D02*
X165570D01*
X163030D02*
Y114870D01*
Y109470D02*
X165570D01*
Y104400D02*
Y109470D01*
X163030Y104400D02*
X165570D01*
X163030D02*
Y109470D01*
X89800Y60800D02*
X92800D01*
X89800Y54900D02*
Y60700D01*
X118300Y60800D02*
X120850D01*
X121300Y60350D01*
Y54900D02*
Y60350D01*
X89800Y54900D02*
X121300D01*
X141525Y122000D02*
X144600D01*
X139400D02*
X141525D01*
X139400D02*
Y124900D01*
X144600D01*
Y122000D02*
Y124900D01*
X139800Y115000D02*
Y116000D01*
Y117000D02*
Y118000D01*
X144800Y115000D02*
Y118000D01*
X139800Y115000D02*
X144800D01*
X139800Y118000D02*
X144800D01*
X90800Y129325D02*
X91700D01*
X92975D02*
X93875D01*
X90800D02*
Y134200D01*
X93875D01*
Y129325D02*
Y134200D01*
X130150Y78650D02*
Y78910D01*
X129890Y78650D02*
X130150D01*
X127050D02*
Y78910D01*
Y78650D02*
X127310D01*
X127050Y81490D02*
Y81750D01*
X127310D01*
X129890D02*
X130150Y81490D01*
X156500Y119800D02*
X157450D01*
X158550D02*
X159100D01*
Y113000D02*
Y119800D01*
X157450D02*
X158550D01*
X156500Y113000D02*
Y119800D01*
Y113000D02*
X159100D01*
X147750Y115075D02*
Y118300D01*
Y113100D02*
Y115075D01*
X145250Y113100D02*
X147750D01*
X145250D02*
Y118300D01*
X147750D01*
X147275Y108950D02*
X150500D01*
X145300D02*
X147275D01*
X145300D02*
Y111450D01*
X150500D01*
Y108950D02*
Y111450D01*
X160850Y103900D02*
X161800D01*
X159200D02*
X159750D01*
X159200D02*
Y110700D01*
X159750Y103900D02*
X160850D01*
X161800D02*
Y110700D01*
X159200D02*
X161800D01*
X75475Y79925D02*
Y80650D01*
Y78950D02*
Y79675D01*
X72325Y78950D02*
X75475D01*
X72325D02*
Y80650D01*
X75475D01*
X116500Y104500D02*
Y105500D01*
Y97300D02*
Y98300D01*
X113400Y97300D02*
Y105500D01*
Y97300D02*
X116500D01*
X113400Y105400D02*
Y105500D01*
X116500D01*
X160175Y55975D02*
Y59975D01*
X173675Y62975D02*
X175675D01*
X161675D02*
X163675D01*
X160175Y55975D02*
X176925D01*
X177175Y56225D01*
Y59975D01*
X114400Y64800D02*
X117000D01*
Y68700D01*
X114400Y64800D02*
Y68700D01*
X117000D01*
X186330Y64500D02*
X188900D01*
X186330D02*
Y105130D01*
X188900D01*
Y64500D02*
Y105130D01*
X168075Y102375D02*
Y105750D01*
Y102375D02*
X172525D01*
Y105750D01*
X170825D02*
X172525D01*
X168075D02*
X170825D01*
X179125Y106850D02*
Y110225D01*
X174675D02*
X179125D01*
X174675Y106850D02*
Y110225D01*
Y106850D02*
X176375D01*
X179125D01*
Y102450D02*
Y105825D01*
X174675D02*
X179125D01*
X174675Y102450D02*
Y105825D01*
Y102450D02*
X176375D01*
X179125D01*
X177100Y117500D02*
Y119500D01*
Y117500D02*
X181700D01*
Y119500D01*
X179775D02*
X181700D01*
X177100D02*
X179775D01*
X177100Y112900D02*
Y114900D01*
Y112900D02*
X181700D01*
Y114900D01*
X179775D02*
X181700D01*
X177100D02*
X179775D01*
X181700Y115200D02*
Y117200D01*
X177100D02*
X181700D01*
X177100Y115200D02*
Y117200D01*
Y115200D02*
X179025D01*
X181700D01*
Y110600D02*
Y112600D01*
X177100D02*
X181700D01*
X177100Y110600D02*
Y112600D01*
Y110600D02*
X179025D01*
X181700D01*
X120950Y62875D02*
Y63342D01*
Y63108D01*
X121650D01*
Y63575D02*
X120950D01*
Y63925D01*
X121067Y64041D01*
X121300D01*
X121417Y63925D01*
Y63575D01*
X121650Y64275D02*
Y64508D01*
Y64391D01*
X120950D01*
X121067Y64275D01*
X150300Y106200D02*
X150767D01*
X150533D01*
Y105500D01*
X151000D02*
Y106200D01*
X151350D01*
X151466Y106083D01*
Y105850D01*
X151350Y105733D01*
X151000D01*
X152166Y105500D02*
X151700D01*
X152166Y105967D01*
Y106083D01*
X152049Y106200D01*
X151816D01*
X151700Y106083D01*
X122525Y64100D02*
Y64567D01*
Y64333D01*
X123225D01*
Y64800D02*
X122525D01*
Y65150D01*
X122642Y65266D01*
X122875D01*
X122992Y65150D01*
Y64800D01*
X122642Y65500D02*
X122525Y65616D01*
Y65849D01*
X122642Y65966D01*
X122758D01*
X122875Y65849D01*
Y65733D01*
Y65849D01*
X122992Y65966D01*
X123108D01*
X123225Y65849D01*
Y65616D01*
X123108Y65500D01*
X121900Y103375D02*
Y103842D01*
Y103608D01*
X122600D01*
Y104075D02*
X121900D01*
Y104425D01*
X122017Y104541D01*
X122250D01*
X122367Y104425D01*
Y104075D01*
X122600Y105124D02*
X121900D01*
X122250Y104775D01*
Y105241D01*
X59200Y73775D02*
X59667D01*
X59433D01*
Y73075D01*
X59900D02*
Y73775D01*
X60250D01*
X60366Y73658D01*
Y73425D01*
X60250Y73308D01*
X59900D01*
X61066Y73775D02*
X60600D01*
Y73425D01*
X60833Y73542D01*
X60949D01*
X61066Y73425D01*
Y73192D01*
X60949Y73075D01*
X60716D01*
X60600Y73192D01*
X66400Y56625D02*
X66867D01*
X66633D01*
Y55925D01*
X67100D02*
Y56625D01*
X67450D01*
X67566Y56508D01*
Y56275D01*
X67450Y56158D01*
X67100D01*
X68266Y56625D02*
X68033Y56508D01*
X67800Y56275D01*
Y56042D01*
X67916Y55925D01*
X68149D01*
X68266Y56042D01*
Y56158D01*
X68149Y56275D01*
X67800D01*
X135500Y80125D02*
X135967D01*
X135733D01*
Y79425D01*
X136200D02*
Y80125D01*
X136550D01*
X136666Y80008D01*
Y79775D01*
X136550Y79658D01*
X136200D01*
X136900Y80125D02*
X137366D01*
Y80008D01*
X136900Y79542D01*
Y79425D01*
X141855Y83770D02*
X142185Y84100D01*
X142020Y83935D01*
X142515Y83440D01*
X142845Y83770D02*
X142350Y84265D01*
X142597Y84512D01*
X142762D01*
X142927Y84347D01*
Y84182D01*
X142680Y83935D01*
X142927Y84677D02*
Y84842D01*
X143092Y85007D01*
X143257D01*
X143340Y84924D01*
Y84759D01*
X143505D01*
X143587Y84677D01*
Y84512D01*
X143422Y84347D01*
X143257D01*
X143175Y84430D01*
Y84595D01*
X143010D01*
X142927Y84677D01*
X143175Y84595D02*
X143340Y84759D01*
X32323Y121662D02*
Y121709D01*
X32370Y121805D01*
X32418Y121852D01*
X32513Y121900D01*
X32703D01*
X32799Y121852D01*
X32846Y121805D01*
X32894Y121709D01*
Y121614D01*
X32846Y121519D01*
X32751Y121376D01*
X32275Y120900D01*
X32942D01*
X33451Y121900D02*
X33308Y121852D01*
X33213Y121709D01*
X33165Y121471D01*
Y121328D01*
X33213Y121090D01*
X33308Y120948D01*
X33451Y120900D01*
X33546D01*
X33689Y120948D01*
X33784Y121090D01*
X33832Y121328D01*
Y121471D01*
X33784Y121709D01*
X33689Y121852D01*
X33546Y121900D01*
X33451D01*
X34056Y121709D02*
X34151Y121757D01*
X34294Y121900D01*
Y120900D01*
X35360Y121757D02*
X35312Y121852D01*
X35170Y121900D01*
X35074D01*
X34932Y121852D01*
X34836Y121709D01*
X34789Y121471D01*
Y121233D01*
X34836Y121043D01*
X34932Y120948D01*
X35074Y120900D01*
X35122D01*
X35265Y120948D01*
X35360Y121043D01*
X35408Y121186D01*
Y121233D01*
X35360Y121376D01*
X35265Y121471D01*
X35122Y121519D01*
X35074D01*
X34932Y121471D01*
X34836Y121376D01*
X34789Y121233D01*
D98*
X176500Y81400D02*
G03*
X176500Y81400I-125J0D01*
G01*
Y89200D02*
G03*
X176500Y89200I-125J0D01*
G01*
X166650Y124600D02*
G03*
X166650Y124600I-125J0D01*
G01*
X152970Y99400D02*
G03*
X152970Y99400I-125J0D01*
G01*
X70875Y68050D02*
G03*
X70875Y68050I-125J0D01*
G01*
X112350Y81525D02*
G03*
X112350Y81525I-125J0D01*
G01*
X153050Y73325D02*
G03*
X153050Y73325I-125J0D01*
G01*
X36025Y73625D02*
G03*
X36025Y73625I-125J0D01*
G01*
Y89225D02*
G03*
X36025Y89225I-125J0D01*
G01*
X137000Y113275D02*
G03*
X137000Y113275I-125J0D01*
G01*
X145411Y105408D02*
G03*
X145411Y105408I-125J0D01*
G01*
X65000Y123550D02*
G03*
X65000Y123550I-125J0D01*
G01*
X96300Y98225D02*
G03*
X96300Y98225I-125J0D01*
G01*
X139670Y113700D02*
G03*
X139670Y113700I-125J0D01*
G01*
X129475Y82405D02*
G03*
X129475Y82405I-125J0D01*
G01*
X75725Y81850D02*
G03*
X75725Y81850I-125J0D01*
G01*
D100*
X141454Y78700D02*
G03*
X141454Y78700I-79J0D01*
G01*
X50910Y107525D02*
G03*
X50910Y107525I-160J0D01*
G01*
X127630Y123800D02*
G03*
X127630Y123800I-11380J0D01*
G01*
X151490Y122500D02*
Y133270D01*
X156570Y122500D02*
Y133270D01*
X151490D02*
X156570D01*
X152760Y129764D02*
X155300D01*
X152760D02*
Y130831D01*
X155300D01*
Y129764D02*
Y130831D01*
X130800Y71200D02*
X137600D01*
X185800Y96300D02*
Y98500D01*
X183600Y96200D02*
Y98400D01*
X180600Y91900D02*
Y94100D01*
X182800Y92000D02*
Y94200D01*
Y103700D02*
Y105900D01*
X180600Y103600D02*
Y105800D01*
X183600Y99300D02*
Y101500D01*
X185800Y99400D02*
Y101600D01*
X145000Y74276D02*
Y75800D01*
X146000Y97976D02*
Y99500D01*
X133800Y102300D02*
X136000D01*
X133700Y104500D02*
X135900D01*
X142000Y131300D02*
Y133500D01*
X139800Y131200D02*
Y133400D01*
X155705Y58518D02*
Y59661D01*
X145545Y58518D02*
X155705D01*
X158245Y56105D02*
Y66900D01*
X143005Y56105D02*
Y66900D01*
Y56105D02*
X158245D01*
X145545Y59661D02*
X155705D01*
X145545Y58518D02*
Y59661D01*
X99968Y120800D02*
X105277D01*
X99968Y126800D02*
X105277D01*
X99968Y120800D02*
Y126800D01*
X158900Y117500D02*
Y119700D01*
X156700Y117400D02*
Y119600D01*
X159400Y104000D02*
Y106200D01*
X161600Y104100D02*
Y106300D01*
X162175Y58475D02*
X175175D01*
X187600Y105130D02*
X198522D01*
X187600Y64490D02*
X198522D01*
Y105130D01*
X194966Y67030D02*
Y102590D01*
Y67030D02*
X196490D01*
Y102590D01*
X194966D02*
X196490D01*
X39000Y60600D02*
X40500D01*
Y61100D01*
Y61500D01*
X41500Y60500D01*
Y60500D02*
Y60500D01*
X40500Y59500D02*
X41500Y60500D01*
X40500Y59500D02*
Y60300D01*
X39000D02*
X40500D01*
X39000D02*
Y60600D01*
Y67300D02*
Y67600D01*
Y67300D02*
X40500D01*
Y66500D02*
Y67300D01*
Y66500D02*
X41500Y67500D01*
Y67500D01*
X40500Y68500D02*
X41500Y67500D01*
X40500Y68100D02*
Y68500D01*
Y67600D02*
Y68100D01*
X39000Y67600D02*
X40500D01*
X39000Y75100D02*
X40500D01*
Y75600D01*
Y76000D01*
X41500Y75000D01*
Y75000D02*
Y75000D01*
X40500Y74000D02*
X41500Y75000D01*
X40500Y74000D02*
Y74800D01*
X39000D02*
X40500D01*
X39000D02*
Y75100D01*
Y82700D02*
Y83000D01*
Y82700D02*
X40500D01*
Y81900D02*
Y82700D01*
Y81900D02*
X41500Y82900D01*
Y82900D01*
X40500Y83900D02*
X41500Y82900D01*
X40500Y83500D02*
Y83900D01*
Y83000D02*
Y83500D01*
X39000Y83000D02*
X40500D01*
X46200Y80600D02*
X46200Y58000D01*
X38262Y59700D02*
Y61224D01*
X37500Y60462D01*
X38516D01*
X37500Y67970D02*
X37754Y68224D01*
X38262D01*
X38516Y67970D01*
Y67716D01*
X38262Y67462D01*
X38008D01*
X38262D01*
X38516Y67208D01*
Y66954D01*
X38262Y66700D01*
X37754D01*
X37500Y66954D01*
X38516Y74200D02*
X37500D01*
X38516Y75216D01*
Y75470D01*
X38262Y75724D01*
X37754D01*
X37500Y75470D01*
X38000Y82100D02*
X38508D01*
X38254D01*
Y83624D01*
X38000Y83370D01*
X46576Y68100D02*
X47592D01*
X48100Y68608D01*
X47592Y69116D01*
X46576D01*
Y69624D02*
Y70131D01*
Y69877D01*
X48100D01*
Y69624D01*
Y70131D01*
X46576Y70893D02*
X48100D01*
Y71655D01*
X47846Y71909D01*
X46830D01*
X46576Y71655D01*
Y70893D01*
Y73432D02*
Y72417D01*
X48100D01*
Y73432D01*
X47338Y72417D02*
Y72924D01*
X46576Y74702D02*
Y74194D01*
X46830Y73940D01*
X47846D01*
X48100Y74194D01*
Y74702D01*
X47846Y74956D01*
X46830D01*
X46576Y74702D01*
D104*
X28750Y124823D02*
G03*
X28750Y127075I0J1126D01*
G01*
D116*
X142400Y91682D02*
G03*
X142400Y91675I-221J-7D01*
G01*
X178200Y75782D02*
G03*
X178200Y75775I-221J-7D01*
G01*
X174518Y96300D02*
G03*
X174525Y96300I7J-221D01*
G01*
X167718Y96300D02*
G03*
X167725Y96300I7J-221D01*
G01*
X94100Y128718D02*
G03*
X94100Y128725I221J7D01*
G01*
X120925Y80825D02*
Y83150D01*
X121250Y83475D01*
Y83625D01*
X121025Y85425D02*
X121825D01*
Y83625D02*
Y85425D01*
X121025Y83625D02*
Y85425D01*
Y83625D02*
X121825D01*
X121550Y97375D02*
Y98575D01*
X124050D01*
X121550Y97375D02*
X124050D01*
Y98575D01*
X124025Y96050D02*
Y97250D01*
X121525Y96050D02*
X124025D01*
X121525Y97250D02*
X124025D01*
X121525Y96050D02*
Y97250D01*
X122450Y109025D02*
X123250D01*
X122450D02*
Y110825D01*
X123250Y109025D02*
Y110825D01*
X122450D02*
X123250D01*
X121475Y109025D02*
X122275D01*
X121475D02*
Y110825D01*
X122275Y109025D02*
Y110825D01*
X121475D02*
X122275D01*
X65925Y79525D02*
X66725D01*
Y77725D02*
Y79525D01*
X65925Y77725D02*
Y79525D01*
Y77725D02*
X66725D01*
X66875Y79525D02*
X67675D01*
Y77725D02*
Y79525D01*
X66875Y77725D02*
Y79525D01*
Y77725D02*
X67675D01*
X67875Y79525D02*
X68675D01*
Y77725D02*
Y79525D01*
X67875Y77725D02*
Y79525D01*
Y77725D02*
X68675D01*
X172100Y68875D02*
Y70075D01*
X174600D01*
X172100Y68875D02*
X174600D01*
Y70075D01*
X172100Y67475D02*
Y68675D01*
X174600D01*
X172100Y67475D02*
X174600D01*
Y68675D01*
X62250Y118200D02*
Y119400D01*
X59750Y118200D02*
X62250D01*
X59750Y119400D02*
X62250D01*
X59750Y118200D02*
Y119400D01*
X184800Y74250D02*
X186000D01*
Y71750D02*
Y74250D01*
X184800Y71750D02*
Y74250D01*
Y71750D02*
X186000D01*
X172050Y92700D02*
Y93900D01*
X169550Y92700D02*
X172050D01*
X169550Y93900D02*
X172050D01*
X169550Y92700D02*
Y93900D01*
X177550Y92700D02*
Y93900D01*
X180050D01*
X177550Y92700D02*
X180050D01*
Y93900D01*
X28300Y111850D02*
X29500D01*
Y109350D02*
Y111850D01*
X28300Y109350D02*
Y111850D01*
Y109350D02*
X29500D01*
X49100D02*
X50300D01*
X49100D02*
Y111850D01*
X50300Y109350D02*
Y111850D01*
X49100D02*
X50300D01*
X40300Y92850D02*
X41500D01*
X40300D02*
Y95350D01*
X41500Y92850D02*
Y95350D01*
X40300D02*
X41500D01*
X47500Y109350D02*
X48700D01*
X47500D02*
Y111850D01*
X48700Y109350D02*
Y111850D01*
X47500D02*
X48700D01*
X38700Y109350D02*
X39900D01*
X38700D02*
Y111850D01*
X39900Y109350D02*
Y111850D01*
X38700D02*
X39900D01*
X45100Y92850D02*
X46300D01*
X45100D02*
Y95350D01*
X46300Y92850D02*
Y95350D01*
X45100D02*
X46300D01*
X42700Y109350D02*
X43900D01*
X42700D02*
Y111850D01*
X43900Y109350D02*
Y111850D01*
X42700D02*
X43900D01*
X96200Y104150D02*
X97400D01*
X96200D02*
Y106650D01*
X97400Y104150D02*
Y106650D01*
X96200D02*
X97400D01*
X57017Y123415D02*
X57865Y122567D01*
X57017Y123415D02*
X58785Y125183D01*
X57865Y122567D02*
X59633Y124335D01*
X58785Y125183D02*
X59633Y124335D01*
X53750Y108400D02*
Y109600D01*
X56250D01*
X53750Y108400D02*
X56250D01*
Y109600D01*
X53750Y109800D02*
Y111000D01*
X56250D01*
X53750Y109800D02*
X56250D01*
Y111000D01*
X63050Y102900D02*
Y104100D01*
X60550Y102900D02*
X63050D01*
X60550Y104100D02*
X63050D01*
X60550Y102900D02*
Y104100D01*
X92250Y112500D02*
Y113700D01*
X94750D01*
X92250Y112500D02*
X94750D01*
Y113700D01*
X84300Y96450D02*
X85500D01*
Y93950D02*
Y96450D01*
X84300Y93950D02*
Y96450D01*
Y93950D02*
X85500D01*
X92250Y117900D02*
Y119100D01*
X94750D01*
X92250Y117900D02*
X94750D01*
Y119100D01*
X154200Y80050D02*
X155400D01*
X154200D02*
Y82550D01*
X155400Y80050D02*
Y82550D01*
X154200D02*
X155400D01*
X153350Y70700D02*
Y71900D01*
X155850D01*
X153350Y70700D02*
X155850D01*
Y71900D01*
X158700Y71950D02*
X159900D01*
Y69450D02*
Y71950D01*
X158700Y69450D02*
Y71950D01*
Y69450D02*
X159900D01*
X155850Y69400D02*
Y70600D01*
X153350Y69400D02*
X155850D01*
X153350Y70600D02*
X155850D01*
X153350Y69400D02*
Y70600D01*
X193750Y110200D02*
Y111400D01*
X191250Y110200D02*
X193750D01*
X191250Y111400D02*
X193750D01*
X191250Y110200D02*
Y111400D01*
X68300Y128150D02*
X69500D01*
Y125650D02*
Y128150D01*
X68300Y125650D02*
Y128150D01*
Y125650D02*
X69500D01*
X141950Y77400D02*
Y78600D01*
X144450D01*
X141950Y77400D02*
X144450D01*
Y78600D01*
X143200Y77250D02*
X144400D01*
Y74750D02*
Y77250D01*
X143200Y74750D02*
Y77250D01*
Y74750D02*
X144400D01*
X148350Y94100D02*
Y95300D01*
X150850D01*
X148350Y94100D02*
X150850D01*
Y95300D01*
X130450Y110900D02*
Y112100D01*
X127950Y110900D02*
X130450D01*
X127950Y112100D02*
X130450D01*
X127950Y110900D02*
Y112100D01*
X128000Y106150D02*
X129200D01*
X128000D02*
Y108650D01*
X129200Y106150D02*
Y108650D01*
X128000D02*
X129200D01*
X145750Y105000D02*
Y106200D01*
X148250D01*
X145750Y105000D02*
X148250D01*
Y106200D01*
Y103300D02*
Y104500D01*
X145750Y103300D02*
X148250D01*
X145750Y104500D02*
X148250D01*
X145750Y103300D02*
Y104500D01*
X127950Y116700D02*
Y117900D01*
X130450D01*
X127950Y116700D02*
X130450D01*
Y117900D01*
Y115300D02*
Y116500D01*
X127950Y115300D02*
X130450D01*
X127950Y116500D02*
X130450D01*
X127950Y115300D02*
Y116500D01*
X72500Y83150D02*
X73700D01*
X72500D02*
Y85650D01*
X73700Y83150D02*
Y85650D01*
X72500D02*
X73700D01*
X63100Y72750D02*
X64300D01*
Y70250D02*
Y72750D01*
X63100Y70250D02*
Y72750D01*
Y70250D02*
X64300D01*
X74092Y59160D02*
X74940Y60008D01*
X76708Y58240D01*
X74092Y59160D02*
X75860Y57392D01*
X76708Y58240D01*
X78350Y67800D02*
Y69000D01*
X80850D01*
X78350Y67800D02*
X80850D01*
Y69000D01*
X72350Y75300D02*
Y76500D01*
X74850D01*
X72350Y75300D02*
X74850D01*
Y76500D01*
X73800Y85650D02*
X75000D01*
Y83150D02*
Y85650D01*
X73800Y83150D02*
Y85650D01*
Y83150D02*
X75000D01*
X71560Y82667D02*
X72408Y83515D01*
X69792Y84435D02*
X71560Y82667D01*
X70640Y85283D02*
X72408Y83515D01*
X69792Y84435D02*
X70640Y85283D01*
X123775Y78725D02*
Y79925D01*
X126275D01*
X123775Y78725D02*
X126275D01*
Y79925D01*
X170250Y110700D02*
Y111900D01*
X172750D01*
X170250Y110700D02*
X172750D01*
Y111900D01*
X173100Y115750D02*
X174300D01*
Y113250D02*
Y115750D01*
X173100Y113250D02*
Y115750D01*
Y113250D02*
X174300D01*
X115960Y75292D02*
X116808Y76140D01*
X114192Y77060D02*
X115960Y75292D01*
X115040Y77908D02*
X116808Y76140D01*
X114192Y77060D02*
X115040Y77908D01*
X114160Y73492D02*
X115008Y74340D01*
X112392Y75260D02*
X114160Y73492D01*
X113240Y76108D02*
X115008Y74340D01*
X112392Y75260D02*
X113240Y76108D01*
X100000Y110150D02*
X101200D01*
Y107650D02*
Y110150D01*
X100000Y107650D02*
Y110150D01*
Y107650D02*
X101200D01*
X97800Y110150D02*
X99000D01*
Y107650D02*
Y110150D01*
X97800Y107650D02*
Y110150D01*
Y107650D02*
X99000D01*
X118600Y80150D02*
X119800D01*
Y77650D02*
Y80150D01*
X118600Y77650D02*
Y80150D01*
Y77650D02*
X119800D01*
X106900Y100100D02*
X108100D01*
Y97600D02*
Y100100D01*
X106900Y97600D02*
Y100100D01*
Y97600D02*
X108100D01*
X114400Y64550D02*
X115600D01*
Y62050D02*
Y64550D01*
X114400Y62050D02*
Y64550D01*
Y62050D02*
X115600D01*
X93500Y61750D02*
X94700D01*
X93500D02*
Y64250D01*
X94700Y61750D02*
Y64250D01*
X93500D02*
X94700D01*
X94900Y61750D02*
X96100D01*
X94900D02*
Y64250D01*
X96100Y61750D02*
Y64250D01*
X94900D02*
X96100D01*
X117700Y65050D02*
X118900D01*
X117700D02*
Y67550D01*
X118900Y65050D02*
Y67550D01*
X117700D02*
X118900D01*
X124250Y61200D02*
Y62400D01*
X121750Y61200D02*
X124250D01*
X121750Y62400D02*
X124250D01*
X121750Y61200D02*
Y62400D01*
X131000Y77150D02*
X132200D01*
X131000D02*
Y79650D01*
X132200Y77150D02*
Y79650D01*
X131000D02*
X132200D01*
X73150Y71600D02*
Y72800D01*
X70650Y71600D02*
X73150D01*
X70650Y72800D02*
X73150D01*
X70650Y71600D02*
Y72800D01*
X97700Y64250D02*
X98900D01*
Y61750D02*
Y64250D01*
X97700Y61750D02*
Y64250D01*
Y61750D02*
X98900D01*
X141800Y77250D02*
X143000D01*
Y74750D02*
Y77250D01*
X141800Y74750D02*
Y77250D01*
Y74750D02*
X143000D01*
X28575Y71925D02*
X29775D01*
X28575D02*
Y74425D01*
X29775Y71925D02*
Y74425D01*
X28575D02*
X29775D01*
X34400Y90950D02*
X35600D01*
Y88450D02*
Y90950D01*
X34400Y88450D02*
Y90950D01*
Y88450D02*
X35600D01*
X150950Y88500D02*
Y89700D01*
X148450Y88500D02*
X150950D01*
X148450Y89700D02*
X150950D01*
X148450Y88500D02*
Y89700D01*
X138400Y79950D02*
X139600D01*
X138400D02*
Y82450D01*
X139600Y79950D02*
Y82450D01*
X138400D02*
X139600D01*
X125725Y99000D02*
Y100200D01*
X123225Y99000D02*
X125725D01*
X123225Y100200D02*
X125725D01*
X123225Y99000D02*
Y100200D01*
X148350Y92700D02*
Y93900D01*
X150850D01*
X148350Y92700D02*
X150850D01*
Y93900D01*
X136750Y107700D02*
X137950D01*
Y105200D02*
Y107700D01*
X136750Y105200D02*
Y107700D01*
Y105200D02*
X137950D01*
X137300Y114550D02*
X138500D01*
Y112050D02*
Y114550D01*
X137300Y112050D02*
Y114550D01*
Y112050D02*
X138500D01*
X86300Y128350D02*
X87500D01*
Y125850D02*
Y128350D01*
X86300Y125850D02*
Y128350D01*
Y125850D02*
X87500D01*
X66900Y128150D02*
X68100Y128150D01*
Y125650D02*
Y128150D01*
X66900Y125650D02*
Y128150D01*
Y125650D02*
X68100D01*
X79800Y128350D02*
X81000D01*
Y125850D02*
Y128350D01*
X79800Y125850D02*
Y128350D01*
Y125850D02*
X81000D01*
X92250Y119200D02*
Y120400D01*
X94750D01*
X92250Y119200D02*
X94750D01*
Y120400D01*
X91600Y99550D02*
X92800D01*
X91600D02*
Y102050D01*
X92800Y99550D02*
Y102050D01*
X91600D02*
X92800D01*
X74500Y96350D02*
X75700D01*
Y93850D02*
Y96350D01*
X74500Y93850D02*
Y96350D01*
Y93850D02*
X75700D01*
X63025Y104250D02*
Y105450D01*
X60525Y104250D02*
X63025D01*
X60525Y105450D02*
X63025D01*
X60525Y104250D02*
Y105450D01*
X60550Y114500D02*
Y115700D01*
X63050D01*
X60550Y114500D02*
X63050D01*
Y115700D01*
X75000Y128350D02*
X76200D01*
Y125850D02*
Y128350D01*
X75000Y125850D02*
Y128350D01*
Y125850D02*
X76200D01*
X63400Y59750D02*
X64600D01*
X63400D02*
Y62250D01*
X64600Y59750D02*
Y62250D01*
X63400D02*
X64600D01*
X49700Y83050D02*
X50900D01*
Y80550D02*
Y83050D01*
X49700Y80550D02*
Y83050D01*
Y80550D02*
X50900D01*
X85700Y93950D02*
X86900D01*
X85700D02*
Y96450D01*
X86900Y93950D02*
Y96450D01*
X85700D02*
X86900D01*
X79500Y96350D02*
X80700D01*
Y93850D02*
Y96350D01*
X79500Y93850D02*
Y96350D01*
Y93850D02*
X80700D01*
X94750Y107000D02*
Y108200D01*
X92250Y107000D02*
X94750D01*
X92250Y108200D02*
X94750D01*
X92250Y107000D02*
Y108200D01*
X60550Y110300D02*
Y111500D01*
X63050D01*
X60550Y110300D02*
X63050D01*
Y111500D01*
X68300Y96350D02*
X69500D01*
Y93850D02*
Y96350D01*
X68300Y93850D02*
Y96350D01*
Y93850D02*
X69500D01*
X54800Y88350D02*
X56000D01*
X54800D02*
Y90850D01*
X56000Y88350D02*
Y90850D01*
X54800D02*
X56000D01*
X65360Y96092D02*
X66208Y96940D01*
X63592Y97860D02*
X65360Y96092D01*
X64440Y98708D02*
X66208Y96940D01*
X63592Y97860D02*
X64440Y98708D01*
X70550Y68700D02*
Y69900D01*
X68050Y68700D02*
X70550D01*
X68050Y69900D02*
X70550D01*
X68050Y68700D02*
Y69900D01*
X66800Y56950D02*
X68000D01*
X66800D02*
Y59450D01*
X68000Y56950D02*
Y59450D01*
X66800D02*
X68000D01*
X49600Y58150D02*
X50800D01*
X49600D02*
Y60650D01*
X50800Y58150D02*
Y60650D01*
X49600D02*
X50800D01*
X155250Y95200D02*
Y96400D01*
X152750Y95200D02*
X155250D01*
X152750Y96400D02*
X155250D01*
X152750Y95200D02*
Y96400D01*
X63750Y117550D02*
X64050D01*
X63900Y120025D02*
X64050D01*
X63900Y115050D02*
X64050D01*
X63750Y112550D02*
X64050D01*
X63750Y107550D02*
X64050D01*
X63900Y110050D02*
X64050D01*
X63750Y102550D02*
X64050D01*
X63900Y105050D02*
X64050D01*
X69350Y97450D02*
Y97750D01*
X66850Y97600D02*
Y97750D01*
X74350Y97450D02*
Y97750D01*
X71850Y97600D02*
Y97750D01*
X79350Y97450D02*
Y97750D01*
X76850Y97600D02*
Y97750D01*
X84350Y97450D02*
Y97750D01*
X81850Y97600D02*
Y97750D01*
X91150Y101050D02*
X91450D01*
X86850Y97600D02*
Y97750D01*
X91150Y106050D02*
X91450D01*
X91150Y103550D02*
X91300D01*
X91150Y111050D02*
X91450D01*
X91150Y108550D02*
X91300D01*
X91150Y113550D02*
X91300D01*
X91150Y116050D02*
X91450D01*
X91150Y118550D02*
X91300D01*
X91150Y121050D02*
X91450D01*
X87350Y124850D02*
Y125000D01*
X84850Y124850D02*
Y125150D01*
X82350Y124850D02*
Y125000D01*
X79850Y124850D02*
Y125150D01*
X77350Y124850D02*
Y125000D01*
X74850Y124850D02*
Y125150D01*
X72350Y124850D02*
Y125000D01*
X69850Y124850D02*
Y125150D01*
X67350Y124850D02*
Y125000D01*
X49600Y65750D02*
X50800D01*
X49600D02*
Y68250D01*
X50800Y65750D02*
Y68250D01*
X49600D02*
X50800D01*
X130450Y113900D02*
Y115100D01*
X127950Y113900D02*
X130450D01*
X127950Y115100D02*
X130450D01*
X127950Y113900D02*
Y115100D01*
X49600Y73250D02*
X50800D01*
X49600D02*
Y75750D01*
X50800Y73250D02*
Y75750D01*
X49600D02*
X50800D01*
X130450Y112300D02*
Y113500D01*
X127950Y112300D02*
X130450D01*
X127950Y113500D02*
X130450D01*
X127950Y112300D02*
Y113500D01*
X129400Y108650D02*
X130600D01*
Y106150D02*
Y108650D01*
X129400Y106150D02*
Y108650D01*
Y106150D02*
X130600D01*
X98275Y61000D02*
Y61300D01*
X103275Y61000D02*
Y61300D01*
X108275Y61050D02*
Y61300D01*
X113275Y61000D02*
Y61300D01*
X143450Y109300D02*
Y110500D01*
X140950Y109300D02*
X143450D01*
X140950Y110500D02*
X143450D01*
X140950Y109300D02*
Y110500D01*
X68825Y79525D02*
X69625D01*
Y77725D02*
Y79525D01*
X68825Y77725D02*
Y79525D01*
Y77725D02*
X69625D01*
X124700Y81925D02*
Y82725D01*
X126500D01*
X124700Y81925D02*
X126500D01*
Y82725D01*
X120100Y85425D02*
X120900D01*
Y83625D02*
Y85425D01*
X120100Y83625D02*
Y85425D01*
Y83625D02*
X120900D01*
X156650Y93800D02*
Y95000D01*
X154150Y93800D02*
X156650D01*
X154150Y95000D02*
X156650D01*
X154150Y93800D02*
Y95000D01*
X96300Y64250D02*
X97500D01*
Y61750D02*
Y64250D01*
X96300Y61750D02*
Y64250D01*
Y61750D02*
X97500D01*
X74892Y70340D02*
X75740Y69492D01*
X74892Y70340D02*
X76660Y72108D01*
X75740Y69492D02*
X77508Y71260D01*
X76660Y72108D02*
X77508Y71260D01*
X77450Y58800D02*
Y60000D01*
X79950D01*
X77450Y58800D02*
X79950D01*
Y60000D01*
X126850Y83900D02*
Y85100D01*
X129350D01*
X126850Y83900D02*
X129350D01*
Y85100D01*
X121950Y84350D02*
X123150D01*
Y81850D02*
Y84350D01*
X121950Y81850D02*
Y84350D01*
Y81850D02*
X123150D01*
X123300Y83200D02*
X124500D01*
Y80700D02*
Y83200D01*
X123300Y80700D02*
Y83200D01*
Y80700D02*
X124500D01*
X101550Y127775D02*
Y128975D01*
X99050Y127775D02*
X101550D01*
X99050Y128975D02*
X101550D01*
X99050Y127775D02*
Y128975D01*
X96075Y64525D02*
Y65725D01*
X93575Y64525D02*
X96075D01*
X93575Y65725D02*
X96075D01*
X93575Y64525D02*
Y65725D01*
X159100Y68277D02*
X160300D01*
Y65777D02*
Y68277D01*
X159100Y65777D02*
Y68277D01*
Y65777D02*
X160300D01*
X160400Y68277D02*
X161600D01*
Y65777D02*
Y68277D01*
X160400Y65777D02*
Y68277D01*
Y65777D02*
X161600D01*
X161800Y68277D02*
X163000D01*
Y65777D02*
Y68277D01*
X161800Y65777D02*
Y68277D01*
Y65777D02*
X163000D01*
X163100Y68277D02*
X164300D01*
Y65777D02*
Y68277D01*
X163100Y65777D02*
Y68277D01*
Y65777D02*
X164300D01*
X164867Y66135D02*
X165715Y66983D01*
X167483Y65215D01*
X164867Y66135D02*
X166635Y64367D01*
X167483Y65215D01*
X167267Y66010D02*
X168115Y66858D01*
X169883Y65090D01*
X167267Y66010D02*
X169035Y64242D01*
X169883Y65090D01*
X139300Y67500D02*
X140500D01*
Y65000D02*
Y67500D01*
X139300Y65000D02*
Y67500D01*
Y65000D02*
X140500D01*
X143450Y110700D02*
Y111900D01*
X140950Y110700D02*
X143450D01*
X140950Y111900D02*
X143450D01*
X140950Y110700D02*
Y111900D01*
X155250Y96600D02*
Y97800D01*
X152750Y96600D02*
X155250D01*
X152750Y97800D02*
X155250D01*
X152750Y96600D02*
Y97800D01*
X156900Y97750D02*
X158100D01*
Y95250D02*
Y97750D01*
X156900Y95250D02*
Y97750D01*
Y95250D02*
X158100D01*
X155500D02*
X156700D01*
X155500D02*
Y97750D01*
X156700Y95250D02*
Y97750D01*
X155500D02*
X156700D01*
X124250Y59800D02*
Y61000D01*
X121750Y59800D02*
X124250D01*
X121750Y61000D02*
X124250D01*
X121750Y59800D02*
Y61000D01*
X161000Y69450D02*
X162200D01*
X161000D02*
Y71950D01*
X162200Y69450D02*
Y71950D01*
X161000D02*
X162200D01*
X127650Y76800D02*
Y78000D01*
X125150Y76800D02*
X127650D01*
X125150Y78000D02*
X127650D01*
X125150Y76800D02*
Y78000D01*
X127650Y75550D02*
Y76750D01*
X125150Y75550D02*
X127650D01*
X125150Y76750D02*
X127650D01*
X125150Y75550D02*
Y76750D01*
X127650Y74300D02*
Y75500D01*
X125150Y74300D02*
X127650D01*
X125150Y75500D02*
X127650D01*
X125150Y74300D02*
Y75500D01*
X127650Y73050D02*
Y74250D01*
X125150Y73050D02*
X127650D01*
X125150Y74250D02*
X127650D01*
X125150Y73050D02*
Y74250D01*
X98125Y126009D02*
X98691Y126575D01*
X96852Y127282D02*
X98125Y126009D01*
X97418Y127848D02*
X98691Y126575D01*
X96852Y127282D02*
X97418Y127848D01*
X98775Y126684D02*
X99341Y127250D01*
X97502Y127957D02*
X98775Y126684D01*
X98068Y128523D02*
X99341Y127250D01*
X97502Y127957D02*
X98068Y128523D01*
X124700Y80800D02*
Y81600D01*
X126500D01*
X124700Y80800D02*
X126500D01*
Y81600D01*
X160175Y59475D02*
X177175D01*
X76600Y78250D02*
X77800D01*
X76600D02*
Y80750D01*
X77800Y78250D02*
Y80750D01*
X76600D02*
X77800D01*
X112225Y102525D02*
X113025D01*
X112225D02*
Y104325D01*
X113025Y102525D02*
Y104325D01*
X112225D02*
X113025D01*
X60275Y132100D02*
X61475D01*
Y129600D02*
Y132100D01*
X60275Y129600D02*
Y132100D01*
Y129600D02*
X61475D01*
X58800Y132100D02*
X60000D01*
Y129600D02*
Y132100D01*
X58800Y129600D02*
Y132100D01*
Y129600D02*
X60000D01*
X57300Y132100D02*
X58500D01*
Y129600D02*
Y132100D01*
X57300Y129600D02*
Y132100D01*
Y129600D02*
X58500D01*
X55850Y132100D02*
X57050D01*
Y129600D02*
Y132100D01*
X55850Y129600D02*
Y132100D01*
Y129600D02*
X57050D01*
X85325Y129025D02*
Y130225D01*
X87825D01*
X85325Y129025D02*
X87825D01*
Y130225D01*
X175200Y78150D02*
X176400D01*
Y75650D02*
Y78150D01*
X175200Y75650D02*
Y78150D01*
Y75650D02*
X176400D01*
X161050Y122000D02*
Y123200D01*
X158550Y122000D02*
X161050D01*
X158550Y123200D02*
X161050D01*
X158550Y122000D02*
Y123200D01*
X175300Y85950D02*
X176500D01*
Y83450D02*
Y85950D01*
X175300Y83450D02*
Y85950D01*
Y83450D02*
X176500D01*
X182250Y68800D02*
Y70000D01*
X179750Y68800D02*
X182250D01*
X179750Y70000D02*
X182250D01*
X179750Y68800D02*
Y70000D01*
X184800Y68050D02*
X186000D01*
X184800D02*
Y70550D01*
X186000Y68050D02*
Y70550D01*
X184800D02*
X186000D01*
X167000Y96150D02*
X168200D01*
X167000D02*
Y98650D01*
X168200Y96150D02*
Y98650D01*
X167000D02*
X168200D01*
X176950Y92700D02*
Y93900D01*
X174450Y92700D02*
X176950D01*
X174450Y93900D02*
X176950D01*
X174450Y92700D02*
Y93900D01*
X60550Y106700D02*
Y107900D01*
X63050D01*
X60550Y106700D02*
X63050D01*
Y107900D01*
X72100Y128350D02*
X73300D01*
Y125850D02*
Y128350D01*
X72100Y125850D02*
Y128350D01*
Y125850D02*
X73300D01*
X85350Y130700D02*
Y131900D01*
X87850D01*
X85350Y130700D02*
X87850D01*
Y131900D01*
X126850Y82500D02*
Y83700D01*
X129350D01*
X126850Y82500D02*
X129350D01*
Y83700D01*
X116000Y64550D02*
X117200D01*
Y62050D02*
Y64550D01*
X116000Y62050D02*
Y64550D01*
Y62050D02*
X117200D01*
X115700Y71450D02*
X116900D01*
Y68950D02*
Y71450D01*
X115700Y68950D02*
Y71450D01*
Y68950D02*
X116900D01*
X160600Y73850D02*
X161800D01*
X160600D02*
Y76350D01*
X161800Y73850D02*
Y76350D01*
X160600D02*
X161800D01*
X160600Y84350D02*
X161800D01*
X160600D02*
Y86850D01*
X161800Y84350D02*
Y86850D01*
X160600D02*
X161800D01*
X160600Y79850D02*
X161800D01*
Y77350D02*
Y79850D01*
X160600Y77350D02*
Y79850D01*
Y77350D02*
X161800D01*
X160600Y89550D02*
X161800D01*
Y87050D02*
Y89550D01*
X160600Y87050D02*
Y89550D01*
Y87050D02*
X161800D01*
X161250Y122000D02*
Y123200D01*
X163750D01*
X161250Y122000D02*
X163750D01*
Y123200D01*
X175300Y88650D02*
X176500D01*
Y86150D02*
Y88650D01*
X175300Y86150D02*
Y88650D01*
Y86150D02*
X176500D01*
X94050Y76300D02*
Y77500D01*
X96550D01*
X94050Y76300D02*
X96550D01*
Y77500D01*
X175200Y80850D02*
X176400D01*
Y78350D02*
Y80850D01*
X175200Y78350D02*
Y80850D01*
Y78350D02*
X176400D01*
X180900Y121150D02*
X182100D01*
X180900D02*
Y123650D01*
X182100Y121150D02*
Y123650D01*
X180900D02*
X182100D01*
X192700Y109950D02*
X193900D01*
Y107450D02*
Y109950D01*
X192700Y107450D02*
Y109950D01*
Y107450D02*
X193900D01*
X187700Y107950D02*
X188900D01*
X187700D02*
Y110450D01*
X188900Y107950D02*
Y110450D01*
X187700D02*
X188900D01*
X170250Y113400D02*
Y114600D01*
X172750D01*
X170250Y113400D02*
X172750D01*
Y114600D01*
X65650Y64000D02*
Y65200D01*
X68150D01*
X65650Y64000D02*
X68150D01*
Y65200D01*
X48200Y60650D02*
X49400D01*
Y58150D02*
Y60650D01*
X48200Y58150D02*
Y60650D01*
Y58150D02*
X49400D01*
X48300Y80550D02*
X49500D01*
X48300D02*
Y83050D01*
X49500Y80550D02*
Y83050D01*
X48300D02*
X49500D01*
X48200Y68250D02*
X49400D01*
Y65750D02*
Y68250D01*
X48200Y65750D02*
Y68250D01*
Y65750D02*
X49400D01*
X48200Y73250D02*
X49400D01*
X48200D02*
Y75750D01*
X49400Y73250D02*
Y75750D01*
X48200D02*
X49400D01*
X187050Y127200D02*
Y128400D01*
X184550Y127200D02*
X187050D01*
X184550Y128400D02*
X187050D01*
X184550Y127200D02*
Y128400D01*
X187050Y128600D02*
Y129800D01*
X184550Y128600D02*
X187050D01*
X184550Y129800D02*
X187050D01*
X184550Y128600D02*
Y129800D01*
X73500Y128350D02*
X74700D01*
Y125850D02*
Y128350D01*
X73500Y125850D02*
Y128350D01*
Y125850D02*
X74700D01*
X81500Y58800D02*
Y59600D01*
X83300D01*
X81500Y58800D02*
X83300D01*
Y59600D01*
X81500Y59800D02*
Y60600D01*
X83300D01*
X81500Y59800D02*
X83300D01*
Y60600D01*
X81500Y60800D02*
Y61600D01*
X83300D01*
X81500Y60800D02*
X83300D01*
Y61600D01*
X81500Y61800D02*
Y62600D01*
X83300D01*
X81500Y61800D02*
X83300D01*
Y62600D01*
X81500Y62800D02*
Y63600D01*
X83300D01*
X81500Y62800D02*
X83300D01*
Y63600D01*
X86000Y63400D02*
Y64200D01*
X87800D01*
X86000Y63400D02*
X87800D01*
Y64200D01*
X81500Y64000D02*
Y64800D01*
X83300D01*
X81500Y64000D02*
X83300D01*
Y64800D01*
X86000Y64600D02*
Y65400D01*
X87800D01*
X86000Y64600D02*
X87800D01*
Y65400D01*
X81500Y56800D02*
Y57600D01*
X83300D01*
X81500Y56800D02*
X83300D01*
Y57600D01*
X81500Y57800D02*
Y58600D01*
X83300D01*
X81500Y57800D02*
X83300D01*
Y58600D01*
X81500Y65200D02*
Y66000D01*
X83300D01*
X81500Y65200D02*
X83300D01*
Y66000D01*
X86000Y65800D02*
Y66600D01*
X87800D01*
X86000Y65800D02*
X87800D01*
Y66600D01*
X81500Y66400D02*
Y67200D01*
X83300D01*
X81500Y66400D02*
X83300D01*
Y67200D01*
X86000Y67000D02*
Y67800D01*
X87800D01*
X86000Y67000D02*
X87800D01*
Y67800D01*
X81500Y67600D02*
Y68400D01*
X83300D01*
X81500Y67600D02*
X83300D01*
Y68400D01*
X86000Y68200D02*
Y69000D01*
X87800D01*
X86000Y68200D02*
X87800D01*
Y69000D01*
X76800Y56800D02*
Y57600D01*
X78600D01*
X76800Y56800D02*
X78600D01*
Y57600D01*
X79200Y56800D02*
Y57600D01*
X81000D01*
X79200Y56800D02*
X81000D01*
Y57600D01*
X86000Y69200D02*
Y70000D01*
X87800D01*
X86000Y69200D02*
X87800D01*
Y70000D01*
X81500Y69600D02*
Y70400D01*
X83300D01*
X81500Y69600D02*
X83300D01*
Y70400D01*
X86000Y70400D02*
Y71200D01*
X87800D01*
X86000Y70400D02*
X87800D01*
Y71200D01*
X81500Y70800D02*
Y71600D01*
X83300D01*
X81500Y70800D02*
X83300D01*
Y71600D01*
X86000Y71600D02*
Y72400D01*
X87800D01*
X86000Y71600D02*
X87800D01*
Y72400D01*
X81500Y72000D02*
Y72800D01*
X83300D01*
X81500Y72000D02*
X83300D01*
Y72800D01*
X72100Y54700D02*
Y55500D01*
X73900D01*
X72100Y54700D02*
X73900D01*
Y55500D01*
X72100Y55700D02*
Y56500D01*
X73900D01*
X72100Y55700D02*
X73900D01*
Y56500D01*
X72100Y56700D02*
Y57500D01*
X73900D01*
X72100Y56700D02*
X73900D01*
Y57500D01*
X76800Y55800D02*
Y56600D01*
X78600D01*
X76800Y55800D02*
X78600D01*
Y56600D01*
X68300Y59800D02*
X69100D01*
X68300D02*
Y61600D01*
X69100Y59800D02*
Y61600D01*
X68300D02*
X69100D01*
X69300Y63100D02*
X70100D01*
Y61300D02*
Y63100D01*
X69300Y61300D02*
Y63100D01*
Y61300D02*
X70100D01*
X156050Y70700D02*
Y71900D01*
X158550D01*
X156050Y70700D02*
X158550D01*
Y71900D01*
X60450Y105400D02*
X60550Y105300D01*
X59200Y105400D02*
X60450D01*
X78600Y56800D02*
Y57100D01*
Y56800D02*
X78800Y56600D01*
X79007Y55800D02*
X81025D01*
X78800Y56007D02*
X79007Y55800D01*
X78800Y56007D02*
Y56600D01*
X81025Y55800D02*
X81133Y55907D01*
X97525Y64325D02*
X98300Y65100D01*
Y65823D01*
X96050Y64250D02*
X96300Y64500D01*
X96000Y64250D02*
X96050D01*
X97525Y64225D02*
Y64325D01*
X117400Y64800D02*
X117400Y64800D01*
X117150Y64550D02*
X117400Y64800D01*
X117100Y64550D02*
X117150D01*
X117400Y64800D02*
Y69200D01*
X117300Y69100D02*
X117400Y69200D01*
Y69200D02*
X117500Y69100D01*
X117400Y64800D02*
X117400D01*
X156700Y95200D02*
Y95250D01*
X157000Y93700D02*
Y94900D01*
X156700Y95200D02*
X157000Y94900D01*
X72050Y55700D02*
X72100D01*
X71675Y55325D02*
X72050Y55700D01*
X54350Y132100D02*
X55550D01*
Y129600D02*
Y132100D01*
X54350Y129600D02*
Y132100D01*
Y129600D02*
X55550D01*
X83092Y129160D02*
X83940Y130008D01*
X85708Y128240D01*
X83092Y129160D02*
X84860Y127392D01*
X85708Y128240D01*
X106900Y106350D02*
X108100D01*
Y103850D02*
Y106350D01*
X106900Y103850D02*
Y106350D01*
Y103850D02*
X108100D01*
X110100Y100950D02*
X111300D01*
X110100D02*
Y103450D01*
X111300Y100950D02*
Y103450D01*
X110100D02*
X111300D01*
X184800Y74400D02*
X186000D01*
X184800D02*
Y76900D01*
X186000Y74400D02*
Y76900D01*
X184800D02*
X186000D01*
X66675Y75275D02*
X65975D01*
Y75625D01*
X66092Y75742D01*
X66325D01*
X66442Y75625D01*
Y75275D01*
Y75508D02*
X66675Y75742D01*
Y75975D02*
Y76208D01*
Y76091D01*
X65975D01*
X66092Y75975D01*
X66675Y76558D02*
Y76791D01*
Y76675D01*
X65975D01*
X66092Y76558D01*
Y77141D02*
X65975Y77258D01*
Y77491D01*
X66092Y77608D01*
X66208D01*
X66325Y77491D01*
X66442Y77608D01*
X66558D01*
X66675Y77491D01*
Y77258D01*
X66558Y77141D01*
X66442D01*
X66325Y77258D01*
X66208Y77141D01*
X66092D01*
X66325Y77258D02*
Y77491D01*
X67625Y75225D02*
X66925D01*
Y75575D01*
X67042Y75692D01*
X67275D01*
X67392Y75575D01*
Y75225D01*
Y75458D02*
X67625Y75692D01*
Y75925D02*
Y76158D01*
Y76041D01*
X66925D01*
X67042Y75925D01*
X67625Y76508D02*
Y76741D01*
Y76625D01*
X66925D01*
X67042Y76508D01*
X66925Y77091D02*
Y77558D01*
X67042D01*
X67508Y77091D01*
X67625D01*
X68700Y74800D02*
X68000D01*
Y75150D01*
X68117Y75267D01*
X68350D01*
X68467Y75150D01*
Y74800D01*
Y75033D02*
X68700Y75267D01*
Y75500D02*
Y75733D01*
Y75616D01*
X68000D01*
X68117Y75500D01*
X68700Y76083D02*
Y76316D01*
Y76200D01*
X68000D01*
X68117Y76083D01*
X68000Y77133D02*
X68117Y76899D01*
X68350Y76666D01*
X68583D01*
X68700Y76783D01*
Y77016D01*
X68583Y77133D01*
X68467D01*
X68350Y77016D01*
Y76666D01*
X69600Y75200D02*
X68900D01*
Y75550D01*
X69017Y75667D01*
X69250D01*
X69367Y75550D01*
Y75200D01*
Y75433D02*
X69600Y75667D01*
Y75900D02*
Y76133D01*
Y76016D01*
X68900D01*
X69017Y75900D01*
X69600Y76483D02*
Y76716D01*
Y76600D01*
X68900D01*
X69017Y76483D01*
X68900Y77533D02*
Y77066D01*
X69250D01*
X69133Y77299D01*
Y77416D01*
X69250Y77533D01*
X69483D01*
X69600Y77416D01*
Y77183D01*
X69483Y77066D01*
X123200Y107125D02*
X122500D01*
Y107475D01*
X122617Y107592D01*
X122850D01*
X122967Y107475D01*
Y107125D01*
Y107358D02*
X123200Y107592D01*
Y107825D02*
Y108058D01*
Y107941D01*
X122500D01*
X122617Y107825D01*
X122500Y108408D02*
Y108874D01*
X122617D01*
X123083Y108408D01*
X123200D01*
X122250Y107125D02*
X121550D01*
Y107475D01*
X121667Y107592D01*
X121900D01*
X122017Y107475D01*
Y107125D01*
Y107358D02*
X122250Y107592D01*
Y107825D02*
Y108058D01*
Y107941D01*
X121550D01*
X121667Y107825D01*
X121550Y108874D02*
X121667Y108641D01*
X121900Y108408D01*
X122133D01*
X122250Y108525D01*
Y108758D01*
X122133Y108874D01*
X122017D01*
X121900Y108758D01*
Y108408D01*
X124250Y96300D02*
Y97000D01*
X124600D01*
X124717Y96883D01*
Y96650D01*
X124600Y96533D01*
X124250D01*
X124483D02*
X124717Y96300D01*
X124950Y96883D02*
X125066Y97000D01*
X125300D01*
X125416Y96883D01*
Y96767D01*
X125300Y96650D01*
X125183D01*
X125300D01*
X125416Y96533D01*
Y96417D01*
X125300Y96300D01*
X125066D01*
X124950Y96417D01*
X125999Y96300D02*
Y97000D01*
X125650Y96650D01*
X126116D01*
X124250Y97550D02*
Y98250D01*
X124600D01*
X124717Y98133D01*
Y97900D01*
X124600Y97783D01*
X124250D01*
X124483D02*
X124717Y97550D01*
X124950Y98133D02*
X125066Y98250D01*
X125300D01*
X125416Y98133D01*
Y98017D01*
X125300Y97900D01*
X125183D01*
X125300D01*
X125416Y97783D01*
Y97667D01*
X125300Y97550D01*
X125066D01*
X124950Y97667D01*
X125650Y98133D02*
X125766Y98250D01*
X125999D01*
X126116Y98133D01*
Y98017D01*
X125999Y97900D01*
X125883D01*
X125999D01*
X126116Y97783D01*
Y97667D01*
X125999Y97550D01*
X125766D01*
X125650Y97667D01*
X120775Y80800D02*
X120075D01*
Y81150D01*
X120192Y81267D01*
X120425D01*
X120542Y81150D01*
Y80800D01*
Y81033D02*
X120775Y81267D01*
Y81966D02*
Y81500D01*
X120308Y81966D01*
X120192D01*
X120075Y81850D01*
Y81616D01*
X120192Y81500D01*
X120075Y82200D02*
Y82666D01*
X120192D01*
X120658Y82200D01*
X120775D01*
X174275Y63925D02*
X174742Y63225D01*
Y63925D02*
X174275Y63225D01*
X175441Y63808D02*
X175325Y63925D01*
X175091D01*
X174975Y63808D01*
Y63692D01*
X175091Y63575D01*
X175325D01*
X175441Y63458D01*
Y63342D01*
X175325Y63225D01*
X175091D01*
X174975Y63342D01*
X176024Y63225D02*
Y63925D01*
X175675Y63575D01*
X176141D01*
X175200Y66200D02*
Y65733D01*
X175433Y65500D01*
X175667Y65733D01*
Y66200D01*
X175900D02*
X176366D01*
X176133D01*
Y65500D01*
X176600Y66083D02*
X176716Y66200D01*
X176949D01*
X177066Y66083D01*
Y65967D01*
X176949Y65850D01*
X176833D01*
X176949D01*
X177066Y65733D01*
Y65617D01*
X176949Y65500D01*
X176716D01*
X176600Y65617D01*
X174850Y67700D02*
Y68400D01*
X175200D01*
X175317Y68283D01*
Y68050D01*
X175200Y67933D01*
X174850D01*
X175083D02*
X175317Y67700D01*
X175550Y68400D02*
X176016D01*
Y68283D01*
X175550Y67817D01*
Y67700D01*
X176599D02*
Y68400D01*
X176250Y68050D01*
X176716D01*
X174850Y69100D02*
Y69800D01*
X175200D01*
X175317Y69683D01*
Y69450D01*
X175200Y69333D01*
X174850D01*
X175083D02*
X175317Y69100D01*
X176016Y69800D02*
X175783Y69683D01*
X175550Y69450D01*
Y69217D01*
X175666Y69100D01*
X175900D01*
X176016Y69217D01*
Y69333D01*
X175900Y69450D01*
X175550D01*
X176250Y69217D02*
X176366Y69100D01*
X176599D01*
X176716Y69217D01*
Y69683D01*
X176599Y69800D01*
X176366D01*
X176250Y69683D01*
Y69567D01*
X176366Y69450D01*
X176716D01*
X124775Y80075D02*
Y80775D01*
X125125D01*
X125242Y80658D01*
Y80425D01*
X125125Y80308D01*
X124775D01*
X125008D02*
X125242Y80075D01*
X125941D02*
X125475D01*
X125941Y80542D01*
Y80658D01*
X125825Y80775D01*
X125591D01*
X125475Y80658D01*
X126641Y80775D02*
X126175D01*
Y80425D01*
X126408Y80542D01*
X126524D01*
X126641Y80425D01*
Y80192D01*
X126524Y80075D01*
X126291D01*
X126175Y80192D01*
X125525Y82850D02*
X124825D01*
Y83200D01*
X124942Y83317D01*
X125175D01*
X125292Y83200D01*
Y82850D01*
Y83083D02*
X125525Y83317D01*
Y84016D02*
Y83550D01*
X125058Y84016D01*
X124942D01*
X124825Y83900D01*
Y83666D01*
X124942Y83550D01*
X125525Y84250D02*
Y84483D01*
Y84366D01*
X124825D01*
X124942Y84250D01*
X98475Y124125D02*
X97775D01*
Y124475D01*
X97892Y124592D01*
X98125D01*
X98242Y124475D01*
Y124125D01*
Y124358D02*
X98475Y124592D01*
Y124825D02*
Y125058D01*
Y124941D01*
X97775D01*
X97892Y124825D01*
X98358Y125408D02*
X98475Y125525D01*
Y125758D01*
X98358Y125874D01*
X97892D01*
X97775Y125758D01*
Y125525D01*
X97892Y125408D01*
X98008D01*
X98125Y125525D01*
Y125874D01*
X99650Y125075D02*
X98950D01*
Y125425D01*
X99067Y125542D01*
X99300D01*
X99417Y125425D01*
Y125075D01*
Y125308D02*
X99650Y125542D01*
Y125775D02*
Y126008D01*
Y125891D01*
X98950D01*
X99067Y125775D01*
X98950Y126824D02*
Y126358D01*
X99300D01*
X99183Y126591D01*
Y126708D01*
X99300Y126824D01*
X99533D01*
X99650Y126708D01*
Y126475D01*
X99533Y126358D01*
X78000Y79000D02*
Y79700D01*
X78350D01*
X78467Y79583D01*
Y79350D01*
X78350Y79233D01*
X78000D01*
X78233D02*
X78467Y79000D01*
X78700D02*
X78933D01*
X78816D01*
Y79700D01*
X78700Y79583D01*
X79283D02*
X79400Y79700D01*
X79633D01*
X79749Y79583D01*
Y79117D01*
X79633Y79000D01*
X79400D01*
X79283Y79117D01*
Y79583D01*
X79983D02*
X80099Y79700D01*
X80333D01*
X80449Y79583D01*
Y79467D01*
X80333Y79350D01*
X80449Y79233D01*
Y79117D01*
X80333Y79000D01*
X80099D01*
X79983Y79117D01*
Y79233D01*
X80099Y79350D01*
X79983Y79467D01*
Y79583D01*
X80099Y79350D02*
X80333D01*
X72567Y74683D02*
X72450Y74800D01*
X72217D01*
X72100Y74683D01*
Y74217D01*
X72217Y74100D01*
X72450D01*
X72567Y74217D01*
X72800Y74100D02*
X73033D01*
X72916D01*
Y74800D01*
X72800Y74683D01*
X73849Y74100D02*
X73383D01*
X73849Y74567D01*
Y74683D01*
X73733Y74800D01*
X73500D01*
X73383Y74683D01*
X74083D02*
X74199Y74800D01*
X74433D01*
X74549Y74683D01*
Y74217D01*
X74433Y74100D01*
X74199D01*
X74083Y74217D01*
Y74683D01*
X113125Y104650D02*
X112425D01*
Y105000D01*
X112542Y105117D01*
X112775D01*
X112892Y105000D01*
Y104650D01*
Y104883D02*
X113125Y105117D01*
X112542Y105350D02*
X112425Y105466D01*
Y105700D01*
X112542Y105816D01*
X112658D01*
X112775Y105700D01*
Y105583D01*
Y105700D01*
X112892Y105816D01*
X113008D01*
X113125Y105700D01*
Y105466D01*
X113008Y105350D01*
X112425Y106050D02*
Y106516D01*
X112542D01*
X113008Y106050D01*
X113125D01*
X123117Y73733D02*
X123000Y73850D01*
X122767D01*
X122650Y73733D01*
Y73267D01*
X122767Y73150D01*
X123000D01*
X123117Y73267D01*
X123350Y73850D02*
X123816D01*
Y73733D01*
X123350Y73267D01*
Y73150D01*
X124050D02*
X124283D01*
X124166D01*
Y73850D01*
X124050Y73733D01*
X123117Y74983D02*
X123000Y75100D01*
X122767D01*
X122650Y74983D01*
Y74517D01*
X122767Y74400D01*
X123000D01*
X123117Y74517D01*
X123816Y75100D02*
X123583Y74983D01*
X123350Y74750D01*
Y74517D01*
X123466Y74400D01*
X123700D01*
X123816Y74517D01*
Y74633D01*
X123700Y74750D01*
X123350D01*
X124050Y74517D02*
X124166Y74400D01*
X124399D01*
X124516Y74517D01*
Y74983D01*
X124399Y75100D01*
X124166D01*
X124050Y74983D01*
Y74867D01*
X124166Y74750D01*
X124516D01*
X123117Y76233D02*
X123000Y76350D01*
X122767D01*
X122650Y76233D01*
Y75767D01*
X122767Y75650D01*
X123000D01*
X123117Y75767D01*
X123816Y76350D02*
X123583Y76233D01*
X123350Y76000D01*
Y75767D01*
X123466Y75650D01*
X123700D01*
X123816Y75767D01*
Y75883D01*
X123700Y76000D01*
X123350D01*
X124050Y76233D02*
X124166Y76350D01*
X124399D01*
X124516Y76233D01*
Y76117D01*
X124399Y76000D01*
X124516Y75883D01*
Y75767D01*
X124399Y75650D01*
X124166D01*
X124050Y75767D01*
Y75883D01*
X124166Y76000D01*
X124050Y76117D01*
Y76233D01*
X124166Y76000D02*
X124399D01*
X123117Y77483D02*
X123000Y77600D01*
X122767D01*
X122650Y77483D01*
Y77017D01*
X122767Y76900D01*
X123000D01*
X123117Y77017D01*
X123816Y77600D02*
X123583Y77483D01*
X123350Y77250D01*
Y77017D01*
X123466Y76900D01*
X123700D01*
X123816Y77017D01*
Y77133D01*
X123700Y77250D01*
X123350D01*
X124050Y77600D02*
X124516D01*
Y77483D01*
X124050Y77017D01*
Y76900D01*
X113411Y107202D02*
X113878Y106502D01*
Y107202D02*
X113411Y106502D01*
X114111D02*
Y107202D01*
X114461D01*
X114577Y107085D01*
Y106852D01*
X114461Y106735D01*
X114111D01*
X114811Y106502D02*
X115044D01*
X114927D01*
Y107202D01*
X114811Y107085D01*
X68667Y128967D02*
X68550Y128850D01*
Y128617D01*
X68667Y128500D01*
X69133D01*
X69250Y128617D01*
Y128850D01*
X69133Y128967D01*
X68667Y129200D02*
X68550Y129316D01*
Y129550D01*
X68667Y129666D01*
X68783D01*
X68900Y129550D01*
X69017Y129666D01*
X69133D01*
X69250Y129550D01*
Y129316D01*
X69133Y129200D01*
X69017D01*
X68900Y129316D01*
X68783Y129200D01*
X68667D01*
X68900Y129316D02*
Y129550D01*
X68550Y130366D02*
X68667Y130133D01*
X68900Y129900D01*
X69133D01*
X69250Y130016D01*
Y130249D01*
X69133Y130366D01*
X69017D01*
X68900Y130249D01*
Y129900D01*
X173300Y75500D02*
X173567Y75100D01*
Y75500D02*
X173300Y75100D01*
X173700D02*
Y75500D01*
X173900D01*
X173966Y75433D01*
Y75300D01*
X173900Y75233D01*
X173700D01*
X174100Y75500D02*
X174366D01*
Y75433D01*
X174100Y75167D01*
Y75100D01*
X171400Y81000D02*
X171667Y80600D01*
Y81000D02*
X171400Y80600D01*
X171800D02*
Y81000D01*
X172000D01*
X172066Y80933D01*
Y80800D01*
X172000Y80733D01*
X171800D01*
X172466Y81000D02*
X172333Y80933D01*
X172200Y80800D01*
Y80667D01*
X172266Y80600D01*
X172400D01*
X172466Y80667D01*
Y80733D01*
X172400Y80800D01*
X172200D01*
X71450Y78600D02*
X72150D01*
Y78950D01*
X72033Y79067D01*
X71567D01*
X71450Y78950D01*
Y78600D01*
X72150Y79300D02*
X71683D01*
X71450Y79533D01*
X71683Y79766D01*
X72150D01*
X71800D01*
Y79300D01*
X72150Y80000D02*
Y80233D01*
Y80116D01*
X71450D01*
X71567Y80000D01*
X72150Y81049D02*
Y80583D01*
X71683Y81049D01*
X71567D01*
X71450Y80933D01*
Y80699D01*
X71567Y80583D01*
X77400Y76200D02*
Y75500D01*
X77867D01*
X78100D02*
X78333D01*
X78216D01*
Y76200D01*
X78100Y76083D01*
X78683D02*
X78800Y76200D01*
X79033D01*
X79149Y76083D01*
Y75967D01*
X79033Y75850D01*
X78916D01*
X79033D01*
X79149Y75733D01*
Y75617D01*
X79033Y75500D01*
X78800D01*
X78683Y75617D01*
X174400Y100300D02*
X173700D01*
Y100650D01*
X173817Y100767D01*
X174050D01*
X174167Y100650D01*
Y100300D01*
Y100533D02*
X174400Y100767D01*
Y101350D02*
X173700D01*
X174050Y101000D01*
Y101466D01*
X173817Y101700D02*
X173700Y101816D01*
Y102049D01*
X173817Y102166D01*
X173933D01*
X174050Y102049D01*
X174167Y102166D01*
X174283D01*
X174400Y102049D01*
Y101816D01*
X174283Y101700D01*
X174167D01*
X174050Y101816D01*
X173933Y101700D01*
X173817D01*
X174050Y101816D02*
Y102049D01*
X160475Y72125D02*
Y72825D01*
X160825D01*
X160942Y72708D01*
Y72475D01*
X160825Y72358D01*
X160475D01*
X160708D02*
X160942Y72125D01*
X161175Y72708D02*
X161291Y72825D01*
X161525D01*
X161641Y72708D01*
Y72592D01*
X161525Y72475D01*
X161641Y72358D01*
Y72242D01*
X161525Y72125D01*
X161291D01*
X161175Y72242D01*
Y72358D01*
X161291Y72475D01*
X161175Y72592D01*
Y72708D01*
X161291Y72475D02*
X161525D01*
X161875Y72708D02*
X161991Y72825D01*
X162224D01*
X162341Y72708D01*
Y72242D01*
X162224Y72125D01*
X161991D01*
X161875Y72242D01*
Y72708D01*
X194225Y63575D02*
X194692Y62875D01*
Y63575D02*
X194225Y62875D01*
X194925D02*
Y63575D01*
X195275D01*
X195391Y63458D01*
Y63225D01*
X195275Y63108D01*
X194925D01*
X195625Y62992D02*
X195741Y62875D01*
X195974D01*
X196091Y62992D01*
Y63458D01*
X195974Y63575D01*
X195741D01*
X195625Y63458D01*
Y63342D01*
X195741Y63225D01*
X196091D01*
X74500Y128600D02*
X73800D01*
Y128950D01*
X73917Y129067D01*
X74150D01*
X74267Y128950D01*
Y128600D01*
Y128833D02*
X74500Y129067D01*
X73800Y129300D02*
Y129766D01*
X73917D01*
X74383Y129300D01*
X74500D01*
Y130000D02*
Y130233D01*
Y130116D01*
X73800D01*
X73917Y130000D01*
X187300Y128675D02*
Y129375D01*
X187650D01*
X187767Y129258D01*
Y129025D01*
X187650Y128908D01*
X187300D01*
X187533D02*
X187767Y128675D01*
X188000Y129375D02*
X188466D01*
Y129258D01*
X188000Y128792D01*
Y128675D01*
X188700Y129258D02*
X188816Y129375D01*
X189049D01*
X189166Y129258D01*
Y128792D01*
X189049Y128675D01*
X188816D01*
X188700Y128792D01*
Y129258D01*
X187300Y127300D02*
Y128000D01*
X187650D01*
X187767Y127883D01*
Y127650D01*
X187650Y127533D01*
X187300D01*
X187533D02*
X187767Y127300D01*
X188466Y128000D02*
X188233Y127883D01*
X188000Y127650D01*
Y127417D01*
X188116Y127300D01*
X188350D01*
X188466Y127417D01*
Y127533D01*
X188350Y127650D01*
X188000D01*
X188700Y127883D02*
X188816Y128000D01*
X189049D01*
X189166Y127883D01*
Y127767D01*
X189049Y127650D01*
X189166Y127533D01*
Y127417D01*
X189049Y127300D01*
X188816D01*
X188700Y127417D01*
Y127533D01*
X188816Y127650D01*
X188700Y127767D01*
Y127883D01*
X188816Y127650D02*
X189049D01*
X158000Y104100D02*
X158467D01*
X158700Y104333D01*
X158467Y104567D01*
X158000D01*
Y104800D02*
X158700D01*
Y105150D01*
X158583Y105266D01*
X158117D01*
X158000Y105150D01*
Y104800D01*
X158117Y105500D02*
X158000Y105616D01*
Y105849D01*
X158117Y105966D01*
X158233D01*
X158350Y105849D01*
Y105733D01*
Y105849D01*
X158467Y105966D01*
X158583D01*
X158700Y105849D01*
Y105616D01*
X158583Y105500D01*
X124500Y60100D02*
Y60800D01*
X124850D01*
X124967Y60683D01*
Y60450D01*
X124850Y60333D01*
X124500D01*
X124733D02*
X124967Y60100D01*
X125200Y60217D02*
X125316Y60100D01*
X125550D01*
X125666Y60217D01*
Y60683D01*
X125550Y60800D01*
X125316D01*
X125200Y60683D01*
Y60567D01*
X125316Y60450D01*
X125666D01*
X157400Y92200D02*
X156700D01*
Y92550D01*
X156817Y92667D01*
X157050D01*
X157167Y92550D01*
Y92200D01*
Y92433D02*
X157400Y92667D01*
X156817Y92900D02*
X156700Y93016D01*
Y93250D01*
X156817Y93366D01*
X156933D01*
X157050Y93250D01*
X157167Y93366D01*
X157283D01*
X157400Y93250D01*
Y93016D01*
X157283Y92900D01*
X157167D01*
X157050Y93016D01*
X156933Y92900D01*
X156817D01*
X157050Y93016D02*
Y93250D01*
X158700Y93700D02*
X158000D01*
Y94050D01*
X158117Y94167D01*
X158350D01*
X158467Y94050D01*
Y93700D01*
Y93933D02*
X158700Y94167D01*
X158000Y94400D02*
Y94866D01*
X158117D01*
X158583Y94400D01*
X158700D01*
X151700Y97900D02*
Y98600D01*
X152050D01*
X152167Y98483D01*
Y98250D01*
X152050Y98133D01*
X151700D01*
X151933D02*
X152167Y97900D01*
X152866Y98600D02*
X152400D01*
Y98250D01*
X152633Y98367D01*
X152750D01*
X152866Y98250D01*
Y98017D01*
X152750Y97900D01*
X152516D01*
X152400Y98017D01*
X158800Y83600D02*
Y82900D01*
X159267D01*
X159966Y83600D02*
X159733Y83483D01*
X159500Y83250D01*
Y83017D01*
X159616Y82900D01*
X159850D01*
X159966Y83017D01*
Y83133D01*
X159850Y83250D01*
X159500D01*
X163500Y103250D02*
Y102550D01*
X163967D01*
X164200Y103133D02*
X164316Y103250D01*
X164550D01*
X164666Y103133D01*
Y103017D01*
X164550Y102900D01*
X164433D01*
X164550D01*
X164666Y102783D01*
Y102667D01*
X164550Y102550D01*
X164316D01*
X164200Y102667D01*
X145867Y112283D02*
X145750Y112400D01*
X145517D01*
X145400Y112283D01*
Y111817D01*
X145517Y111700D01*
X145750D01*
X145867Y111817D01*
X146100Y112283D02*
X146216Y112400D01*
X146450D01*
X146566Y112283D01*
Y112167D01*
X146450Y112050D01*
X146333D01*
X146450D01*
X146566Y111933D01*
Y111817D01*
X146450Y111700D01*
X146216D01*
X146100Y111817D01*
X146800D02*
X146916Y111700D01*
X147149D01*
X147266Y111817D01*
Y112283D01*
X147149Y112400D01*
X146916D01*
X146800Y112283D01*
Y112167D01*
X146916Y112050D01*
X147266D01*
X146517Y119067D02*
X146400Y118950D01*
Y118717D01*
X146517Y118600D01*
X146983D01*
X147100Y118717D01*
Y118950D01*
X146983Y119067D01*
X146517Y119300D02*
X146400Y119416D01*
Y119650D01*
X146517Y119766D01*
X146633D01*
X146750Y119650D01*
Y119533D01*
Y119650D01*
X146867Y119766D01*
X146983D01*
X147100Y119650D01*
Y119416D01*
X146983Y119300D01*
X146400Y120466D02*
Y120000D01*
X146750D01*
X146633Y120233D01*
Y120349D01*
X146750Y120466D01*
X146983D01*
X147100Y120349D01*
Y120116D01*
X146983Y120000D01*
X157000Y121000D02*
X157467D01*
X157700Y121233D01*
X157467Y121467D01*
X157000D01*
Y121700D02*
X157700D01*
Y122050D01*
X157583Y122166D01*
X157117D01*
X157000Y122050D01*
Y121700D01*
X157700Y122866D02*
Y122400D01*
X157233Y122866D01*
X157117D01*
X157000Y122749D01*
Y122516D01*
X157117Y122400D01*
X143600Y110900D02*
Y111600D01*
X143950D01*
X144067Y111483D01*
Y111250D01*
X143950Y111133D01*
X143600D01*
X143833D02*
X144067Y110900D01*
X144766Y111600D02*
X144533Y111483D01*
X144300Y111250D01*
Y111017D01*
X144416Y110900D01*
X144650D01*
X144766Y111017D01*
Y111133D01*
X144650Y111250D01*
X144300D01*
X123867Y106683D02*
X123750Y106800D01*
X123517D01*
X123400Y106683D01*
Y106217D01*
X123517Y106100D01*
X123750D01*
X123867Y106217D01*
X124450Y106100D02*
Y106800D01*
X124100Y106450D01*
X124566D01*
X125266Y106800D02*
X125033Y106683D01*
X124800Y106450D01*
Y106217D01*
X124916Y106100D01*
X125149D01*
X125266Y106217D01*
Y106333D01*
X125149Y106450D01*
X124800D01*
X122392Y101267D02*
X122275Y101150D01*
Y100917D01*
X122392Y100800D01*
X122858D01*
X122975Y100917D01*
Y101150D01*
X122858Y101267D01*
X122975Y101850D02*
X122275D01*
X122625Y101500D01*
Y101966D01*
X122975Y102549D02*
X122275D01*
X122625Y102200D01*
Y102666D01*
X145551Y123113D02*
X145435Y123229D01*
X145201D01*
X145085Y123113D01*
Y122646D01*
X145201Y122530D01*
X145435D01*
X145551Y122646D01*
X146251Y122530D02*
X145785D01*
X146251Y122996D01*
Y123113D01*
X146134Y123229D01*
X145901D01*
X145785Y123113D01*
X146484D02*
X146601Y123229D01*
X146834D01*
X146951Y123113D01*
Y122996D01*
X146834Y122879D01*
X146951Y122763D01*
Y122646D01*
X146834Y122530D01*
X146601D01*
X146484Y122646D01*
Y122763D01*
X146601Y122879D01*
X146484Y122996D01*
Y123113D01*
X146601Y122879D02*
X146834D01*
X128900Y68400D02*
X129367Y67700D01*
Y68400D02*
X128900Y67700D01*
X130066Y68283D02*
X129950Y68400D01*
X129716D01*
X129600Y68283D01*
Y68167D01*
X129716Y68050D01*
X129950D01*
X130066Y67933D01*
Y67817D01*
X129950Y67700D01*
X129716D01*
X129600Y67817D01*
X130300Y67700D02*
X130533D01*
X130416D01*
Y68400D01*
X130300Y68283D01*
X42300Y86400D02*
X42767Y85700D01*
Y86400D02*
X42300Y85700D01*
X43466Y86283D02*
X43350Y86400D01*
X43116D01*
X43000Y86283D01*
Y86167D01*
X43116Y86050D01*
X43350D01*
X43466Y85933D01*
Y85817D01*
X43350Y85700D01*
X43116D01*
X43000Y85817D01*
X44166Y86400D02*
X43933Y86283D01*
X43700Y86050D01*
Y85817D01*
X43816Y85700D01*
X44049D01*
X44166Y85817D01*
Y85933D01*
X44049Y86050D01*
X43700D01*
X196400Y106700D02*
X196867Y106000D01*
Y106700D02*
X196400Y106000D01*
X197566Y106583D02*
X197450Y106700D01*
X197216D01*
X197100Y106583D01*
Y106467D01*
X197216Y106350D01*
X197450D01*
X197566Y106233D01*
Y106117D01*
X197450Y106000D01*
X197216D01*
X197100Y106117D01*
X198266Y106700D02*
X197800D01*
Y106350D01*
X198033Y106467D01*
X198149D01*
X198266Y106350D01*
Y106117D01*
X198149Y106000D01*
X197916D01*
X197800Y106117D01*
X42164Y63946D02*
X42631Y63246D01*
Y63946D02*
X42164Y63246D01*
X43330Y63829D02*
X43214Y63946D01*
X42980D01*
X42864Y63829D01*
Y63713D01*
X42980Y63596D01*
X43214D01*
X43330Y63479D01*
Y63363D01*
X43214Y63246D01*
X42980D01*
X42864Y63363D01*
X43564D02*
X43680Y63246D01*
X43913D01*
X44030Y63363D01*
Y63829D01*
X43913Y63946D01*
X43680D01*
X43564Y63829D01*
Y63713D01*
X43680Y63596D01*
X44030D01*
X42164Y71439D02*
X42631Y70739D01*
Y71439D02*
X42164Y70739D01*
X43330Y71322D02*
X43214Y71439D01*
X42980D01*
X42864Y71322D01*
Y71206D01*
X42980Y71089D01*
X43214D01*
X43330Y70972D01*
Y70856D01*
X43214Y70739D01*
X42980D01*
X42864Y70856D01*
X43564Y71322D02*
X43680Y71439D01*
X43913D01*
X44030Y71322D01*
Y71206D01*
X43913Y71089D01*
X44030Y70972D01*
Y70856D01*
X43913Y70739D01*
X43680D01*
X43564Y70856D01*
Y70972D01*
X43680Y71089D01*
X43564Y71206D01*
Y71322D01*
X43680Y71089D02*
X43913D01*
X42164Y78932D02*
X42631Y78232D01*
Y78932D02*
X42164Y78232D01*
X43330Y78815D02*
X43214Y78932D01*
X42980D01*
X42864Y78815D01*
Y78699D01*
X42980Y78582D01*
X43214D01*
X43330Y78465D01*
Y78349D01*
X43214Y78232D01*
X42980D01*
X42864Y78349D01*
X43564Y78932D02*
X44030D01*
Y78815D01*
X43564Y78349D01*
Y78232D01*
X181900Y110000D02*
Y109533D01*
X182133Y109300D01*
X182367Y109533D01*
Y110000D01*
X182600D02*
X183066D01*
X182833D01*
Y109300D01*
X183766Y110000D02*
X183533Y109883D01*
X183300Y109650D01*
Y109417D01*
X183416Y109300D01*
X183649D01*
X183766Y109417D01*
Y109533D01*
X183649Y109650D01*
X183300D01*
X190000Y106200D02*
Y105733D01*
X190233Y105500D01*
X190467Y105733D01*
Y106200D01*
X190700D02*
X191166D01*
X190933D01*
Y105500D01*
X191866Y106200D02*
X191400D01*
Y105850D01*
X191633Y105967D01*
X191749D01*
X191866Y105850D01*
Y105617D01*
X191749Y105500D01*
X191516D01*
X191400Y105617D01*
X183125Y81250D02*
X183592D01*
X183825Y81483D01*
X183592Y81717D01*
X183125D01*
Y81950D02*
Y82416D01*
Y82183D01*
X183825D01*
Y82999D02*
X183125D01*
X183475Y82650D01*
Y83116D01*
X183100Y88950D02*
X183567D01*
X183800Y89183D01*
X183567Y89417D01*
X183100D01*
Y89650D02*
Y90116D01*
Y89883D01*
X183800D01*
Y90816D02*
Y90350D01*
X183333Y90816D01*
X183217D01*
X183100Y90699D01*
Y90466D01*
X183217Y90350D01*
X160900Y131500D02*
Y131033D01*
X161133Y130800D01*
X161367Y131033D01*
Y131500D01*
X161600D02*
X162066D01*
X161833D01*
Y130800D01*
X162300D02*
X162533D01*
X162416D01*
Y131500D01*
X162300Y131383D01*
X152000Y100600D02*
X152700D01*
Y100950D01*
X152583Y101067D01*
X152117D01*
X152000Y100950D01*
Y100600D01*
X152700Y101300D02*
X152233D01*
X152000Y101533D01*
X152233Y101766D01*
X152700D01*
X152350D01*
Y101300D01*
X152117Y102000D02*
X152000Y102116D01*
Y102349D01*
X152117Y102466D01*
X152233D01*
X152350Y102349D01*
Y102233D01*
Y102349D01*
X152467Y102466D01*
X152583D01*
X152700Y102349D01*
Y102116D01*
X152583Y102000D01*
X51100Y76900D02*
Y76433D01*
X51333Y76200D01*
X51567Y76433D01*
Y76900D01*
X51800D02*
Y76200D01*
X52150D01*
X52266Y76317D01*
Y76783D01*
X52150Y76900D01*
X51800D01*
X52500Y76200D02*
X52733D01*
X52616D01*
Y76900D01*
X52500Y76783D01*
X53549Y76900D02*
X53316Y76783D01*
X53083Y76550D01*
Y76317D01*
X53199Y76200D01*
X53433D01*
X53549Y76317D01*
Y76433D01*
X53433Y76550D01*
X53083D01*
X51156Y84672D02*
Y84206D01*
X51389Y83972D01*
X51622Y84206D01*
Y84672D01*
X51855D02*
Y83972D01*
X52205D01*
X52322Y84089D01*
Y84556D01*
X52205Y84672D01*
X51855D01*
X52555Y83972D02*
X52788D01*
X52672D01*
Y84672D01*
X52555Y84556D01*
X53488Y83972D02*
Y84672D01*
X53138Y84322D01*
X53605D01*
X51054Y69864D02*
Y69397D01*
X51287Y69164D01*
X51521Y69397D01*
Y69864D01*
X51754D02*
Y69164D01*
X52104D01*
X52220Y69281D01*
Y69747D01*
X52104Y69864D01*
X51754D01*
X52454Y69164D02*
X52687D01*
X52570D01*
Y69864D01*
X52454Y69747D01*
X53037Y69864D02*
X53503D01*
Y69747D01*
X53037Y69281D01*
Y69164D01*
X51054Y62269D02*
Y61803D01*
X51287Y61570D01*
X51521Y61803D01*
Y62269D01*
X51754D02*
Y61570D01*
X52104D01*
X52220Y61686D01*
Y62153D01*
X52104Y62269D01*
X51754D01*
X52454Y61570D02*
X52687D01*
X52570D01*
Y62269D01*
X52454Y62153D01*
X53503Y62269D02*
X53037D01*
Y61919D01*
X53270Y62036D01*
X53387D01*
X53503Y61919D01*
Y61686D01*
X53387Y61570D01*
X53153D01*
X53037Y61686D01*
X173655Y119195D02*
X173985Y118865D01*
X174315D01*
Y119195D01*
X173985Y119525D01*
X174150Y119690D02*
X174645Y119195D01*
X174892Y119442D01*
Y119607D01*
X174562Y119937D01*
X174397D01*
X174150Y119690D01*
X175140D02*
X175305Y119855D01*
X175222Y119772D01*
X174727Y120267D01*
Y120102D01*
X175140Y120514D02*
Y120679D01*
X175305Y120844D01*
X175470D01*
X175552Y120762D01*
Y120597D01*
X175470Y120514D01*
X175552Y120597D01*
X175717D01*
X175799Y120514D01*
Y120349D01*
X175634Y120184D01*
X175470D01*
X184600Y88800D02*
X185067D01*
X185300Y89033D01*
X185067Y89267D01*
X184600D01*
Y89500D02*
X185300D01*
Y89850D01*
X185183Y89966D01*
X184717D01*
X184600Y89850D01*
Y89500D01*
X185300Y90200D02*
Y90433D01*
Y90316D01*
X184600D01*
X184717Y90200D01*
X185300Y91249D02*
Y90783D01*
X184833Y91249D01*
X184717D01*
X184600Y91133D01*
Y90899D01*
X184717Y90783D01*
X180000Y91497D02*
Y91031D01*
X180233Y90798D01*
X180467Y91031D01*
Y91497D01*
X180700D02*
Y90798D01*
X181050D01*
X181166Y90914D01*
Y91381D01*
X181050Y91497D01*
X180700D01*
X181400Y90798D02*
X181633D01*
X181516D01*
Y91497D01*
X181400Y91381D01*
X181983Y90798D02*
X182216D01*
X182099D01*
Y91497D01*
X181983Y91381D01*
X180400Y106500D02*
X180867D01*
X181100Y106733D01*
X180867Y106967D01*
X180400D01*
Y107200D02*
X181100D01*
Y107550D01*
X180983Y107666D01*
X180517D01*
X180400Y107550D01*
Y107200D01*
X181100Y107900D02*
Y108133D01*
Y108016D01*
X180400D01*
X180517Y107900D01*
Y108483D02*
X180400Y108599D01*
Y108833D01*
X180517Y108949D01*
X180983D01*
X181100Y108833D01*
Y108599D01*
X180983Y108483D01*
X180517D01*
X183400Y106500D02*
X183867D01*
X184100Y106733D01*
X183867Y106967D01*
X183400D01*
Y107200D02*
X184100D01*
Y107550D01*
X183983Y107666D01*
X183517D01*
X183400Y107550D01*
Y107200D01*
X183983Y107900D02*
X184100Y108016D01*
Y108249D01*
X183983Y108366D01*
X183517D01*
X183400Y108249D01*
Y108016D01*
X183517Y107900D01*
X183633D01*
X183750Y108016D01*
Y108366D01*
X161050Y119100D02*
X161517D01*
X161750Y119333D01*
X161517Y119567D01*
X161050D01*
Y119800D02*
X161750D01*
Y120150D01*
X161633Y120266D01*
X161167D01*
X161050Y120150D01*
Y119800D01*
X161167Y120500D02*
X161050Y120616D01*
Y120849D01*
X161167Y120966D01*
X161283D01*
X161400Y120849D01*
X161517Y120966D01*
X161633D01*
X161750Y120849D01*
Y120616D01*
X161633Y120500D01*
X161517D01*
X161400Y120616D01*
X161283Y120500D01*
X161167D01*
X161400Y120616D02*
Y120849D01*
X159525Y111775D02*
X159992D01*
X160225Y112008D01*
X159992Y112242D01*
X159525D01*
Y112475D02*
X160225D01*
Y112825D01*
X160108Y112941D01*
X159642D01*
X159525Y112825D01*
Y112475D01*
Y113175D02*
Y113641D01*
X159642D01*
X160108Y113175D01*
X160225D01*
X150100Y75000D02*
Y74533D01*
X150333Y74300D01*
X150567Y74533D01*
Y75000D01*
X150800D02*
Y74300D01*
X151150D01*
X151266Y74417D01*
Y74883D01*
X151150Y75000D01*
X150800D01*
X151966D02*
X151733Y74883D01*
X151500Y74650D01*
Y74417D01*
X151616Y74300D01*
X151849D01*
X151966Y74417D01*
Y74533D01*
X151849Y74650D01*
X151500D01*
X147100Y96600D02*
Y96133D01*
X147333Y95900D01*
X147567Y96133D01*
Y96600D01*
X147800D02*
Y95900D01*
X148150D01*
X148266Y96017D01*
Y96483D01*
X148150Y96600D01*
X147800D01*
X148966D02*
X148500D01*
Y96250D01*
X148733Y96367D01*
X148849D01*
X148966Y96250D01*
Y96017D01*
X148849Y95900D01*
X148616D01*
X148500Y96017D01*
X133850Y105650D02*
Y105183D01*
X134083Y104950D01*
X134317Y105183D01*
Y105650D01*
X134550D02*
Y104950D01*
X134900D01*
X135016Y105067D01*
Y105533D01*
X134900Y105650D01*
X134550D01*
X135599Y104950D02*
Y105650D01*
X135250Y105300D01*
X135716D01*
X142500Y129400D02*
Y128933D01*
X142733Y128700D01*
X142967Y128933D01*
Y129400D01*
X143200D02*
Y128700D01*
X143550D01*
X143666Y128817D01*
Y129283D01*
X143550Y129400D01*
X143200D01*
X143900Y128700D02*
X144133D01*
X144016D01*
Y129400D01*
X143900Y129283D01*
X49200Y76000D02*
X48500D01*
Y76350D01*
X48617Y76467D01*
X48850D01*
X48967Y76350D01*
Y76000D01*
Y76233D02*
X49200Y76467D01*
Y76700D02*
Y76933D01*
Y76816D01*
X48500D01*
X48617Y76700D01*
X49200Y77749D02*
Y77283D01*
X48733Y77749D01*
X48617D01*
X48500Y77633D01*
Y77400D01*
X48617Y77283D01*
X49200Y78333D02*
X48500D01*
X48850Y77983D01*
Y78449D01*
X49300Y68500D02*
X48600D01*
Y68850D01*
X48717Y68967D01*
X48950D01*
X49067Y68850D01*
Y68500D01*
Y68733D02*
X49300Y68967D01*
Y69200D02*
Y69433D01*
Y69316D01*
X48600D01*
X48717Y69200D01*
X49300Y70249D02*
Y69783D01*
X48833Y70249D01*
X48717D01*
X48600Y70133D01*
Y69900D01*
X48717Y69783D01*
Y70483D02*
X48600Y70599D01*
Y70833D01*
X48717Y70949D01*
X48833D01*
X48950Y70833D01*
Y70716D01*
Y70833D01*
X49067Y70949D01*
X49183D01*
X49300Y70833D01*
Y70599D01*
X49183Y70483D01*
X49300Y83200D02*
X48600D01*
Y83550D01*
X48717Y83667D01*
X48950D01*
X49067Y83550D01*
Y83200D01*
Y83433D02*
X49300Y83667D01*
Y83900D02*
Y84133D01*
Y84016D01*
X48600D01*
X48717Y83900D01*
X49300Y84949D02*
Y84483D01*
X48833Y84949D01*
X48717D01*
X48600Y84833D01*
Y84600D01*
X48717Y84483D01*
X49300Y85649D02*
Y85183D01*
X48833Y85649D01*
X48717D01*
X48600Y85533D01*
Y85299D01*
X48717Y85183D01*
X49100Y60900D02*
X48400D01*
Y61250D01*
X48517Y61367D01*
X48750D01*
X48867Y61250D01*
Y60900D01*
Y61133D02*
X49100Y61367D01*
Y61600D02*
Y61833D01*
Y61716D01*
X48400D01*
X48517Y61600D01*
X49100Y62649D02*
Y62183D01*
X48633Y62649D01*
X48517D01*
X48400Y62533D01*
Y62300D01*
X48517Y62183D01*
X49100Y62883D02*
Y63116D01*
Y62999D01*
X48400D01*
X48517Y62883D01*
X70200Y58200D02*
X69500D01*
Y58550D01*
X69617Y58667D01*
X69850D01*
X69967Y58550D01*
Y58200D01*
Y58433D02*
X70200Y58667D01*
Y58900D02*
Y59133D01*
Y59016D01*
X69500D01*
X69617Y58900D01*
X70200Y59949D02*
Y59483D01*
X69733Y59949D01*
X69617D01*
X69500Y59833D01*
Y59600D01*
X69617Y59483D01*
Y60183D02*
X69500Y60299D01*
Y60533D01*
X69617Y60649D01*
X70083D01*
X70200Y60533D01*
Y60299D01*
X70083Y60183D01*
X69617D01*
X68975Y56900D02*
X68275D01*
Y57250D01*
X68392Y57367D01*
X68625D01*
X68742Y57250D01*
Y56900D01*
Y57133D02*
X68975Y57367D01*
Y57600D02*
Y57833D01*
Y57716D01*
X68275D01*
X68392Y57600D01*
X68975Y58183D02*
Y58416D01*
Y58300D01*
X68275D01*
X68392Y58183D01*
X68858Y58766D02*
X68975Y58883D01*
Y59116D01*
X68858Y59233D01*
X68392D01*
X68275Y59116D01*
Y58883D01*
X68392Y58766D01*
X68508D01*
X68625Y58883D01*
Y59233D01*
X77500Y54800D02*
Y55500D01*
X77850D01*
X77967Y55383D01*
Y55150D01*
X77850Y55033D01*
X77500D01*
X77733D02*
X77967Y54800D01*
X78200D02*
X78433D01*
X78316D01*
Y55500D01*
X78200Y55383D01*
X78783Y54800D02*
X79016D01*
X78900D01*
Y55500D01*
X78783Y55383D01*
X79716Y54800D02*
Y55500D01*
X79366Y55150D01*
X79833D01*
X71600Y57728D02*
Y58427D01*
X71950D01*
X72067Y58311D01*
Y58078D01*
X71950Y57961D01*
X71600D01*
X71833D02*
X72067Y57728D01*
X72300D02*
X72533D01*
X72416D01*
Y58427D01*
X72300Y58311D01*
X72883Y57728D02*
X73116D01*
X73000D01*
Y58427D01*
X72883Y58311D01*
X73466D02*
X73583Y58427D01*
X73816D01*
X73933Y58311D01*
Y58194D01*
X73816Y58078D01*
X73699D01*
X73816D01*
X73933Y57961D01*
Y57844D01*
X73816Y57728D01*
X73583D01*
X73466Y57844D01*
X69250Y54650D02*
Y55350D01*
X69600D01*
X69717Y55233D01*
Y55000D01*
X69600Y54883D01*
X69250D01*
X69483D02*
X69717Y54650D01*
X69950D02*
X70183D01*
X70066D01*
Y55350D01*
X69950Y55233D01*
X70533Y54650D02*
X70766D01*
X70650D01*
Y55350D01*
X70533Y55233D01*
X71583Y54650D02*
X71116D01*
X71583Y55117D01*
Y55233D01*
X71466Y55350D01*
X71233D01*
X71116Y55233D01*
X74200Y54700D02*
Y55400D01*
X74550D01*
X74667Y55283D01*
Y55050D01*
X74550Y54933D01*
X74200D01*
X74433D02*
X74667Y54700D01*
X74900D02*
X75133D01*
X75016D01*
Y55400D01*
X74900Y55283D01*
X75483Y54700D02*
X75716D01*
X75600D01*
Y55400D01*
X75483Y55283D01*
X76066Y54700D02*
X76299D01*
X76183D01*
Y55400D01*
X76066Y55283D01*
X62625Y64200D02*
Y64900D01*
X62975D01*
X63092Y64783D01*
Y64550D01*
X62975Y64433D01*
X62625D01*
X62858D02*
X63092Y64200D01*
X63325D02*
X63558D01*
X63441D01*
Y64900D01*
X63325Y64783D01*
X63908Y64200D02*
X64141D01*
X64025D01*
Y64900D01*
X63908Y64783D01*
X64491D02*
X64608Y64900D01*
X64841D01*
X64958Y64783D01*
Y64317D01*
X64841Y64200D01*
X64608D01*
X64491Y64317D01*
Y64783D01*
X141425Y65025D02*
X140725D01*
Y65375D01*
X140842Y65492D01*
X141075D01*
X141192Y65375D01*
Y65025D01*
Y65258D02*
X141425Y65492D01*
Y65725D02*
Y65958D01*
Y65841D01*
X140725D01*
X140842Y65725D01*
Y66308D02*
X140725Y66425D01*
Y66658D01*
X140842Y66774D01*
X141308D01*
X141425Y66658D01*
Y66425D01*
X141308Y66308D01*
X140842D01*
X141308Y67008D02*
X141425Y67124D01*
Y67358D01*
X141308Y67474D01*
X140842D01*
X140725Y67358D01*
Y67124D01*
X140842Y67008D01*
X140958D01*
X141075Y67124D01*
Y67474D01*
X83500Y72000D02*
Y72700D01*
X83850D01*
X83967Y72583D01*
Y72350D01*
X83850Y72233D01*
X83500D01*
X83733D02*
X83967Y72000D01*
X84200D02*
X84433D01*
X84316D01*
Y72700D01*
X84200Y72583D01*
X84783D02*
X84900Y72700D01*
X85133D01*
X85249Y72583D01*
Y72117D01*
X85133Y72000D01*
X84900D01*
X84783Y72117D01*
Y72583D01*
X85483Y72700D02*
X85949D01*
Y72583D01*
X85483Y72117D01*
Y72000D01*
X88000Y71600D02*
Y72300D01*
X88350D01*
X88467Y72183D01*
Y71950D01*
X88350Y71833D01*
X88000D01*
X88233D02*
X88467Y71600D01*
X88700D02*
X88933D01*
X88816D01*
Y72300D01*
X88700Y72183D01*
X89283D02*
X89400Y72300D01*
X89633D01*
X89749Y72183D01*
Y71717D01*
X89633Y71600D01*
X89400D01*
X89283Y71717D01*
Y72183D01*
X90449Y72300D02*
X90216Y72183D01*
X89983Y71950D01*
Y71717D01*
X90099Y71600D01*
X90333D01*
X90449Y71717D01*
Y71833D01*
X90333Y71950D01*
X89983D01*
X83500Y70700D02*
Y71400D01*
X83850D01*
X83967Y71283D01*
Y71050D01*
X83850Y70933D01*
X83500D01*
X83733D02*
X83967Y70700D01*
X84200D02*
X84433D01*
X84316D01*
Y71400D01*
X84200Y71283D01*
X84783D02*
X84900Y71400D01*
X85133D01*
X85249Y71283D01*
Y70817D01*
X85133Y70700D01*
X84900D01*
X84783Y70817D01*
Y71283D01*
X85949Y71400D02*
X85483D01*
Y71050D01*
X85716Y71167D01*
X85833D01*
X85949Y71050D01*
Y70817D01*
X85833Y70700D01*
X85599D01*
X85483Y70817D01*
X88000Y70400D02*
Y71100D01*
X88350D01*
X88467Y70983D01*
Y70750D01*
X88350Y70633D01*
X88000D01*
X88233D02*
X88467Y70400D01*
X88700D02*
X88933D01*
X88816D01*
Y71100D01*
X88700Y70983D01*
X89283D02*
X89400Y71100D01*
X89633D01*
X89749Y70983D01*
Y70517D01*
X89633Y70400D01*
X89400D01*
X89283Y70517D01*
Y70983D01*
X90333Y70400D02*
Y71100D01*
X89983Y70750D01*
X90449D01*
X83500Y69600D02*
Y70300D01*
X83850D01*
X83967Y70183D01*
Y69950D01*
X83850Y69833D01*
X83500D01*
X83733D02*
X83967Y69600D01*
X84200D02*
X84433D01*
X84316D01*
Y70300D01*
X84200Y70183D01*
X84783D02*
X84900Y70300D01*
X85133D01*
X85249Y70183D01*
Y69717D01*
X85133Y69600D01*
X84900D01*
X84783Y69717D01*
Y70183D01*
X85483D02*
X85599Y70300D01*
X85833D01*
X85949Y70183D01*
Y70067D01*
X85833Y69950D01*
X85716D01*
X85833D01*
X85949Y69833D01*
Y69717D01*
X85833Y69600D01*
X85599D01*
X85483Y69717D01*
X88000Y69200D02*
Y69900D01*
X88350D01*
X88467Y69783D01*
Y69550D01*
X88350Y69433D01*
X88000D01*
X88233D02*
X88467Y69200D01*
X88700D02*
X88933D01*
X88816D01*
Y69900D01*
X88700Y69783D01*
X89283D02*
X89400Y69900D01*
X89633D01*
X89749Y69783D01*
Y69317D01*
X89633Y69200D01*
X89400D01*
X89283Y69317D01*
Y69783D01*
X90449Y69200D02*
X89983D01*
X90449Y69667D01*
Y69783D01*
X90333Y69900D01*
X90099D01*
X89983Y69783D01*
X81300Y57800D02*
X80600D01*
Y58150D01*
X80717Y58267D01*
X80950D01*
X81067Y58150D01*
Y57800D01*
Y58033D02*
X81300Y58267D01*
Y58500D02*
Y58733D01*
Y58616D01*
X80600D01*
X80717Y58500D01*
Y59083D02*
X80600Y59200D01*
Y59433D01*
X80717Y59549D01*
X81183D01*
X81300Y59433D01*
Y59200D01*
X81183Y59083D01*
X80717D01*
X81300Y59783D02*
Y60016D01*
Y59899D01*
X80600D01*
X80717Y59783D01*
X79010Y55898D02*
Y56597D01*
X79359D01*
X79476Y56481D01*
Y56247D01*
X79359Y56131D01*
X79010D01*
X79243D02*
X79476Y55898D01*
X79709D02*
X79943D01*
X79826D01*
Y56597D01*
X79709Y56481D01*
X80293D02*
X80409Y56597D01*
X80642D01*
X80759Y56481D01*
Y56014D01*
X80642Y55898D01*
X80409D01*
X80293Y56014D01*
Y56481D01*
X80992D02*
X81109Y56597D01*
X81342D01*
X81459Y56481D01*
Y56014D01*
X81342Y55898D01*
X81109D01*
X80992Y56014D01*
Y56481D01*
X88000Y68200D02*
Y68900D01*
X88350D01*
X88467Y68783D01*
Y68550D01*
X88350Y68433D01*
X88000D01*
X88233D02*
X88467Y68200D01*
X88700Y68317D02*
X88816Y68200D01*
X89050D01*
X89166Y68317D01*
Y68783D01*
X89050Y68900D01*
X88816D01*
X88700Y68783D01*
Y68667D01*
X88816Y68550D01*
X89166D01*
X89400Y68317D02*
X89516Y68200D01*
X89749D01*
X89866Y68317D01*
Y68783D01*
X89749Y68900D01*
X89516D01*
X89400Y68783D01*
Y68667D01*
X89516Y68550D01*
X89866D01*
X83500Y67600D02*
Y68300D01*
X83850D01*
X83967Y68183D01*
Y67950D01*
X83850Y67833D01*
X83500D01*
X83733D02*
X83967Y67600D01*
X84200Y67717D02*
X84316Y67600D01*
X84550D01*
X84666Y67717D01*
Y68183D01*
X84550Y68300D01*
X84316D01*
X84200Y68183D01*
Y68067D01*
X84316Y67950D01*
X84666D01*
X84900Y68183D02*
X85016Y68300D01*
X85249D01*
X85366Y68183D01*
Y68067D01*
X85249Y67950D01*
X85366Y67833D01*
Y67717D01*
X85249Y67600D01*
X85016D01*
X84900Y67717D01*
Y67833D01*
X85016Y67950D01*
X84900Y68067D01*
Y68183D01*
X85016Y67950D02*
X85249D01*
X88000Y67000D02*
Y67700D01*
X88350D01*
X88467Y67583D01*
Y67350D01*
X88350Y67233D01*
X88000D01*
X88233D02*
X88467Y67000D01*
X88700Y67117D02*
X88816Y67000D01*
X89050D01*
X89166Y67117D01*
Y67583D01*
X89050Y67700D01*
X88816D01*
X88700Y67583D01*
Y67467D01*
X88816Y67350D01*
X89166D01*
X89400Y67700D02*
X89866D01*
Y67583D01*
X89400Y67117D01*
Y67000D01*
X83500Y66400D02*
Y67100D01*
X83850D01*
X83967Y66983D01*
Y66750D01*
X83850Y66633D01*
X83500D01*
X83733D02*
X83967Y66400D01*
X84200Y66517D02*
X84316Y66400D01*
X84550D01*
X84666Y66517D01*
Y66983D01*
X84550Y67100D01*
X84316D01*
X84200Y66983D01*
Y66867D01*
X84316Y66750D01*
X84666D01*
X85366Y67100D02*
X85133Y66983D01*
X84900Y66750D01*
Y66517D01*
X85016Y66400D01*
X85249D01*
X85366Y66517D01*
Y66633D01*
X85249Y66750D01*
X84900D01*
X88000Y65800D02*
Y66500D01*
X88350D01*
X88467Y66383D01*
Y66150D01*
X88350Y66033D01*
X88000D01*
X88233D02*
X88467Y65800D01*
X88700Y65917D02*
X88816Y65800D01*
X89050D01*
X89166Y65917D01*
Y66383D01*
X89050Y66500D01*
X88816D01*
X88700Y66383D01*
Y66267D01*
X88816Y66150D01*
X89166D01*
X89866Y66500D02*
X89400D01*
Y66150D01*
X89633Y66267D01*
X89749D01*
X89866Y66150D01*
Y65917D01*
X89749Y65800D01*
X89516D01*
X89400Y65917D01*
X83500Y65200D02*
Y65900D01*
X83850D01*
X83967Y65783D01*
Y65550D01*
X83850Y65433D01*
X83500D01*
X83733D02*
X83967Y65200D01*
X84200Y65317D02*
X84316Y65200D01*
X84550D01*
X84666Y65317D01*
Y65783D01*
X84550Y65900D01*
X84316D01*
X84200Y65783D01*
Y65667D01*
X84316Y65550D01*
X84666D01*
X85249Y65200D02*
Y65900D01*
X84900Y65550D01*
X85366D01*
X83500Y57800D02*
Y58500D01*
X83850D01*
X83967Y58383D01*
Y58150D01*
X83850Y58033D01*
X83500D01*
X83733D02*
X83967Y57800D01*
X84200Y57917D02*
X84316Y57800D01*
X84550D01*
X84666Y57917D01*
Y58383D01*
X84550Y58500D01*
X84316D01*
X84200Y58383D01*
Y58267D01*
X84316Y58150D01*
X84666D01*
X84900Y58383D02*
X85016Y58500D01*
X85249D01*
X85366Y58383D01*
Y58267D01*
X85249Y58150D01*
X85133D01*
X85249D01*
X85366Y58033D01*
Y57917D01*
X85249Y57800D01*
X85016D01*
X84900Y57917D01*
X83500Y56800D02*
Y57500D01*
X83850D01*
X83967Y57383D01*
Y57150D01*
X83850Y57033D01*
X83500D01*
X83733D02*
X83967Y56800D01*
X84200Y56917D02*
X84316Y56800D01*
X84550D01*
X84666Y56917D01*
Y57383D01*
X84550Y57500D01*
X84316D01*
X84200Y57383D01*
Y57267D01*
X84316Y57150D01*
X84666D01*
X85366Y56800D02*
X84900D01*
X85366Y57267D01*
Y57383D01*
X85249Y57500D01*
X85016D01*
X84900Y57383D01*
X88000Y64600D02*
Y65300D01*
X88350D01*
X88467Y65183D01*
Y64950D01*
X88350Y64833D01*
X88000D01*
X88233D02*
X88467Y64600D01*
X88700Y64717D02*
X88816Y64600D01*
X89050D01*
X89166Y64717D01*
Y65183D01*
X89050Y65300D01*
X88816D01*
X88700Y65183D01*
Y65067D01*
X88816Y64950D01*
X89166D01*
X89400Y64600D02*
X89633D01*
X89516D01*
Y65300D01*
X89400Y65183D01*
X83500Y64000D02*
Y64700D01*
X83850D01*
X83967Y64583D01*
Y64350D01*
X83850Y64233D01*
X83500D01*
X83733D02*
X83967Y64000D01*
X84200Y64117D02*
X84316Y64000D01*
X84550D01*
X84666Y64117D01*
Y64583D01*
X84550Y64700D01*
X84316D01*
X84200Y64583D01*
Y64467D01*
X84316Y64350D01*
X84666D01*
X84900Y64583D02*
X85016Y64700D01*
X85249D01*
X85366Y64583D01*
Y64117D01*
X85249Y64000D01*
X85016D01*
X84900Y64117D01*
Y64583D01*
X88000Y63400D02*
Y64100D01*
X88350D01*
X88467Y63983D01*
Y63750D01*
X88350Y63633D01*
X88000D01*
X88233D02*
X88467Y63400D01*
X88700Y63983D02*
X88816Y64100D01*
X89050D01*
X89166Y63983D01*
Y63867D01*
X89050Y63750D01*
X89166Y63633D01*
Y63517D01*
X89050Y63400D01*
X88816D01*
X88700Y63517D01*
Y63633D01*
X88816Y63750D01*
X88700Y63867D01*
Y63983D01*
X88816Y63750D02*
X89050D01*
X89400Y63517D02*
X89516Y63400D01*
X89749D01*
X89866Y63517D01*
Y63983D01*
X89749Y64100D01*
X89516D01*
X89400Y63983D01*
Y63867D01*
X89516Y63750D01*
X89866D01*
X83500Y62800D02*
Y63500D01*
X83850D01*
X83967Y63383D01*
Y63150D01*
X83850Y63033D01*
X83500D01*
X83733D02*
X83967Y62800D01*
X84200Y63383D02*
X84316Y63500D01*
X84550D01*
X84666Y63383D01*
Y63267D01*
X84550Y63150D01*
X84666Y63033D01*
Y62917D01*
X84550Y62800D01*
X84316D01*
X84200Y62917D01*
Y63033D01*
X84316Y63150D01*
X84200Y63267D01*
Y63383D01*
X84316Y63150D02*
X84550D01*
X84900Y63383D02*
X85016Y63500D01*
X85249D01*
X85366Y63383D01*
Y63267D01*
X85249Y63150D01*
X85366Y63033D01*
Y62917D01*
X85249Y62800D01*
X85016D01*
X84900Y62917D01*
Y63033D01*
X85016Y63150D01*
X84900Y63267D01*
Y63383D01*
X85016Y63150D02*
X85249D01*
X83500Y61800D02*
Y62500D01*
X83850D01*
X83967Y62383D01*
Y62150D01*
X83850Y62033D01*
X83500D01*
X83733D02*
X83967Y61800D01*
X84200Y62383D02*
X84316Y62500D01*
X84550D01*
X84666Y62383D01*
Y62267D01*
X84550Y62150D01*
X84666Y62033D01*
Y61917D01*
X84550Y61800D01*
X84316D01*
X84200Y61917D01*
Y62033D01*
X84316Y62150D01*
X84200Y62267D01*
Y62383D01*
X84316Y62150D02*
X84550D01*
X84900Y62500D02*
X85366D01*
Y62383D01*
X84900Y61917D01*
Y61800D01*
X83500Y60800D02*
Y61500D01*
X83850D01*
X83967Y61383D01*
Y61150D01*
X83850Y61033D01*
X83500D01*
X83733D02*
X83967Y60800D01*
X84200Y61383D02*
X84316Y61500D01*
X84550D01*
X84666Y61383D01*
Y61267D01*
X84550Y61150D01*
X84666Y61033D01*
Y60917D01*
X84550Y60800D01*
X84316D01*
X84200Y60917D01*
Y61033D01*
X84316Y61150D01*
X84200Y61267D01*
Y61383D01*
X84316Y61150D02*
X84550D01*
X85366Y61500D02*
X85133Y61383D01*
X84900Y61150D01*
Y60917D01*
X85016Y60800D01*
X85249D01*
X85366Y60917D01*
Y61033D01*
X85249Y61150D01*
X84900D01*
X83500Y59800D02*
Y60500D01*
X83850D01*
X83967Y60383D01*
Y60150D01*
X83850Y60033D01*
X83500D01*
X83733D02*
X83967Y59800D01*
X84200Y60383D02*
X84316Y60500D01*
X84550D01*
X84666Y60383D01*
Y60267D01*
X84550Y60150D01*
X84666Y60033D01*
Y59917D01*
X84550Y59800D01*
X84316D01*
X84200Y59917D01*
Y60033D01*
X84316Y60150D01*
X84200Y60267D01*
Y60383D01*
X84316Y60150D02*
X84550D01*
X85366Y60500D02*
X84900D01*
Y60150D01*
X85133Y60267D01*
X85249D01*
X85366Y60150D01*
Y59917D01*
X85249Y59800D01*
X85016D01*
X84900Y59917D01*
X83500Y58800D02*
Y59500D01*
X83850D01*
X83967Y59383D01*
Y59150D01*
X83850Y59033D01*
X83500D01*
X83733D02*
X83967Y58800D01*
X84200Y59383D02*
X84316Y59500D01*
X84550D01*
X84666Y59383D01*
Y59267D01*
X84550Y59150D01*
X84666Y59033D01*
Y58917D01*
X84550Y58800D01*
X84316D01*
X84200Y58917D01*
Y59033D01*
X84316Y59150D01*
X84200Y59267D01*
Y59383D01*
X84316Y59150D02*
X84550D01*
X85249Y58800D02*
Y59500D01*
X84900Y59150D01*
X85366D01*
X170414Y114817D02*
Y115517D01*
X170764D01*
X170880Y115400D01*
Y115167D01*
X170764Y115051D01*
X170414D01*
X170647D02*
X170880Y114817D01*
X171113Y115400D02*
X171230Y115517D01*
X171463D01*
X171580Y115400D01*
Y115284D01*
X171463Y115167D01*
X171580Y115051D01*
Y114934D01*
X171463Y114817D01*
X171230D01*
X171113Y114934D01*
Y115051D01*
X171230Y115167D01*
X171113Y115284D01*
Y115400D01*
X171230Y115167D02*
X171463D01*
X171813Y115400D02*
X171930Y115517D01*
X172163D01*
X172280Y115400D01*
Y115284D01*
X172163Y115167D01*
X172046D01*
X172163D01*
X172280Y115051D01*
Y114934D01*
X172163Y114817D01*
X171930D01*
X171813Y114934D01*
X189400Y105400D02*
X188700D01*
Y105750D01*
X188817Y105867D01*
X189050D01*
X189167Y105750D01*
Y105400D01*
Y105633D02*
X189400Y105867D01*
X188817Y106100D02*
X188700Y106216D01*
Y106450D01*
X188817Y106566D01*
X188933D01*
X189050Y106450D01*
X189167Y106566D01*
X189283D01*
X189400Y106450D01*
Y106216D01*
X189283Y106100D01*
X189167D01*
X189050Y106216D01*
X188933Y106100D01*
X188817D01*
X189050Y106216D02*
Y106450D01*
X189400Y107266D02*
Y106800D01*
X188933Y107266D01*
X188817D01*
X188700Y107149D01*
Y106916D01*
X188817Y106800D01*
X193800Y105300D02*
X193100D01*
Y105650D01*
X193217Y105767D01*
X193450D01*
X193567Y105650D01*
Y105300D01*
Y105533D02*
X193800Y105767D01*
X193217Y106000D02*
X193100Y106116D01*
Y106350D01*
X193217Y106466D01*
X193333D01*
X193450Y106350D01*
X193567Y106466D01*
X193683D01*
X193800Y106350D01*
Y106116D01*
X193683Y106000D01*
X193567D01*
X193450Y106116D01*
X193333Y106000D01*
X193217D01*
X193450Y106116D02*
Y106350D01*
X193800Y106700D02*
Y106933D01*
Y106816D01*
X193100D01*
X193217Y106700D01*
X169875Y64275D02*
Y64975D01*
X170225D01*
X170342Y64858D01*
Y64625D01*
X170225Y64508D01*
X169875D01*
X170108D02*
X170342Y64275D01*
X170575Y64975D02*
X171041D01*
Y64858D01*
X170575Y64392D01*
Y64275D01*
X171275Y64858D02*
X171391Y64975D01*
X171624D01*
X171741Y64858D01*
Y64742D01*
X171624Y64625D01*
X171741Y64508D01*
Y64392D01*
X171624Y64275D01*
X171391D01*
X171275Y64392D01*
Y64508D01*
X171391Y64625D01*
X171275Y64742D01*
Y64858D01*
X171391Y64625D02*
X171624D01*
X178900Y121500D02*
Y122200D01*
X179250D01*
X179367Y122083D01*
Y121850D01*
X179250Y121733D01*
X178900D01*
X179133D02*
X179367Y121500D01*
X179600Y122200D02*
X180066D01*
Y122083D01*
X179600Y121617D01*
Y121500D01*
X180300Y121617D02*
X180416Y121500D01*
X180649D01*
X180766Y121617D01*
Y122083D01*
X180649Y122200D01*
X180416D01*
X180300Y122083D01*
Y121967D01*
X180416Y121850D01*
X180766D01*
X176800Y110500D02*
X176100D01*
Y110850D01*
X176217Y110967D01*
X176450D01*
X176567Y110850D01*
Y110500D01*
Y110733D02*
X176800Y110967D01*
X176100Y111200D02*
Y111666D01*
X176217D01*
X176683Y111200D01*
X176800D01*
X176100Y111900D02*
Y112366D01*
X176217D01*
X176683Y111900D01*
X176800D01*
X175000Y78600D02*
X174300D01*
Y78950D01*
X174417Y79067D01*
X174650D01*
X174767Y78950D01*
Y78600D01*
Y78833D02*
X175000Y79067D01*
X174300Y79300D02*
Y79766D01*
X174417D01*
X174883Y79300D01*
X175000D01*
X174300Y80466D02*
X174417Y80233D01*
X174650Y80000D01*
X174883D01*
X175000Y80116D01*
Y80349D01*
X174883Y80466D01*
X174767D01*
X174650Y80349D01*
Y80000D01*
X176800Y115400D02*
X176100D01*
Y115750D01*
X176217Y115867D01*
X176450D01*
X176567Y115750D01*
Y115400D01*
Y115633D02*
X176800Y115867D01*
X176100Y116100D02*
Y116566D01*
X176217D01*
X176683Y116100D01*
X176800D01*
X176100Y117266D02*
Y116800D01*
X176450D01*
X176333Y117033D01*
Y117149D01*
X176450Y117266D01*
X176683D01*
X176800Y117149D01*
Y116916D01*
X176683Y116800D01*
X176800Y112900D02*
X176100D01*
Y113250D01*
X176217Y113367D01*
X176450D01*
X176567Y113250D01*
Y112900D01*
Y113133D02*
X176800Y113367D01*
X176100Y113600D02*
Y114066D01*
X176217D01*
X176683Y113600D01*
X176800D01*
X176217Y114300D02*
X176100Y114416D01*
Y114649D01*
X176217Y114766D01*
X176333D01*
X176450Y114649D01*
Y114533D01*
Y114649D01*
X176567Y114766D01*
X176683D01*
X176800Y114649D01*
Y114416D01*
X176683Y114300D01*
X93400Y75300D02*
Y76000D01*
X93750D01*
X93867Y75883D01*
Y75650D01*
X93750Y75533D01*
X93400D01*
X93633D02*
X93867Y75300D01*
X94566Y76000D02*
X94333Y75883D01*
X94100Y75650D01*
Y75417D01*
X94216Y75300D01*
X94450D01*
X94566Y75417D01*
Y75533D01*
X94450Y75650D01*
X94100D01*
X95266Y76000D02*
X95033Y75883D01*
X94800Y75650D01*
Y75417D01*
X94916Y75300D01*
X95149D01*
X95266Y75417D01*
Y75533D01*
X95149Y75650D01*
X94800D01*
X165725Y66925D02*
Y67625D01*
X166075D01*
X166192Y67508D01*
Y67275D01*
X166075Y67158D01*
X165725D01*
X165958D02*
X166192Y66925D01*
X166891Y67625D02*
X166658Y67508D01*
X166425Y67275D01*
Y67042D01*
X166541Y66925D01*
X166775D01*
X166891Y67042D01*
Y67158D01*
X166775Y67275D01*
X166425D01*
X167591Y67625D02*
X167125D01*
Y67275D01*
X167358Y67392D01*
X167474D01*
X167591Y67275D01*
Y67042D01*
X167474Y66925D01*
X167241D01*
X167125Y67042D01*
X163950Y63725D02*
X163250D01*
Y64075D01*
X163367Y64192D01*
X163600D01*
X163717Y64075D01*
Y63725D01*
Y63958D02*
X163950Y64192D01*
X163250Y64891D02*
X163367Y64658D01*
X163600Y64425D01*
X163833D01*
X163950Y64541D01*
Y64775D01*
X163833Y64891D01*
X163717D01*
X163600Y64775D01*
Y64425D01*
X163950Y65474D02*
X163250D01*
X163600Y65125D01*
Y65591D01*
X163000Y63725D02*
X162300D01*
Y64075D01*
X162417Y64192D01*
X162650D01*
X162767Y64075D01*
Y63725D01*
Y63958D02*
X163000Y64192D01*
X162300Y64891D02*
X162417Y64658D01*
X162650Y64425D01*
X162883D01*
X163000Y64541D01*
Y64775D01*
X162883Y64891D01*
X162767D01*
X162650Y64775D01*
Y64425D01*
X162417Y65125D02*
X162300Y65241D01*
Y65474D01*
X162417Y65591D01*
X162533D01*
X162650Y65474D01*
Y65358D01*
Y65474D01*
X162767Y65591D01*
X162883D01*
X163000Y65474D01*
Y65241D01*
X162883Y65125D01*
X161450Y63725D02*
X160750D01*
Y64075D01*
X160867Y64192D01*
X161100D01*
X161217Y64075D01*
Y63725D01*
Y63958D02*
X161450Y64192D01*
X160750Y64891D02*
X160867Y64658D01*
X161100Y64425D01*
X161333D01*
X161450Y64541D01*
Y64775D01*
X161333Y64891D01*
X161217D01*
X161100Y64775D01*
Y64425D01*
X161450Y65591D02*
Y65125D01*
X160983Y65591D01*
X160867D01*
X160750Y65474D01*
Y65241D01*
X160867Y65125D01*
X158500Y68400D02*
Y69100D01*
X158850D01*
X158967Y68983D01*
Y68750D01*
X158850Y68633D01*
X158500D01*
X158733D02*
X158967Y68400D01*
X159666Y69100D02*
X159433Y68983D01*
X159200Y68750D01*
Y68517D01*
X159316Y68400D01*
X159550D01*
X159666Y68517D01*
Y68633D01*
X159550Y68750D01*
X159200D01*
X159900Y68400D02*
X160133D01*
X160016D01*
Y69100D01*
X159900Y68983D01*
X176800Y117775D02*
X176100D01*
Y118125D01*
X176217Y118242D01*
X176450D01*
X176567Y118125D01*
Y117775D01*
Y118008D02*
X176800Y118242D01*
X176100Y118475D02*
Y118941D01*
X176217D01*
X176683Y118475D01*
X176800D01*
Y119641D02*
Y119175D01*
X176333Y119641D01*
X176217D01*
X176100Y119524D01*
Y119291D01*
X176217Y119175D01*
X175100Y86600D02*
X174400D01*
Y86950D01*
X174517Y87067D01*
X174750D01*
X174867Y86950D01*
Y86600D01*
Y86833D02*
X175100Y87067D01*
X174400Y87766D02*
X174517Y87533D01*
X174750Y87300D01*
X174983D01*
X175100Y87416D01*
Y87650D01*
X174983Y87766D01*
X174867D01*
X174750Y87650D01*
Y87300D01*
X174400Y88000D02*
Y88466D01*
X174517D01*
X174983Y88000D01*
X175100D01*
X164300Y122000D02*
Y122700D01*
X164650D01*
X164767Y122583D01*
Y122350D01*
X164650Y122233D01*
X164300D01*
X164533D02*
X164767Y122000D01*
X165466Y122700D02*
X165000D01*
Y122350D01*
X165233Y122467D01*
X165350D01*
X165466Y122350D01*
Y122117D01*
X165350Y122000D01*
X165116D01*
X165000Y122117D01*
X165700Y122583D02*
X165816Y122700D01*
X166049D01*
X166166Y122583D01*
Y122467D01*
X166049Y122350D01*
X166166Y122233D01*
Y122117D01*
X166049Y122000D01*
X165816D01*
X165700Y122117D01*
Y122233D01*
X165816Y122350D01*
X165700Y122467D01*
Y122583D01*
X165816Y122350D02*
X166049D01*
X152700Y134700D02*
X153167Y134000D01*
Y134700D02*
X152700Y134000D01*
X153400D02*
Y134700D01*
X153750D01*
X153866Y134583D01*
Y134350D01*
X153750Y134233D01*
X153400D01*
X154100Y134583D02*
X154216Y134700D01*
X154449D01*
X154566Y134583D01*
Y134467D01*
X154449Y134350D01*
X154566Y134233D01*
Y134117D01*
X154449Y134000D01*
X154216D01*
X154100Y134117D01*
Y134233D01*
X154216Y134350D01*
X154100Y134467D01*
Y134583D01*
X154216Y134350D02*
X154449D01*
X160200Y89700D02*
Y90400D01*
X160550D01*
X160667Y90283D01*
Y90050D01*
X160550Y89933D01*
X160200D01*
X160433D02*
X160667Y89700D01*
X161366Y90400D02*
X160900D01*
Y90050D01*
X161133Y90167D01*
X161250D01*
X161366Y90050D01*
Y89817D01*
X161250Y89700D01*
X161016D01*
X160900Y89817D01*
X162066Y90400D02*
X161833Y90283D01*
X161600Y90050D01*
Y89817D01*
X161716Y89700D01*
X161949D01*
X162066Y89817D01*
Y89933D01*
X161949Y90050D01*
X161600D01*
X160350Y77325D02*
X159650D01*
Y77675D01*
X159767Y77792D01*
X160000D01*
X160117Y77675D01*
Y77325D01*
Y77558D02*
X160350Y77792D01*
X159650Y78491D02*
Y78025D01*
X160000D01*
X159883Y78258D01*
Y78375D01*
X160000Y78491D01*
X160233D01*
X160350Y78375D01*
Y78141D01*
X160233Y78025D01*
X159650Y79191D02*
Y78725D01*
X160000D01*
X159883Y78958D01*
Y79074D01*
X160000Y79191D01*
X160233D01*
X160350Y79074D01*
Y78841D01*
X160233Y78725D01*
X161600Y82000D02*
X160900D01*
Y82350D01*
X161017Y82467D01*
X161250D01*
X161367Y82350D01*
Y82000D01*
Y82233D02*
X161600Y82467D01*
X160900Y83166D02*
Y82700D01*
X161250D01*
X161133Y82933D01*
Y83050D01*
X161250Y83166D01*
X161483D01*
X161600Y83050D01*
Y82816D01*
X161483Y82700D01*
X161600Y83749D02*
X160900D01*
X161250Y83400D01*
Y83866D01*
X160500Y74400D02*
X159800D01*
Y74750D01*
X159917Y74867D01*
X160150D01*
X160267Y74750D01*
Y74400D01*
Y74633D02*
X160500Y74867D01*
X159800Y75566D02*
Y75100D01*
X160150D01*
X160033Y75333D01*
Y75450D01*
X160150Y75566D01*
X160383D01*
X160500Y75450D01*
Y75216D01*
X160383Y75100D01*
X159917Y75800D02*
X159800Y75916D01*
Y76149D01*
X159917Y76266D01*
X160033D01*
X160150Y76149D01*
Y76033D01*
Y76149D01*
X160267Y76266D01*
X160383D01*
X160500Y76149D01*
Y75916D01*
X160383Y75800D01*
X155650Y55550D02*
X156117Y54850D01*
Y55550D02*
X155650Y54850D01*
X156350D02*
Y55550D01*
X156700D01*
X156816Y55433D01*
Y55200D01*
X156700Y55083D01*
X156350D01*
X157516Y54850D02*
X157050D01*
X157516Y55317D01*
Y55433D01*
X157399Y55550D01*
X157166D01*
X157050Y55433D01*
X95625Y65925D02*
X94925D01*
Y66275D01*
X95042Y66392D01*
X95275D01*
X95392Y66275D01*
Y65925D01*
Y66158D02*
X95625Y66392D01*
Y67091D02*
Y66625D01*
X95158Y67091D01*
X95042D01*
X94925Y66975D01*
Y66741D01*
X95042Y66625D01*
Y67325D02*
X94925Y67441D01*
Y67674D01*
X95042Y67791D01*
X95158D01*
X95275Y67674D01*
X95392Y67791D01*
X95508D01*
X95625Y67674D01*
Y67441D01*
X95508Y67325D01*
X95392D01*
X95275Y67441D01*
X95158Y67325D01*
X95042D01*
X95275Y67441D02*
Y67674D01*
X116700Y71700D02*
X116000D01*
Y72050D01*
X116117Y72167D01*
X116350D01*
X116467Y72050D01*
Y71700D01*
Y71933D02*
X116700Y72167D01*
Y72866D02*
Y72400D01*
X116233Y72866D01*
X116117D01*
X116000Y72750D01*
Y72516D01*
X116117Y72400D01*
Y73100D02*
X116000Y73216D01*
Y73449D01*
X116117Y73566D01*
X116233D01*
X116350Y73449D01*
Y73333D01*
Y73449D01*
X116467Y73566D01*
X116583D01*
X116700Y73449D01*
Y73216D01*
X116583Y73100D01*
X117900Y69300D02*
X117200D01*
Y69650D01*
X117317Y69767D01*
X117550D01*
X117667Y69650D01*
Y69300D01*
Y69533D02*
X117900Y69767D01*
Y70466D02*
Y70000D01*
X117433Y70466D01*
X117317D01*
X117200Y70350D01*
Y70116D01*
X117317Y70000D01*
X117900Y71166D02*
Y70700D01*
X117433Y71166D01*
X117317D01*
X117200Y71049D01*
Y70816D01*
X117317Y70700D01*
X114000Y65400D02*
X113300D01*
Y65750D01*
X113417Y65867D01*
X113650D01*
X113767Y65750D01*
Y65400D01*
Y65633D02*
X114000Y65867D01*
Y66566D02*
Y66100D01*
X113533Y66566D01*
X113417D01*
X113300Y66450D01*
Y66216D01*
X113417Y66100D01*
X114000Y67149D02*
X113300D01*
X113650Y66800D01*
Y67266D01*
X129500Y82800D02*
Y83500D01*
X129850D01*
X129967Y83383D01*
Y83150D01*
X129850Y83033D01*
X129500D01*
X129733D02*
X129967Y82800D01*
X130666D02*
X130200D01*
X130666Y83267D01*
Y83383D01*
X130550Y83500D01*
X130316D01*
X130200Y83383D01*
X130900D02*
X131016Y83500D01*
X131249D01*
X131366Y83383D01*
Y82917D01*
X131249Y82800D01*
X131016D01*
X130900Y82917D01*
Y83383D01*
X130400Y82100D02*
Y81400D01*
X130750D01*
X130867Y81517D01*
Y81983D01*
X130750Y82100D01*
X130400D01*
X131100D02*
Y81400D01*
X131450D01*
X131566Y81517D01*
Y81983D01*
X131450Y82100D01*
X131100D01*
X131800Y81983D02*
X131916Y82100D01*
X132149D01*
X132266Y81983D01*
Y81867D01*
X132149Y81750D01*
X132033D01*
X132149D01*
X132266Y81633D01*
Y81517D01*
X132149Y81400D01*
X131916D01*
X131800Y81517D01*
X139700Y77600D02*
Y78300D01*
X140050D01*
X140167Y78183D01*
Y77950D01*
X140050Y77833D01*
X139700D01*
X139933D02*
X140167Y77600D01*
X140400D02*
X140633D01*
X140516D01*
Y78300D01*
X140400Y78183D01*
X141333Y77600D02*
Y78300D01*
X140983Y77950D01*
X141449D01*
X144100Y72600D02*
X143400D01*
Y72950D01*
X143517Y73067D01*
X143750D01*
X143867Y72950D01*
Y72600D01*
Y72833D02*
X144100Y73067D01*
Y73300D02*
Y73533D01*
Y73416D01*
X143400D01*
X143517Y73300D01*
Y73883D02*
X143400Y74000D01*
Y74233D01*
X143517Y74349D01*
X143633D01*
X143750Y74233D01*
Y74116D01*
Y74233D01*
X143867Y74349D01*
X143983D01*
X144100Y74233D01*
Y74000D01*
X143983Y73883D01*
X146200Y94100D02*
Y94800D01*
X146550D01*
X146667Y94683D01*
Y94450D01*
X146550Y94333D01*
X146200D01*
X146433D02*
X146667Y94100D01*
X146900D02*
X147133D01*
X147016D01*
Y94800D01*
X146900Y94683D01*
X147949Y94100D02*
X147483D01*
X147949Y94567D01*
Y94683D01*
X147833Y94800D01*
X147600D01*
X147483Y94683D01*
X125600Y111000D02*
Y111700D01*
X125950D01*
X126067Y111583D01*
Y111350D01*
X125950Y111233D01*
X125600D01*
X125833D02*
X126067Y111000D01*
X126300D02*
X126533D01*
X126416D01*
Y111700D01*
X126300Y111583D01*
X126883Y111000D02*
X127116D01*
X127000D01*
Y111700D01*
X126883Y111583D01*
X127800Y106400D02*
X127100D01*
Y106750D01*
X127217Y106867D01*
X127450D01*
X127567Y106750D01*
Y106400D01*
Y106633D02*
X127800Y106867D01*
Y107100D02*
Y107333D01*
Y107216D01*
X127100D01*
X127217Y107100D01*
Y107683D02*
X127100Y107800D01*
Y108033D01*
X127217Y108149D01*
X127683D01*
X127800Y108033D01*
Y107800D01*
X127683Y107683D01*
X127217D01*
X148475Y104675D02*
Y105375D01*
X148825D01*
X148942Y105258D01*
Y105025D01*
X148825Y104908D01*
X148475D01*
X148708D02*
X148942Y104675D01*
X149525D02*
Y105375D01*
X149175Y105025D01*
X149641D01*
X148500Y103400D02*
Y104100D01*
X148850D01*
X148967Y103983D01*
Y103750D01*
X148850Y103633D01*
X148500D01*
X148733D02*
X148967Y103400D01*
X149200Y103983D02*
X149316Y104100D01*
X149550D01*
X149666Y103983D01*
Y103867D01*
X149550Y103750D01*
X149433D01*
X149550D01*
X149666Y103633D01*
Y103517D01*
X149550Y103400D01*
X149316D01*
X149200Y103517D01*
X159692Y81067D02*
X159575Y80950D01*
Y80717D01*
X159692Y80600D01*
X160158D01*
X160275Y80717D01*
Y80950D01*
X160158Y81067D01*
X160275Y81650D02*
X159575D01*
X159925Y81300D01*
Y81766D01*
X159692Y82000D02*
X159575Y82116D01*
Y82349D01*
X159692Y82466D01*
X159808D01*
X159925Y82349D01*
Y82233D01*
Y82349D01*
X160042Y82466D01*
X160158D01*
X160275Y82349D01*
Y82116D01*
X160158Y82000D01*
X154442Y84408D02*
X154325Y84525D01*
X154092D01*
X153975Y84408D01*
Y83942D01*
X154092Y83825D01*
X154325D01*
X154442Y83942D01*
X155025Y83825D02*
Y84525D01*
X154675Y84175D01*
X155141D01*
X155841Y83825D02*
X155375D01*
X155841Y84292D01*
Y84408D01*
X155724Y84525D01*
X155491D01*
X155375Y84408D01*
X126400Y116900D02*
Y117600D01*
X126750D01*
X126867Y117483D01*
Y117250D01*
X126750Y117133D01*
X126400D01*
X126633D02*
X126867Y116900D01*
X127566D02*
X127100D01*
X127566Y117367D01*
Y117483D01*
X127450Y117600D01*
X127216D01*
X127100Y117483D01*
X156667Y112083D02*
X156550Y112200D01*
X156317D01*
X156200Y112083D01*
Y111617D01*
X156317Y111500D01*
X156550D01*
X156667Y111617D01*
X157250Y111500D02*
Y112200D01*
X156900Y111850D01*
X157366D01*
X126300Y115500D02*
Y116200D01*
X126650D01*
X126767Y116083D01*
Y115850D01*
X126650Y115733D01*
X126300D01*
X126533D02*
X126767Y115500D01*
X127000D02*
X127233D01*
X127116D01*
Y116200D01*
X127000Y116083D01*
X168100Y113700D02*
Y113000D01*
X168567D01*
X168800D02*
X169033D01*
X168916D01*
Y113700D01*
X168800Y113583D01*
X169849Y113000D02*
X169383D01*
X169849Y113467D01*
Y113583D01*
X169733Y113700D01*
X169500D01*
X169383Y113583D01*
X62000Y101300D02*
Y100600D01*
X62467D01*
X62700D02*
X62933D01*
X62816D01*
Y101300D01*
X62700Y101183D01*
X63283Y100600D02*
X63516D01*
X63400D01*
Y101300D01*
X63283Y101183D01*
X144600Y107100D02*
Y106400D01*
X145067D01*
X145766Y107100D02*
X145300D01*
Y106750D01*
X145533Y106867D01*
X145650D01*
X145766Y106750D01*
Y106517D01*
X145650Y106400D01*
X145416D01*
X145300Y106517D01*
X73400Y71300D02*
Y70600D01*
X73867D01*
X74100Y70717D02*
X74216Y70600D01*
X74450D01*
X74566Y70717D01*
Y71183D01*
X74450Y71300D01*
X74216D01*
X74100Y71183D01*
Y71067D01*
X74216Y70950D01*
X74566D01*
X151500Y84800D02*
Y84100D01*
X151967D01*
X152200Y84683D02*
X152316Y84800D01*
X152550D01*
X152666Y84683D01*
Y84567D01*
X152550Y84450D01*
X152666Y84333D01*
Y84217D01*
X152550Y84100D01*
X152316D01*
X152200Y84217D01*
Y84333D01*
X152316Y84450D01*
X152200Y84567D01*
Y84683D01*
X152316Y84450D02*
X152550D01*
X159092Y60717D02*
X158975Y60600D01*
Y60367D01*
X159092Y60250D01*
X159558D01*
X159675Y60367D01*
Y60600D01*
X159558Y60717D01*
X159675Y61300D02*
X158975D01*
X159325Y60950D01*
Y61416D01*
X158975Y62116D02*
Y61650D01*
X159325D01*
X159208Y61883D01*
Y61999D01*
X159325Y62116D01*
X159558D01*
X159675Y61999D01*
Y61766D01*
X159558Y61650D01*
X126100Y92900D02*
X126800D01*
Y93367D01*
Y93950D02*
X126100D01*
X126450Y93600D01*
Y94066D01*
X129400Y129800D02*
Y129100D01*
X129867D01*
X130100D02*
X130333D01*
X130216D01*
Y129800D01*
X130100Y129683D01*
X148567Y128900D02*
X148100D01*
Y128550D01*
X148333D01*
X148100D01*
Y128200D01*
X148800Y128900D02*
Y128317D01*
X148916Y128200D01*
X149150D01*
X149266Y128317D01*
Y128900D01*
X149500Y128200D02*
X149733D01*
X149616D01*
Y128900D01*
X149500Y128783D01*
X66800Y66800D02*
Y66100D01*
X67150D01*
X67267Y66217D01*
Y66683D01*
X67150Y66800D01*
X66800D01*
X67500D02*
Y66100D01*
X67850D01*
X67966Y66217D01*
Y66683D01*
X67850Y66800D01*
X67500D01*
X68200Y66100D02*
X68433D01*
X68316D01*
Y66800D01*
X68200Y66683D01*
X69249Y66100D02*
X68783D01*
X69249Y66567D01*
Y66683D01*
X69133Y66800D01*
X68899D01*
X68783Y66683D01*
X199000Y118900D02*
X199700D01*
Y119250D01*
X199583Y119367D01*
X199117D01*
X199000Y119250D01*
Y118900D01*
Y119600D02*
X199700D01*
Y119950D01*
X199583Y120066D01*
X199117D01*
X199000Y119950D01*
Y119600D01*
X199700Y120300D02*
Y120533D01*
Y120416D01*
X199000D01*
X199117Y120300D01*
X199700Y120883D02*
Y121116D01*
Y120999D01*
X199000D01*
X199117Y120883D01*
X112700Y82300D02*
Y81600D01*
X113050D01*
X113167Y81717D01*
Y82183D01*
X113050Y82300D01*
X112700D01*
X113400D02*
Y81600D01*
X113750D01*
X113866Y81717D01*
Y82183D01*
X113750Y82300D01*
X113400D01*
X114100Y81600D02*
X114333D01*
X114216D01*
Y82300D01*
X114100Y82183D01*
X114683D02*
X114799Y82300D01*
X115033D01*
X115149Y82183D01*
Y81717D01*
X115033Y81600D01*
X114799D01*
X114683Y81717D01*
Y82183D01*
X152550Y77875D02*
X153250D01*
Y78225D01*
X153133Y78342D01*
X152667D01*
X152550Y78225D01*
Y77875D01*
Y78575D02*
X153250D01*
Y78925D01*
X153133Y79041D01*
X152667D01*
X152550Y78925D01*
Y78575D01*
Y79741D02*
X152667Y79508D01*
X152900Y79275D01*
X153133D01*
X153250Y79391D01*
Y79624D01*
X153133Y79741D01*
X153017D01*
X152900Y79624D01*
Y79275D01*
X179367Y134683D02*
X179250Y134800D01*
X179017D01*
X178900Y134683D01*
Y134217D01*
X179017Y134100D01*
X179250D01*
X179367Y134217D01*
X179600Y134100D02*
X179833D01*
X179716D01*
Y134800D01*
X179600Y134683D01*
X180183Y134100D02*
X180416D01*
X180300D01*
Y134800D01*
X180183Y134683D01*
X181233Y134800D02*
X180766D01*
Y134450D01*
X180999Y134567D01*
X181116D01*
X181233Y134450D01*
Y134217D01*
X181116Y134100D01*
X180883D01*
X180766Y134217D01*
X71817Y85867D02*
X71700Y85750D01*
Y85517D01*
X71817Y85400D01*
X72283D01*
X72400Y85517D01*
Y85750D01*
X72283Y85867D01*
X72400Y86100D02*
Y86333D01*
Y86216D01*
X71700D01*
X71817Y86100D01*
X72400Y86683D02*
Y86916D01*
Y86800D01*
X71700D01*
X71817Y86683D01*
Y87266D02*
X71700Y87383D01*
Y87616D01*
X71817Y87733D01*
X71933D01*
X72050Y87616D01*
X72167Y87733D01*
X72283D01*
X72400Y87616D01*
Y87383D01*
X72283Y87266D01*
X72167D01*
X72050Y87383D01*
X71933Y87266D01*
X71817D01*
X72050Y87383D02*
Y87616D01*
X162200Y91600D02*
Y90900D01*
X162550D01*
X162667Y91017D01*
Y91483D01*
X162550Y91600D01*
X162200D01*
X162900Y90900D02*
Y91367D01*
X163133Y91600D01*
X163366Y91367D01*
Y90900D01*
Y91250D01*
X162900D01*
X163600Y90900D02*
X163833D01*
X163716D01*
Y91600D01*
X163600Y91483D01*
X164183Y90900D02*
X164416D01*
X164299D01*
Y91600D01*
X164183Y91483D01*
X142900Y92000D02*
Y91300D01*
X143250D01*
X143367Y91417D01*
Y91883D01*
X143250Y92000D01*
X142900D01*
X143600Y91300D02*
Y91767D01*
X143833Y92000D01*
X144066Y91767D01*
Y91300D01*
Y91650D01*
X143600D01*
X144300Y91883D02*
X144416Y92000D01*
X144649D01*
X144766Y91883D01*
Y91767D01*
X144649Y91650D01*
X144766Y91533D01*
Y91417D01*
X144649Y91300D01*
X144416D01*
X144300Y91417D01*
Y91533D01*
X144416Y91650D01*
X144300Y91767D01*
Y91883D01*
X144416Y91650D02*
X144649D01*
X29000Y66000D02*
Y65300D01*
X29350D01*
X29467Y65417D01*
Y65883D01*
X29350Y66000D01*
X29000D01*
X29700Y65300D02*
Y65767D01*
X29933Y66000D01*
X30166Y65767D01*
Y65300D01*
Y65650D01*
X29700D01*
X30400Y66000D02*
X30866D01*
Y65883D01*
X30400Y65417D01*
Y65300D01*
X29000Y81800D02*
Y81100D01*
X29350D01*
X29467Y81217D01*
Y81683D01*
X29350Y81800D01*
X29000D01*
X29700Y81100D02*
Y81567D01*
X29933Y81800D01*
X30166Y81567D01*
Y81100D01*
Y81450D01*
X29700D01*
X30866Y81800D02*
X30633Y81683D01*
X30400Y81450D01*
Y81217D01*
X30516Y81100D01*
X30749D01*
X30866Y81217D01*
Y81333D01*
X30749Y81450D01*
X30400D01*
X142975Y83475D02*
Y82775D01*
X143325D01*
X143442Y82892D01*
Y83358D01*
X143325Y83475D01*
X142975D01*
X143675Y82775D02*
Y83242D01*
X143908Y83475D01*
X144141Y83242D01*
Y82775D01*
Y83125D01*
X143675D01*
X144841Y83475D02*
X144375D01*
Y83125D01*
X144608Y83242D01*
X144724D01*
X144841Y83125D01*
Y82892D01*
X144724Y82775D01*
X144491D01*
X144375Y82892D01*
X136900Y109300D02*
X137600D01*
Y109650D01*
X137483Y109767D01*
X137017D01*
X136900Y109650D01*
Y109300D01*
X137600Y110000D02*
X137133D01*
X136900Y110233D01*
X137133Y110466D01*
X137600D01*
X137250D01*
Y110000D01*
X137600Y111049D02*
X136900D01*
X137250Y110700D01*
Y111166D01*
X139300Y103000D02*
Y102300D01*
X139650D01*
X139767Y102417D01*
Y102883D01*
X139650Y103000D01*
X139300D01*
X140000Y102300D02*
Y102767D01*
X140233Y103000D01*
X140466Y102767D01*
Y102300D01*
Y102650D01*
X140000D01*
X141166Y102300D02*
X140700D01*
X141166Y102767D01*
Y102883D01*
X141049Y103000D01*
X140816D01*
X140700Y102883D01*
X60467Y72383D02*
X60350Y72500D01*
X60117D01*
X60000Y72383D01*
Y71917D01*
X60117Y71800D01*
X60350D01*
X60467Y71917D01*
X60700Y71800D02*
X60933D01*
X60816D01*
Y72500D01*
X60700Y72383D01*
X61749Y71800D02*
X61283D01*
X61749Y72267D01*
Y72383D01*
X61633Y72500D01*
X61400D01*
X61283Y72383D01*
X62449Y72500D02*
X61983D01*
Y72150D01*
X62216Y72267D01*
X62333D01*
X62449Y72150D01*
Y71917D01*
X62333Y71800D01*
X62099D01*
X61983Y71917D01*
X71667Y59683D02*
X71550Y59800D01*
X71317D01*
X71200Y59683D01*
Y59217D01*
X71317Y59100D01*
X71550D01*
X71667Y59217D01*
X71900Y59100D02*
X72133D01*
X72016D01*
Y59800D01*
X71900Y59683D01*
X72949Y59100D02*
X72483D01*
X72949Y59567D01*
Y59683D01*
X72833Y59800D01*
X72600D01*
X72483Y59683D01*
X73533Y59100D02*
Y59800D01*
X73183Y59450D01*
X73649D01*
X78542Y70333D02*
X78425Y70450D01*
X78192D01*
X78075Y70333D01*
Y69867D01*
X78192Y69750D01*
X78425D01*
X78542Y69867D01*
X78775Y69750D02*
X79008D01*
X78891D01*
Y70450D01*
X78775Y70333D01*
X79824Y69750D02*
X79358D01*
X79824Y70217D01*
Y70333D01*
X79708Y70450D01*
X79475D01*
X79358Y70333D01*
X80058Y69750D02*
X80291D01*
X80174D01*
Y70450D01*
X80058Y70333D01*
X71667Y75667D02*
X71550Y75550D01*
Y75317D01*
X71667Y75200D01*
X72133D01*
X72250Y75317D01*
Y75550D01*
X72133Y75667D01*
X72250Y75900D02*
Y76133D01*
Y76016D01*
X71550D01*
X71667Y75900D01*
X72250Y76483D02*
Y76716D01*
Y76600D01*
X71550D01*
X71667Y76483D01*
X72133Y77066D02*
X72250Y77183D01*
Y77416D01*
X72133Y77533D01*
X71667D01*
X71550Y77416D01*
Y77183D01*
X71667Y77066D01*
X71783D01*
X71900Y77183D01*
Y77533D01*
X75417Y83767D02*
X75300Y83650D01*
Y83417D01*
X75417Y83300D01*
X75883D01*
X76000Y83417D01*
Y83650D01*
X75883Y83767D01*
X76000Y84000D02*
Y84233D01*
Y84116D01*
X75300D01*
X75417Y84000D01*
X76000Y84583D02*
Y84816D01*
Y84700D01*
X75300D01*
X75417Y84583D01*
X75300Y85633D02*
X75417Y85399D01*
X75650Y85166D01*
X75883D01*
X76000Y85283D01*
Y85516D01*
X75883Y85633D01*
X75767D01*
X75650Y85516D01*
Y85166D01*
X70242Y81642D02*
X70125Y81525D01*
Y81292D01*
X70242Y81175D01*
X70708D01*
X70825Y81292D01*
Y81525D01*
X70708Y81642D01*
X70825Y81875D02*
Y82108D01*
Y81991D01*
X70125D01*
X70242Y81875D01*
X70825Y82458D02*
Y82691D01*
Y82575D01*
X70125D01*
X70242Y82458D01*
X70125Y83041D02*
Y83508D01*
X70242D01*
X70708Y83041D01*
X70825D01*
X122192Y79508D02*
X122075Y79625D01*
X121842D01*
X121725Y79508D01*
Y79042D01*
X121842Y78925D01*
X122075D01*
X122192Y79042D01*
X122425Y79625D02*
X122891D01*
Y79508D01*
X122425Y79042D01*
Y78925D01*
X123125Y79508D02*
X123241Y79625D01*
X123474D01*
X123591Y79508D01*
Y79392D01*
X123474Y79275D01*
X123358D01*
X123474D01*
X123591Y79158D01*
Y79042D01*
X123474Y78925D01*
X123241D01*
X123125Y79042D01*
X167967Y110383D02*
X167850Y110500D01*
X167617D01*
X167500Y110383D01*
Y109917D01*
X167617Y109800D01*
X167850D01*
X167967Y109917D01*
X168200Y109800D02*
X168433D01*
X168316D01*
Y110500D01*
X168200Y110383D01*
X168783Y109800D02*
X169016D01*
X168900D01*
Y110500D01*
X168783Y110383D01*
X169716Y109800D02*
Y110500D01*
X169366Y110150D01*
X169833D01*
X174717Y113767D02*
X174600Y113650D01*
Y113417D01*
X174717Y113300D01*
X175183D01*
X175300Y113417D01*
Y113650D01*
X175183Y113767D01*
X175300Y114000D02*
Y114233D01*
Y114116D01*
X174600D01*
X174717Y114000D01*
X175300Y114583D02*
Y114816D01*
Y114700D01*
X174600D01*
X174717Y114583D01*
Y115166D02*
X174600Y115283D01*
Y115516D01*
X174717Y115633D01*
X174833D01*
X174950Y115516D01*
Y115399D01*
Y115516D01*
X175067Y115633D01*
X175183D01*
X175300Y115516D01*
Y115283D01*
X175183Y115166D01*
X189067Y111683D02*
X188950Y111800D01*
X188717D01*
X188600Y111683D01*
Y111217D01*
X188717Y111100D01*
X188950D01*
X189067Y111217D01*
X189300Y111100D02*
X189533D01*
X189416D01*
Y111800D01*
X189300Y111683D01*
X189883Y111100D02*
X190116D01*
X190000D01*
Y111800D01*
X189883Y111683D01*
X190466Y111100D02*
X190699D01*
X190583D01*
Y111800D01*
X190466Y111683D01*
X117017Y74567D02*
X116900Y74450D01*
Y74217D01*
X117017Y74100D01*
X117483D01*
X117600Y74217D01*
Y74450D01*
X117483Y74567D01*
X117600Y74800D02*
Y75033D01*
Y74916D01*
X116900D01*
X117017Y74800D01*
Y75383D02*
X116900Y75500D01*
Y75733D01*
X117017Y75849D01*
X117483D01*
X117600Y75733D01*
Y75500D01*
X117483Y75383D01*
X117017D01*
Y76083D02*
X116900Y76199D01*
Y76433D01*
X117017Y76549D01*
X117133D01*
X117250Y76433D01*
X117367Y76549D01*
X117483D01*
X117600Y76433D01*
Y76199D01*
X117483Y76083D01*
X117367D01*
X117250Y76199D01*
X117133Y76083D01*
X117017D01*
X117250Y76199D02*
Y76433D01*
X113917Y71067D02*
X113800Y70950D01*
Y70717D01*
X113917Y70600D01*
X114383D01*
X114500Y70717D01*
Y70950D01*
X114383Y71067D01*
X114500Y71300D02*
Y71533D01*
Y71416D01*
X113800D01*
X113917Y71300D01*
Y71883D02*
X113800Y72000D01*
Y72233D01*
X113917Y72349D01*
X114383D01*
X114500Y72233D01*
Y72000D01*
X114383Y71883D01*
X113917D01*
X113800Y72583D02*
Y73049D01*
X113917D01*
X114383Y72583D01*
X114500D01*
X100417Y110867D02*
X100300Y110750D01*
Y110517D01*
X100417Y110400D01*
X100883D01*
X101000Y110517D01*
Y110750D01*
X100883Y110867D01*
X101000Y111100D02*
Y111333D01*
Y111216D01*
X100300D01*
X100417Y111100D01*
X101000Y111683D02*
Y111916D01*
Y111800D01*
X100300D01*
X100417Y111683D01*
Y112266D02*
X100300Y112383D01*
Y112616D01*
X100417Y112733D01*
X100883D01*
X101000Y112616D01*
Y112383D01*
X100883Y112266D01*
X100417D01*
X98117Y110867D02*
X98000Y110750D01*
Y110517D01*
X98117Y110400D01*
X98583D01*
X98700Y110517D01*
Y110750D01*
X98583Y110867D01*
X98700Y111100D02*
Y111333D01*
Y111216D01*
X98000D01*
X98117Y111100D01*
Y111683D02*
X98000Y111800D01*
Y112033D01*
X98117Y112149D01*
X98583D01*
X98700Y112033D01*
Y111800D01*
X98583Y111683D01*
X98117D01*
X98583Y112383D02*
X98700Y112499D01*
Y112733D01*
X98583Y112849D01*
X98117D01*
X98000Y112733D01*
Y112499D01*
X98117Y112383D01*
X98233D01*
X98350Y112499D01*
Y112849D01*
X120117Y78292D02*
X120000Y78175D01*
Y77942D01*
X120117Y77825D01*
X120583D01*
X120700Y77942D01*
Y78175D01*
X120583Y78292D01*
X120700Y78525D02*
Y78758D01*
Y78641D01*
X120000D01*
X120117Y78525D01*
Y79108D02*
X120000Y79225D01*
Y79458D01*
X120117Y79574D01*
X120583D01*
X120700Y79458D01*
Y79225D01*
X120583Y79108D01*
X120117D01*
X120000Y80274D02*
X120117Y80041D01*
X120350Y79808D01*
X120583D01*
X120700Y79924D01*
Y80158D01*
X120583Y80274D01*
X120467D01*
X120350Y80158D01*
Y79808D01*
X153767Y68983D02*
X153650Y69100D01*
X153417D01*
X153300Y68983D01*
Y68517D01*
X153417Y68400D01*
X153650D01*
X153767Y68517D01*
X154000Y68400D02*
X154233D01*
X154116D01*
Y69100D01*
X154000Y68983D01*
X154583D02*
X154700Y69100D01*
X154933D01*
X155049Y68983D01*
Y68517D01*
X154933Y68400D01*
X154700D01*
X154583Y68517D01*
Y68983D01*
X155749Y69100D02*
X155283D01*
Y68750D01*
X155516Y68867D01*
X155633D01*
X155749Y68750D01*
Y68517D01*
X155633Y68400D01*
X155399D01*
X155283Y68517D01*
X158917Y72642D02*
X158800Y72525D01*
Y72292D01*
X158917Y72175D01*
X159383D01*
X159500Y72292D01*
Y72525D01*
X159383Y72642D01*
X159500Y72875D02*
Y73108D01*
Y72991D01*
X158800D01*
X158917Y72875D01*
Y73458D02*
X158800Y73575D01*
Y73808D01*
X158917Y73924D01*
X159383D01*
X159500Y73808D01*
Y73575D01*
X159383Y73458D01*
X158917D01*
Y74158D02*
X158800Y74274D01*
Y74508D01*
X158917Y74624D01*
X159033D01*
X159150Y74508D01*
Y74391D01*
Y74508D01*
X159267Y74624D01*
X159383D01*
X159500Y74508D01*
Y74274D01*
X159383Y74158D01*
X156567Y70383D02*
X156450Y70500D01*
X156217D01*
X156100Y70383D01*
Y69917D01*
X156217Y69800D01*
X156450D01*
X156567Y69917D01*
X156800Y69800D02*
X157033D01*
X156916D01*
Y70500D01*
X156800Y70383D01*
X157383D02*
X157500Y70500D01*
X157733D01*
X157849Y70383D01*
Y69917D01*
X157733Y69800D01*
X157500D01*
X157383Y69917D01*
Y70383D01*
X158083D02*
X158199Y70500D01*
X158433D01*
X158549Y70383D01*
Y69917D01*
X158433Y69800D01*
X158199D01*
X158083Y69917D01*
Y70383D01*
X152717Y71117D02*
X152600Y71000D01*
Y70767D01*
X152717Y70650D01*
X153183D01*
X153300Y70767D01*
Y71000D01*
X153183Y71117D01*
Y71350D02*
X153300Y71466D01*
Y71700D01*
X153183Y71816D01*
X152717D01*
X152600Y71700D01*
Y71466D01*
X152717Y71350D01*
X152833D01*
X152950Y71466D01*
Y71816D01*
X153183Y72050D02*
X153300Y72166D01*
Y72399D01*
X153183Y72516D01*
X152717D01*
X152600Y72399D01*
Y72166D01*
X152717Y72050D01*
X152833D01*
X152950Y72166D01*
Y72516D01*
X156067Y80683D02*
X155950Y80800D01*
X155717D01*
X155600Y80683D01*
Y80217D01*
X155717Y80100D01*
X155950D01*
X156067Y80217D01*
X156300D02*
X156416Y80100D01*
X156650D01*
X156766Y80217D01*
Y80683D01*
X156650Y80800D01*
X156416D01*
X156300Y80683D01*
Y80567D01*
X156416Y80450D01*
X156766D01*
X157000Y80683D02*
X157116Y80800D01*
X157349D01*
X157466Y80683D01*
Y80567D01*
X157349Y80450D01*
X157466Y80333D01*
Y80217D01*
X157349Y80100D01*
X157116D01*
X157000Y80217D01*
Y80333D01*
X157116Y80450D01*
X157000Y80567D01*
Y80683D01*
X157116Y80450D02*
X157349D01*
X107292Y95817D02*
X107175Y95700D01*
Y95467D01*
X107292Y95350D01*
X107758D01*
X107875Y95467D01*
Y95700D01*
X107758Y95817D01*
X107292Y96050D02*
X107175Y96166D01*
Y96400D01*
X107292Y96516D01*
X107408D01*
X107525Y96400D01*
X107642Y96516D01*
X107758D01*
X107875Y96400D01*
Y96166D01*
X107758Y96050D01*
X107642D01*
X107525Y96166D01*
X107408Y96050D01*
X107292D01*
X107525Y96166D02*
Y96400D01*
X107292Y96750D02*
X107175Y96866D01*
Y97099D01*
X107292Y97216D01*
X107758D01*
X107875Y97099D01*
Y96866D01*
X107758Y96750D01*
X107292D01*
X113517Y62767D02*
X113400Y62650D01*
Y62417D01*
X113517Y62300D01*
X113983D01*
X114100Y62417D01*
Y62650D01*
X113983Y62767D01*
X113400Y63000D02*
Y63466D01*
X113517D01*
X113983Y63000D01*
X114100D01*
X113983Y63700D02*
X114100Y63816D01*
Y64049D01*
X113983Y64166D01*
X113517D01*
X113400Y64049D01*
Y63816D01*
X113517Y63700D01*
X113633D01*
X113750Y63816D01*
Y64166D01*
X92017Y62667D02*
X91900Y62550D01*
Y62317D01*
X92017Y62200D01*
X92483D01*
X92600Y62317D01*
Y62550D01*
X92483Y62667D01*
X91900Y62900D02*
Y63366D01*
X92017D01*
X92483Y62900D01*
X92600D01*
X92017Y63600D02*
X91900Y63716D01*
Y63949D01*
X92017Y64066D01*
X92133D01*
X92250Y63949D01*
X92367Y64066D01*
X92483D01*
X92600Y63949D01*
Y63716D01*
X92483Y63600D01*
X92367D01*
X92250Y63716D01*
X92133Y63600D01*
X92017D01*
X92250Y63716D02*
Y63949D01*
X96417Y64967D02*
X96300Y64850D01*
Y64617D01*
X96417Y64500D01*
X96883D01*
X97000Y64617D01*
Y64850D01*
X96883Y64967D01*
X96300Y65200D02*
Y65666D01*
X96417D01*
X96883Y65200D01*
X97000D01*
X96300Y65900D02*
Y66366D01*
X96417D01*
X96883Y65900D01*
X97000D01*
X119917Y68567D02*
X119800Y68450D01*
Y68217D01*
X119917Y68100D01*
X120383D01*
X120500Y68217D01*
Y68450D01*
X120383Y68567D01*
X119800Y68800D02*
Y69266D01*
X119917D01*
X120383Y68800D01*
X120500D01*
X119800Y69966D02*
X119917Y69733D01*
X120150Y69500D01*
X120383D01*
X120500Y69616D01*
Y69849D01*
X120383Y69966D01*
X120267D01*
X120150Y69849D01*
Y69500D01*
X118317Y68167D02*
X118200Y68050D01*
Y67817D01*
X118317Y67700D01*
X118783D01*
X118900Y67817D01*
Y68050D01*
X118783Y68167D01*
X118200Y68400D02*
Y68866D01*
X118317D01*
X118783Y68400D01*
X118900D01*
X118200Y69566D02*
Y69100D01*
X118550D01*
X118433Y69333D01*
Y69449D01*
X118550Y69566D01*
X118783D01*
X118900Y69449D01*
Y69216D01*
X118783Y69100D01*
X124967Y61883D02*
X124850Y62000D01*
X124617D01*
X124500Y61883D01*
Y61417D01*
X124617Y61300D01*
X124850D01*
X124967Y61417D01*
X125200Y62000D02*
X125666D01*
Y61883D01*
X125200Y61417D01*
Y61300D01*
X126249D02*
Y62000D01*
X125900Y61650D01*
X126366D01*
X133067Y78883D02*
X132950Y79000D01*
X132717D01*
X132600Y78883D01*
Y78417D01*
X132717Y78300D01*
X132950D01*
X133067Y78417D01*
X133300Y79000D02*
X133766D01*
Y78883D01*
X133300Y78417D01*
Y78300D01*
X134466D02*
X134000D01*
X134466Y78767D01*
Y78883D01*
X134349Y79000D01*
X134116D01*
X134000Y78883D01*
X68367Y73183D02*
X68250Y73300D01*
X68017D01*
X67900Y73183D01*
Y72717D01*
X68017Y72600D01*
X68250D01*
X68367Y72717D01*
X69066Y73300D02*
X68833Y73183D01*
X68600Y72950D01*
Y72717D01*
X68716Y72600D01*
X68950D01*
X69066Y72717D01*
Y72833D01*
X68950Y72950D01*
X68600D01*
X69649Y72600D02*
Y73300D01*
X69300Y72950D01*
X69766D01*
X150567Y73183D02*
X150450Y73300D01*
X150217D01*
X150100Y73183D01*
Y72717D01*
X150217Y72600D01*
X150450D01*
X150567Y72717D01*
X151266Y73300D02*
X151033Y73183D01*
X150800Y72950D01*
Y72717D01*
X150916Y72600D01*
X151150D01*
X151266Y72717D01*
Y72833D01*
X151150Y72950D01*
X150800D01*
X151500Y72600D02*
X151733D01*
X151616D01*
Y73300D01*
X151500Y73183D01*
X152167Y87908D02*
X152050Y88025D01*
X151817D01*
X151700Y87908D01*
Y87442D01*
X151817Y87325D01*
X152050D01*
X152167Y87442D01*
X152866Y88025D02*
X152633Y87908D01*
X152400Y87675D01*
Y87442D01*
X152516Y87325D01*
X152750D01*
X152866Y87442D01*
Y87558D01*
X152750Y87675D01*
X152400D01*
X153566Y87325D02*
X153100D01*
X153566Y87792D01*
Y87908D01*
X153449Y88025D01*
X153216D01*
X153100Y87908D01*
X71367Y73583D02*
X71250Y73700D01*
X71017D01*
X70900Y73583D01*
Y73117D01*
X71017Y73000D01*
X71250D01*
X71367Y73117D01*
X72066Y73700D02*
X71833Y73583D01*
X71600Y73350D01*
Y73117D01*
X71716Y73000D01*
X71950D01*
X72066Y73117D01*
Y73233D01*
X71950Y73350D01*
X71600D01*
X72300Y73583D02*
X72416Y73700D01*
X72649D01*
X72766Y73583D01*
Y73117D01*
X72649Y73000D01*
X72416D01*
X72300Y73117D01*
Y73583D01*
X99317Y62767D02*
X99200Y62650D01*
Y62417D01*
X99317Y62300D01*
X99783D01*
X99900Y62417D01*
Y62650D01*
X99783Y62767D01*
X99200Y63466D02*
Y63000D01*
X99550D01*
X99433Y63233D01*
Y63350D01*
X99550Y63466D01*
X99783D01*
X99900Y63350D01*
Y63116D01*
X99783Y63000D01*
X99317Y63700D02*
X99200Y63816D01*
Y64049D01*
X99317Y64166D01*
X99433D01*
X99550Y64049D01*
X99667Y64166D01*
X99783D01*
X99900Y64049D01*
Y63816D01*
X99783Y63700D01*
X99667D01*
X99550Y63816D01*
X99433Y63700D01*
X99317D01*
X99550Y63816D02*
Y64049D01*
X136667Y88183D02*
X136550Y88300D01*
X136317D01*
X136200Y88183D01*
Y87717D01*
X136317Y87600D01*
X136550D01*
X136667Y87717D01*
X137366Y88300D02*
X136900D01*
Y87950D01*
X137133Y88067D01*
X137250D01*
X137366Y87950D01*
Y87717D01*
X137250Y87600D01*
X137016D01*
X136900Y87717D01*
X137600D02*
X137716Y87600D01*
X137949D01*
X138066Y87717D01*
Y88183D01*
X137949Y88300D01*
X137716D01*
X137600Y88183D01*
Y88067D01*
X137716Y87950D01*
X138066D01*
X39367Y86883D02*
X39250Y87000D01*
X39017D01*
X38900Y86883D01*
Y86417D01*
X39017Y86300D01*
X39250D01*
X39367Y86417D01*
X40066Y87000D02*
X39600D01*
Y86650D01*
X39833Y86767D01*
X39950D01*
X40066Y86650D01*
Y86417D01*
X39950Y86300D01*
X39716D01*
X39600Y86417D01*
X40300Y87000D02*
X40766D01*
Y86883D01*
X40300Y86417D01*
Y86300D01*
X39367Y70267D02*
X39250Y70150D01*
Y69917D01*
X39367Y69800D01*
X39833D01*
X39950Y69917D01*
Y70150D01*
X39833Y70267D01*
X39250Y70966D02*
Y70500D01*
X39600D01*
X39483Y70733D01*
Y70850D01*
X39600Y70966D01*
X39833D01*
X39950Y70850D01*
Y70616D01*
X39833Y70500D01*
X39250Y71666D02*
X39367Y71433D01*
X39600Y71200D01*
X39833D01*
X39950Y71316D01*
Y71549D01*
X39833Y71666D01*
X39717D01*
X39600Y71549D01*
Y71200D01*
X142217Y72767D02*
X142100Y72650D01*
Y72417D01*
X142217Y72300D01*
X142683D01*
X142800Y72417D01*
Y72650D01*
X142683Y72767D01*
X142100Y73466D02*
Y73000D01*
X142450D01*
X142333Y73233D01*
Y73350D01*
X142450Y73466D01*
X142683D01*
X142800Y73350D01*
Y73116D01*
X142683Y73000D01*
X142100Y74166D02*
Y73700D01*
X142450D01*
X142333Y73933D01*
Y74049D01*
X142450Y74166D01*
X142683D01*
X142800Y74049D01*
Y73816D01*
X142683Y73700D01*
X152071Y91310D02*
X151954Y91427D01*
X151721D01*
X151604Y91310D01*
Y90844D01*
X151721Y90727D01*
X151954D01*
X152071Y90844D01*
X152770Y91427D02*
X152304D01*
Y91077D01*
X152537Y91194D01*
X152654D01*
X152770Y91077D01*
Y90844D01*
X152654Y90727D01*
X152420D01*
X152304Y90844D01*
X153353Y90727D02*
Y91427D01*
X153004Y91077D01*
X153470D01*
X29017Y75167D02*
X28900Y75050D01*
Y74817D01*
X29017Y74700D01*
X29483D01*
X29600Y74817D01*
Y75050D01*
X29483Y75167D01*
X28900Y75866D02*
Y75400D01*
X29250D01*
X29133Y75633D01*
Y75750D01*
X29250Y75866D01*
X29483D01*
X29600Y75750D01*
Y75516D01*
X29483Y75400D01*
X29600Y76566D02*
Y76100D01*
X29133Y76566D01*
X29017D01*
X28900Y76449D01*
Y76216D01*
X29017Y76100D01*
X36267Y90483D02*
X36150Y90600D01*
X35917D01*
X35800Y90483D01*
Y90017D01*
X35917Y89900D01*
X36150D01*
X36267Y90017D01*
X36966Y90600D02*
X36500D01*
Y90250D01*
X36733Y90367D01*
X36850D01*
X36966Y90250D01*
Y90017D01*
X36850Y89900D01*
X36616D01*
X36500Y90017D01*
X37200Y89900D02*
X37433D01*
X37316D01*
Y90600D01*
X37200Y90483D01*
X151667Y89283D02*
X151550Y89400D01*
X151317D01*
X151200Y89283D01*
Y88817D01*
X151317Y88700D01*
X151550D01*
X151667Y88817D01*
X152366Y89400D02*
X151900D01*
Y89050D01*
X152133Y89167D01*
X152250D01*
X152366Y89050D01*
Y88817D01*
X152250Y88700D01*
X152016D01*
X151900Y88817D01*
X152600Y89283D02*
X152716Y89400D01*
X152949D01*
X153066Y89283D01*
Y89167D01*
X152949Y89050D01*
X152833D01*
X152949D01*
X153066Y88933D01*
Y88817D01*
X152949Y88700D01*
X152716D01*
X152600Y88817D01*
X138817Y83167D02*
X138700Y83050D01*
Y82817D01*
X138817Y82700D01*
X139283D01*
X139400Y82817D01*
Y83050D01*
X139283Y83167D01*
X138700Y83866D02*
Y83400D01*
X139050D01*
X138933Y83633D01*
Y83750D01*
X139050Y83866D01*
X139283D01*
X139400Y83750D01*
Y83516D01*
X139283Y83400D01*
X138817Y84100D02*
X138700Y84216D01*
Y84449D01*
X138817Y84566D01*
X139283D01*
X139400Y84449D01*
Y84216D01*
X139283Y84100D01*
X138817D01*
X126167Y99392D02*
X126050Y99275D01*
Y99042D01*
X126167Y98925D01*
X126633D01*
X126750Y99042D01*
Y99275D01*
X126633Y99392D01*
X126750Y99975D02*
X126050D01*
X126400Y99625D01*
Y100091D01*
X126050Y100325D02*
Y100791D01*
X126167D01*
X126633Y100325D01*
X126750D01*
X140117Y83267D02*
X140000Y83150D01*
Y82917D01*
X140117Y82800D01*
X140583D01*
X140700Y82917D01*
Y83150D01*
X140583Y83267D01*
X140700Y83850D02*
X140000D01*
X140350Y83500D01*
Y83966D01*
X140117Y84200D02*
X140000Y84316D01*
Y84549D01*
X140117Y84666D01*
X140233D01*
X140350Y84549D01*
X140467Y84666D01*
X140583D01*
X140700Y84549D01*
Y84316D01*
X140583Y84200D01*
X140467D01*
X140350Y84316D01*
X140233Y84200D01*
X140117D01*
X140350Y84316D02*
Y84549D01*
X151667Y93483D02*
X151550Y93600D01*
X151317D01*
X151200Y93483D01*
Y93017D01*
X151317Y92900D01*
X151550D01*
X151667Y93017D01*
X152250Y92900D02*
Y93600D01*
X151900Y93250D01*
X152366D01*
X152600Y93017D02*
X152716Y92900D01*
X152949D01*
X153066Y93017D01*
Y93483D01*
X152949Y93600D01*
X152716D01*
X152600Y93483D01*
Y93367D01*
X152716Y93250D01*
X153066D01*
X138367Y106417D02*
X138250Y106300D01*
Y106067D01*
X138367Y105950D01*
X138833D01*
X138950Y106067D01*
Y106300D01*
X138833Y106417D01*
X138367Y106650D02*
X138250Y106766D01*
Y107000D01*
X138367Y107116D01*
X138483D01*
X138600Y107000D01*
Y106883D01*
Y107000D01*
X138717Y107116D01*
X138833D01*
X138950Y107000D01*
Y106766D01*
X138833Y106650D01*
X138250Y107350D02*
Y107816D01*
X138367D01*
X138833Y107350D01*
X138950D01*
X138767Y112742D02*
X138650Y112625D01*
Y112392D01*
X138767Y112275D01*
X139233D01*
X139350Y112392D01*
Y112625D01*
X139233Y112742D01*
X138767Y112975D02*
X138650Y113091D01*
Y113325D01*
X138767Y113441D01*
X138883D01*
X139000Y113325D01*
Y113208D01*
Y113325D01*
X139117Y113441D01*
X139233D01*
X139350Y113325D01*
Y113091D01*
X139233Y112975D01*
X138767Y113675D02*
X138650Y113791D01*
Y114024D01*
X138767Y114141D01*
X138883D01*
X139000Y114024D01*
X139117Y114141D01*
X139233D01*
X139350Y114024D01*
Y113791D01*
X139233Y113675D01*
X139117D01*
X139000Y113791D01*
X138883Y113675D01*
X138767D01*
X139000Y113791D02*
Y114024D01*
X119467Y61683D02*
X119350Y61800D01*
X119117D01*
X119000Y61683D01*
Y61217D01*
X119117Y61100D01*
X119350D01*
X119467Y61217D01*
X119700Y61683D02*
X119816Y61800D01*
X120050D01*
X120166Y61683D01*
Y61567D01*
X120050Y61450D01*
X119933D01*
X120050D01*
X120166Y61333D01*
Y61217D01*
X120050Y61100D01*
X119816D01*
X119700Y61217D01*
X120749Y61100D02*
Y61800D01*
X120400Y61450D01*
X120866D01*
X150767Y103783D02*
X150650Y103900D01*
X150417D01*
X150300Y103783D01*
Y103317D01*
X150417Y103200D01*
X150650D01*
X150767Y103317D01*
X151000Y103783D02*
X151116Y103900D01*
X151350D01*
X151466Y103783D01*
Y103667D01*
X151350Y103550D01*
X151233D01*
X151350D01*
X151466Y103433D01*
Y103317D01*
X151350Y103200D01*
X151116D01*
X151000Y103317D01*
X152166Y103200D02*
X151700D01*
X152166Y103667D01*
Y103783D01*
X152049Y103900D01*
X151816D01*
X151700Y103783D01*
X129567Y120383D02*
X129450Y120500D01*
X129217D01*
X129100Y120383D01*
Y119917D01*
X129217Y119800D01*
X129450D01*
X129567Y119917D01*
X130266Y120500D02*
X129800D01*
Y120150D01*
X130033Y120267D01*
X130150D01*
X130266Y120150D01*
Y119917D01*
X130150Y119800D01*
X129916D01*
X129800Y119917D01*
X88167Y127133D02*
X88050Y127250D01*
X87817D01*
X87700Y127133D01*
Y126667D01*
X87817Y126550D01*
X88050D01*
X88167Y126667D01*
X88400Y126550D02*
X88633D01*
X88516D01*
Y127250D01*
X88400Y127133D01*
X88983Y126550D02*
X89216D01*
X89100D01*
Y127250D01*
X88983Y127133D01*
X62500Y63100D02*
Y62400D01*
X62850D01*
X62967Y62517D01*
Y62633D01*
X62850Y62750D01*
X62500D01*
X62850D01*
X62967Y62867D01*
Y62983D01*
X62850Y63100D01*
X62500D01*
X63666Y62517D02*
Y62983D01*
X63550Y63100D01*
X63316D01*
X63200Y62983D01*
Y62517D01*
X63316Y62400D01*
X63550D01*
X63433Y62633D02*
X63666Y62400D01*
X63550D02*
X63666Y62517D01*
X63900Y62983D02*
X64016Y63100D01*
X64249D01*
X64366Y62983D01*
Y62867D01*
X64249Y62750D01*
X64133D01*
X64249D01*
X64366Y62633D01*
Y62517D01*
X64249Y62400D01*
X64016D01*
X63900Y62517D01*
X57400Y112200D02*
Y111500D01*
X57750D01*
X57867Y111617D01*
Y111733D01*
X57750Y111850D01*
X57400D01*
X57750D01*
X57867Y111967D01*
Y112083D01*
X57750Y112200D01*
X57400D01*
X58566Y111617D02*
Y112083D01*
X58450Y112200D01*
X58216D01*
X58100Y112083D01*
Y111617D01*
X58216Y111500D01*
X58450D01*
X58333Y111733D02*
X58566Y111500D01*
X58450D02*
X58566Y111617D01*
X59266Y111500D02*
X58800D01*
X59266Y111967D01*
Y112083D01*
X59149Y112200D01*
X58916D01*
X58800Y112083D01*
X67342Y128967D02*
X67225Y128850D01*
Y128617D01*
X67342Y128500D01*
X67808D01*
X67925Y128617D01*
Y128850D01*
X67808Y128967D01*
X67925Y129666D02*
Y129200D01*
X67458Y129666D01*
X67342D01*
X67225Y129550D01*
Y129316D01*
X67342Y129200D01*
Y129900D02*
X67225Y130016D01*
Y130249D01*
X67342Y130366D01*
X67458D01*
X67575Y130249D01*
Y130133D01*
Y130249D01*
X67692Y130366D01*
X67808D01*
X67925Y130249D01*
Y130016D01*
X67808Y129900D01*
X80217Y129067D02*
X80100Y128950D01*
Y128717D01*
X80217Y128600D01*
X80683D01*
X80800Y128717D01*
Y128950D01*
X80683Y129067D01*
X80800Y129766D02*
Y129300D01*
X80333Y129766D01*
X80217D01*
X80100Y129650D01*
Y129416D01*
X80217Y129300D01*
X80800Y130466D02*
Y130000D01*
X80333Y130466D01*
X80217D01*
X80100Y130349D01*
Y130116D01*
X80217Y130000D01*
X93042Y121158D02*
X92925Y121275D01*
X92692D01*
X92575Y121158D01*
Y120692D01*
X92692Y120575D01*
X92925D01*
X93042Y120692D01*
X93741Y120575D02*
X93275D01*
X93741Y121042D01*
Y121158D01*
X93625Y121275D01*
X93391D01*
X93275Y121158D01*
X93975Y120575D02*
X94208D01*
X94091D01*
Y121275D01*
X93975Y121158D01*
X93003Y100642D02*
X92886Y100525D01*
Y100292D01*
X93003Y100175D01*
X93470D01*
X93586Y100292D01*
Y100525D01*
X93470Y100642D01*
X93586Y101341D02*
Y100875D01*
X93120Y101341D01*
X93003D01*
X92886Y101225D01*
Y100991D01*
X93003Y100875D01*
Y101575D02*
X92886Y101691D01*
Y101924D01*
X93003Y102041D01*
X93470D01*
X93586Y101924D01*
Y101691D01*
X93470Y101575D01*
X93003D01*
X76017Y94692D02*
X75900Y94575D01*
Y94342D01*
X76017Y94225D01*
X76483D01*
X76600Y94342D01*
Y94575D01*
X76483Y94692D01*
X76600Y94925D02*
Y95158D01*
Y95041D01*
X75900D01*
X76017Y94925D01*
X76483Y95508D02*
X76600Y95625D01*
Y95858D01*
X76483Y95974D01*
X76017D01*
X75900Y95858D01*
Y95625D01*
X76017Y95508D01*
X76133D01*
X76250Y95625D01*
Y95974D01*
X59667Y105992D02*
X59550Y105875D01*
Y105642D01*
X59667Y105525D01*
X60133D01*
X60250Y105642D01*
Y105875D01*
X60133Y105992D01*
X59550Y106225D02*
Y106691D01*
X59667D01*
X60133Y106225D01*
X60250D01*
X59367Y115283D02*
X59250Y115400D01*
X59017D01*
X58900Y115283D01*
Y114817D01*
X59017Y114700D01*
X59250D01*
X59367Y114817D01*
X60066Y115400D02*
X59833Y115283D01*
X59600Y115050D01*
Y114817D01*
X59716Y114700D01*
X59950D01*
X60066Y114817D01*
Y114933D01*
X59950Y115050D01*
X59600D01*
X75417Y129067D02*
X75300Y128950D01*
Y128717D01*
X75417Y128600D01*
X75883D01*
X76000Y128717D01*
Y128950D01*
X75883Y129067D01*
X76000Y129300D02*
Y129533D01*
Y129416D01*
X75300D01*
X75417Y129300D01*
X76000Y130349D02*
Y129883D01*
X75533Y130349D01*
X75417D01*
X75300Y130233D01*
Y130000D01*
X75417Y129883D01*
X99850Y133900D02*
Y133200D01*
X100200D01*
X100317Y133317D01*
Y133433D01*
X100200Y133550D01*
X99850D01*
X100200D01*
X100317Y133667D01*
Y133783D01*
X100200Y133900D01*
X99850D01*
X101016Y133317D02*
Y133783D01*
X100900Y133900D01*
X100666D01*
X100550Y133783D01*
Y133317D01*
X100666Y133200D01*
X100900D01*
X100783Y133433D02*
X101016Y133200D01*
X100900D02*
X101016Y133317D01*
X101250Y133200D02*
X101483D01*
X101366D01*
Y133900D01*
X101250Y133783D01*
X146867Y132383D02*
X146750Y132500D01*
X146517D01*
X146400Y132383D01*
Y131917D01*
X146517Y131800D01*
X146750D01*
X146867Y131917D01*
X147100Y131800D02*
X147333D01*
X147216D01*
Y132500D01*
X147100Y132383D01*
X152717Y105267D02*
X152600Y105150D01*
Y104917D01*
X152717Y104800D01*
X153183D01*
X153300Y104917D01*
Y105150D01*
X153183Y105267D01*
X153300Y105500D02*
Y105733D01*
Y105616D01*
X152600D01*
X152717Y105500D01*
X153300Y106433D02*
X152600D01*
X152950Y106083D01*
Y106549D01*
X63817Y57067D02*
X63700Y56950D01*
Y56717D01*
X63817Y56600D01*
X64283D01*
X64400Y56717D01*
Y56950D01*
X64283Y57067D01*
X64400Y57300D02*
Y57533D01*
Y57416D01*
X63700D01*
X63817Y57300D01*
X64400Y58349D02*
Y57883D01*
X63933Y58349D01*
X63817D01*
X63700Y58233D01*
Y58000D01*
X63817Y57883D01*
Y58583D02*
X63700Y58699D01*
Y58933D01*
X63817Y59049D01*
X63933D01*
X64050Y58933D01*
X64167Y59049D01*
X64283D01*
X64400Y58933D01*
Y58699D01*
X64283Y58583D01*
X64167D01*
X64050Y58699D01*
X63933Y58583D01*
X63817D01*
X64050Y58699D02*
Y58933D01*
X157817Y109967D02*
X157700Y109850D01*
Y109617D01*
X157817Y109500D01*
X158283D01*
X158400Y109617D01*
Y109850D01*
X158283Y109967D01*
X158400Y110666D02*
Y110200D01*
X157933Y110666D01*
X157817D01*
X157700Y110550D01*
Y110316D01*
X157817Y110200D01*
X158283Y110900D02*
X158400Y111016D01*
Y111249D01*
X158283Y111366D01*
X157817D01*
X157700Y111249D01*
Y111016D01*
X157817Y110900D01*
X157933D01*
X158050Y111016D01*
Y111366D01*
X50117Y83667D02*
X50000Y83550D01*
Y83317D01*
X50117Y83200D01*
X50583D01*
X50700Y83317D01*
Y83550D01*
X50583Y83667D01*
X50700Y83900D02*
Y84133D01*
Y84016D01*
X50000D01*
X50117Y83900D01*
X50700Y84949D02*
Y84483D01*
X50233Y84949D01*
X50117D01*
X50000Y84833D01*
Y84600D01*
X50117Y84483D01*
X50583Y85183D02*
X50700Y85299D01*
Y85533D01*
X50583Y85649D01*
X50117D01*
X50000Y85533D01*
Y85299D01*
X50117Y85183D01*
X50233D01*
X50350Y85299D01*
Y85649D01*
X86217Y92767D02*
X86100Y92650D01*
Y92417D01*
X86217Y92300D01*
X86683D01*
X86800Y92417D01*
Y92650D01*
X86683Y92767D01*
X86217Y93000D02*
X86100Y93116D01*
Y93350D01*
X86217Y93466D01*
X86333D01*
X86450Y93350D01*
X86567Y93466D01*
X86683D01*
X86800Y93350D01*
Y93116D01*
X86683Y93000D01*
X86567D01*
X86450Y93116D01*
X86333Y93000D01*
X86217D01*
X86450Y93116D02*
Y93350D01*
X80117Y92667D02*
X80000Y92550D01*
Y92317D01*
X80117Y92200D01*
X80583D01*
X80700Y92317D01*
Y92550D01*
X80583Y92667D01*
Y92900D02*
X80700Y93016D01*
Y93250D01*
X80583Y93366D01*
X80117D01*
X80000Y93250D01*
Y93016D01*
X80117Y92900D01*
X80233D01*
X80350Y93016D01*
Y93366D01*
X95567Y107883D02*
X95450Y108000D01*
X95217D01*
X95100Y107883D01*
Y107417D01*
X95217Y107300D01*
X95450D01*
X95567Y107417D01*
X95800Y107300D02*
X96033D01*
X95916D01*
Y108000D01*
X95800Y107883D01*
X96383D02*
X96500Y108000D01*
X96733D01*
X96849Y107883D01*
Y107417D01*
X96733Y107300D01*
X96500D01*
X96383Y107417D01*
Y107883D01*
X60667Y109908D02*
X60550Y110025D01*
X60317D01*
X60200Y109908D01*
Y109442D01*
X60317Y109325D01*
X60550D01*
X60667Y109442D01*
X60900Y109325D02*
X61133D01*
X61016D01*
Y110025D01*
X60900Y109908D01*
X61483Y110025D02*
X61949D01*
Y109908D01*
X61483Y109442D01*
Y109325D01*
X68317Y92067D02*
X68200Y91950D01*
Y91717D01*
X68317Y91600D01*
X68783D01*
X68900Y91717D01*
Y91950D01*
X68783Y92067D01*
X68900Y92300D02*
Y92533D01*
Y92416D01*
X68200D01*
X68317Y92300D01*
Y92883D02*
X68200Y93000D01*
Y93233D01*
X68317Y93349D01*
X68433D01*
X68550Y93233D01*
X68667Y93349D01*
X68783D01*
X68900Y93233D01*
Y93000D01*
X68783Y92883D01*
X68667D01*
X68550Y93000D01*
X68433Y92883D01*
X68317D01*
X68550Y93000D02*
Y93233D01*
X54017Y89167D02*
X53900Y89050D01*
Y88817D01*
X54017Y88700D01*
X54483D01*
X54600Y88817D01*
Y89050D01*
X54483Y89167D01*
X53900Y89866D02*
X54017Y89633D01*
X54250Y89400D01*
X54483D01*
X54600Y89516D01*
Y89750D01*
X54483Y89866D01*
X54367D01*
X54250Y89750D01*
Y89400D01*
X53900Y90566D02*
Y90100D01*
X54250D01*
X54133Y90333D01*
Y90449D01*
X54250Y90566D01*
X54483D01*
X54600Y90449D01*
Y90216D01*
X54483Y90100D01*
X62767Y96583D02*
X62650Y96700D01*
X62417D01*
X62300Y96583D01*
Y96117D01*
X62417Y96000D01*
X62650D01*
X62767Y96117D01*
X63466Y96700D02*
X63233Y96583D01*
X63000Y96350D01*
Y96117D01*
X63116Y96000D01*
X63350D01*
X63466Y96117D01*
Y96233D01*
X63350Y96350D01*
X63000D01*
X64166Y96700D02*
X63933Y96583D01*
X63700Y96350D01*
Y96117D01*
X63816Y96000D01*
X64049D01*
X64166Y96117D01*
Y96233D01*
X64049Y96350D01*
X63700D01*
X65367Y69483D02*
X65250Y69600D01*
X65017D01*
X64900Y69483D01*
Y69017D01*
X65017Y68900D01*
X65250D01*
X65367Y69017D01*
X65600Y68900D02*
X65833D01*
X65716D01*
Y69600D01*
X65600Y69483D01*
X66649Y68900D02*
X66183D01*
X66649Y69367D01*
Y69483D01*
X66533Y69600D01*
X66300D01*
X66183Y69483D01*
X67349Y69600D02*
X67116Y69483D01*
X66883Y69250D01*
Y69017D01*
X66999Y68900D01*
X67233D01*
X67349Y69017D01*
Y69133D01*
X67233Y69250D01*
X66883D01*
X65917Y57367D02*
X65800Y57250D01*
Y57017D01*
X65917Y56900D01*
X66383D01*
X66500Y57017D01*
Y57250D01*
X66383Y57367D01*
X66500Y57600D02*
Y57833D01*
Y57716D01*
X65800D01*
X65917Y57600D01*
X66500Y58649D02*
Y58183D01*
X66033Y58649D01*
X65917D01*
X65800Y58533D01*
Y58300D01*
X65917Y58183D01*
X65800Y58883D02*
Y59349D01*
X65917D01*
X66383Y58883D01*
X66500D01*
X102242Y128533D02*
X102125Y128650D01*
X101892D01*
X101775Y128533D01*
Y128067D01*
X101892Y127950D01*
X102125D01*
X102242Y128067D01*
X102475Y128650D02*
X102941D01*
Y128533D01*
X102475Y128067D01*
Y127950D01*
X103175Y128533D02*
X103291Y128650D01*
X103524D01*
X103641Y128533D01*
Y128067D01*
X103524Y127950D01*
X103291D01*
X103175Y128067D01*
Y128533D01*
X93992Y117533D02*
X93875Y117650D01*
X93642D01*
X93525Y117533D01*
Y117067D01*
X93642Y116950D01*
X93875D01*
X93992Y117067D01*
X94225Y117533D02*
X94341Y117650D01*
X94575D01*
X94691Y117533D01*
Y117417D01*
X94575Y117300D01*
X94691Y117183D01*
Y117067D01*
X94575Y116950D01*
X94341D01*
X94225Y117067D01*
Y117183D01*
X94341Y117300D01*
X94225Y117417D01*
Y117533D01*
X94341Y117300D02*
X94575D01*
X94925Y116950D02*
X95158D01*
X95041D01*
Y117650D01*
X94925Y117533D01*
X84817Y91267D02*
X84700Y91150D01*
Y90917D01*
X84817Y90800D01*
X85283D01*
X85400Y90917D01*
Y91150D01*
X85283Y91267D01*
X84817Y91500D02*
X84700Y91616D01*
Y91850D01*
X84817Y91966D01*
X84933D01*
X85050Y91850D01*
X85167Y91966D01*
X85283D01*
X85400Y91850D01*
Y91616D01*
X85283Y91500D01*
X85167D01*
X85050Y91616D01*
X84933Y91500D01*
X84817D01*
X85050Y91616D02*
Y91850D01*
X84817Y92200D02*
X84700Y92316D01*
Y92549D01*
X84817Y92666D01*
X84933D01*
X85050Y92549D01*
Y92433D01*
Y92549D01*
X85167Y92666D01*
X85283D01*
X85400Y92549D01*
Y92316D01*
X85283Y92200D01*
X95567Y113383D02*
X95450Y113500D01*
X95217D01*
X95100Y113383D01*
Y112917D01*
X95217Y112800D01*
X95450D01*
X95567Y112917D01*
X95800Y113383D02*
X95916Y113500D01*
X96150D01*
X96266Y113383D01*
Y113267D01*
X96150Y113150D01*
X96266Y113033D01*
Y112917D01*
X96150Y112800D01*
X95916D01*
X95800Y112917D01*
Y113033D01*
X95916Y113150D01*
X95800Y113267D01*
Y113383D01*
X95916Y113150D02*
X96150D01*
X96849Y112800D02*
Y113500D01*
X96500Y113150D01*
X96966D01*
X61767Y102383D02*
X61650Y102500D01*
X61417D01*
X61300Y102383D01*
Y101917D01*
X61417Y101800D01*
X61650D01*
X61767Y101917D01*
X62000Y102383D02*
X62116Y102500D01*
X62350D01*
X62466Y102383D01*
Y102267D01*
X62350Y102150D01*
X62466Y102033D01*
Y101917D01*
X62350Y101800D01*
X62116D01*
X62000Y101917D01*
Y102033D01*
X62116Y102150D01*
X62000Y102267D01*
Y102383D01*
X62116Y102150D02*
X62350D01*
X63166Y102500D02*
X62700D01*
Y102150D01*
X62933Y102267D01*
X63049D01*
X63166Y102150D01*
Y101917D01*
X63049Y101800D01*
X62816D01*
X62700Y101917D01*
X55067Y111783D02*
X54950Y111900D01*
X54717D01*
X54600Y111783D01*
Y111317D01*
X54717Y111200D01*
X54950D01*
X55067Y111317D01*
X55300Y111783D02*
X55416Y111900D01*
X55650D01*
X55766Y111783D01*
Y111667D01*
X55650Y111550D01*
X55766Y111433D01*
Y111317D01*
X55650Y111200D01*
X55416D01*
X55300Y111317D01*
Y111433D01*
X55416Y111550D01*
X55300Y111667D01*
Y111783D01*
X55416Y111550D02*
X55650D01*
X56000Y111900D02*
X56466D01*
Y111783D01*
X56000Y111317D01*
Y111200D01*
X54467Y107883D02*
X54350Y108000D01*
X54117D01*
X54000Y107883D01*
Y107417D01*
X54117Y107300D01*
X54350D01*
X54467Y107417D01*
X54700Y107883D02*
X54816Y108000D01*
X55050D01*
X55166Y107883D01*
Y107767D01*
X55050Y107650D01*
X55166Y107533D01*
Y107417D01*
X55050Y107300D01*
X54816D01*
X54700Y107417D01*
Y107533D01*
X54816Y107650D01*
X54700Y107767D01*
Y107883D01*
X54816Y107650D02*
X55050D01*
X55400Y107883D02*
X55516Y108000D01*
X55749D01*
X55866Y107883D01*
Y107767D01*
X55749Y107650D01*
X55866Y107533D01*
Y107417D01*
X55749Y107300D01*
X55516D01*
X55400Y107417D01*
Y107533D01*
X55516Y107650D01*
X55400Y107767D01*
Y107883D01*
X55516Y107650D02*
X55749D01*
X58668Y122767D02*
X58503D01*
X58338Y122602D01*
Y122437D01*
X58668Y122107D01*
X58832D01*
X58997Y122272D01*
Y122437D01*
X58832Y122932D02*
Y123097D01*
X58997Y123262D01*
X59162D01*
X59245Y123180D01*
Y123015D01*
X59410D01*
X59492Y122932D01*
Y122767D01*
X59327Y122602D01*
X59162D01*
X59080Y122685D01*
Y122850D01*
X58915D01*
X58832Y122932D01*
X59080Y122850D02*
X59245Y123015D01*
X59657Y123097D02*
X59822D01*
X59987Y123262D01*
Y123427D01*
X59657Y123757D01*
X59492D01*
X59327Y123592D01*
Y123427D01*
X59410Y123345D01*
X59575D01*
X59822Y123592D01*
X95417Y105067D02*
X95300Y104950D01*
Y104717D01*
X95417Y104600D01*
X95883D01*
X96000Y104717D01*
Y104950D01*
X95883Y105067D01*
Y105300D02*
X96000Y105416D01*
Y105650D01*
X95883Y105766D01*
X95417D01*
X95300Y105650D01*
Y105416D01*
X95417Y105300D01*
X95533D01*
X95650Y105416D01*
Y105766D01*
X95417Y106000D02*
X95300Y106116D01*
Y106349D01*
X95417Y106466D01*
X95883D01*
X96000Y106349D01*
Y106116D01*
X95883Y106000D01*
X95417D01*
X43117Y112867D02*
X43000Y112750D01*
Y112517D01*
X43117Y112400D01*
X43583D01*
X43700Y112517D01*
Y112750D01*
X43583Y112867D01*
Y113100D02*
X43700Y113216D01*
Y113450D01*
X43583Y113566D01*
X43117D01*
X43000Y113450D01*
Y113216D01*
X43117Y113100D01*
X43233D01*
X43350Y113216D01*
Y113566D01*
X43700Y113800D02*
Y114033D01*
Y113916D01*
X43000D01*
X43117Y113800D01*
X45517Y90867D02*
X45400Y90750D01*
Y90517D01*
X45517Y90400D01*
X45983D01*
X46100Y90517D01*
Y90750D01*
X45983Y90867D01*
Y91100D02*
X46100Y91216D01*
Y91450D01*
X45983Y91566D01*
X45517D01*
X45400Y91450D01*
Y91216D01*
X45517Y91100D01*
X45633D01*
X45750Y91216D01*
Y91566D01*
X46100Y92266D02*
Y91800D01*
X45633Y92266D01*
X45517D01*
X45400Y92149D01*
Y91916D01*
X45517Y91800D01*
X39117Y112767D02*
X39000Y112650D01*
Y112417D01*
X39117Y112300D01*
X39583D01*
X39700Y112417D01*
Y112650D01*
X39583Y112767D01*
Y113000D02*
X39700Y113116D01*
Y113350D01*
X39583Y113466D01*
X39117D01*
X39000Y113350D01*
Y113116D01*
X39117Y113000D01*
X39233D01*
X39350Y113116D01*
Y113466D01*
X39117Y113700D02*
X39000Y113816D01*
Y114049D01*
X39117Y114166D01*
X39233D01*
X39350Y114049D01*
Y113933D01*
Y114049D01*
X39467Y114166D01*
X39583D01*
X39700Y114049D01*
Y113816D01*
X39583Y113700D01*
X47917Y112867D02*
X47800Y112750D01*
Y112517D01*
X47917Y112400D01*
X48383D01*
X48500Y112517D01*
Y112750D01*
X48383Y112867D01*
Y113100D02*
X48500Y113216D01*
Y113450D01*
X48383Y113566D01*
X47917D01*
X47800Y113450D01*
Y113216D01*
X47917Y113100D01*
X48033D01*
X48150Y113216D01*
Y113566D01*
X48500Y114149D02*
X47800D01*
X48150Y113800D01*
Y114266D01*
X40717Y90867D02*
X40600Y90750D01*
Y90517D01*
X40717Y90400D01*
X41183D01*
X41300Y90517D01*
Y90750D01*
X41183Y90867D01*
Y91100D02*
X41300Y91216D01*
Y91450D01*
X41183Y91566D01*
X40717D01*
X40600Y91450D01*
Y91216D01*
X40717Y91100D01*
X40833D01*
X40950Y91216D01*
Y91566D01*
X40600Y92266D02*
Y91800D01*
X40950D01*
X40833Y92033D01*
Y92149D01*
X40950Y92266D01*
X41183D01*
X41300Y92149D01*
Y91916D01*
X41183Y91800D01*
X49417Y112767D02*
X49300Y112650D01*
Y112417D01*
X49417Y112300D01*
X49883D01*
X50000Y112417D01*
Y112650D01*
X49883Y112767D01*
Y113000D02*
X50000Y113116D01*
Y113350D01*
X49883Y113466D01*
X49417D01*
X49300Y113350D01*
Y113116D01*
X49417Y113000D01*
X49533D01*
X49650Y113116D01*
Y113466D01*
X49300Y114166D02*
X49417Y113933D01*
X49650Y113700D01*
X49883D01*
X50000Y113816D01*
Y114049D01*
X49883Y114166D01*
X49767D01*
X49650Y114049D01*
Y113700D01*
X28617Y112567D02*
X28500Y112450D01*
Y112217D01*
X28617Y112100D01*
X29083D01*
X29200Y112217D01*
Y112450D01*
X29083Y112567D01*
Y112800D02*
X29200Y112916D01*
Y113150D01*
X29083Y113266D01*
X28617D01*
X28500Y113150D01*
Y112916D01*
X28617Y112800D01*
X28733D01*
X28850Y112916D01*
Y113266D01*
X28500Y113500D02*
Y113966D01*
X28617D01*
X29083Y113500D01*
X29200D01*
X178042Y90842D02*
X177925Y90725D01*
Y90492D01*
X178042Y90375D01*
X178508D01*
X178625Y90492D01*
Y90725D01*
X178508Y90842D01*
X178625Y91075D02*
Y91308D01*
Y91191D01*
X177925D01*
X178042Y91075D01*
Y91658D02*
X177925Y91775D01*
Y92008D01*
X178042Y92124D01*
X178508D01*
X178625Y92008D01*
Y91775D01*
X178508Y91658D01*
X178042D01*
X178625Y92358D02*
Y92591D01*
Y92474D01*
X177925D01*
X178042Y92358D01*
X168667Y92283D02*
X168550Y92400D01*
X168317D01*
X168200Y92283D01*
Y91817D01*
X168317Y91700D01*
X168550D01*
X168667Y91817D01*
X168900Y91700D02*
X169133D01*
X169016D01*
Y92400D01*
X168900Y92283D01*
X169483D02*
X169600Y92400D01*
X169833D01*
X169949Y92283D01*
Y91817D01*
X169833Y91700D01*
X169600D01*
X169483Y91817D01*
Y92283D01*
X170649Y91700D02*
X170183D01*
X170649Y92167D01*
Y92283D01*
X170533Y92400D01*
X170299D01*
X170183Y92283D01*
X184113Y72590D02*
X183996Y72473D01*
Y72240D01*
X184113Y72123D01*
X184579D01*
X184696Y72240D01*
Y72473D01*
X184579Y72590D01*
X184696Y72823D02*
Y73056D01*
Y72939D01*
X183996D01*
X184113Y72823D01*
Y73406D02*
X183996Y73523D01*
Y73756D01*
X184113Y73872D01*
X184579D01*
X184696Y73756D01*
Y73523D01*
X184579Y73406D01*
X184113D01*
X184696Y74456D02*
X183996D01*
X184346Y74106D01*
Y74572D01*
X49917Y61367D02*
X49800Y61250D01*
Y61017D01*
X49917Y60900D01*
X50383D01*
X50500Y61017D01*
Y61250D01*
X50383Y61367D01*
X50500Y61600D02*
Y61833D01*
Y61716D01*
X49800D01*
X49917Y61600D01*
Y62183D02*
X49800Y62300D01*
Y62533D01*
X49917Y62649D01*
X50033D01*
X50150Y62533D01*
Y62416D01*
Y62533D01*
X50267Y62649D01*
X50383D01*
X50500Y62533D01*
Y62300D01*
X50383Y62183D01*
X49917Y62883D02*
X49800Y62999D01*
Y63233D01*
X49917Y63349D01*
X50383D01*
X50500Y63233D01*
Y62999D01*
X50383Y62883D01*
X49917D01*
X151817Y95867D02*
X151700Y95750D01*
Y95517D01*
X151817Y95400D01*
X152283D01*
X152400Y95517D01*
Y95750D01*
X152283Y95867D01*
X151817Y96100D02*
X151700Y96216D01*
Y96450D01*
X151817Y96566D01*
X151933D01*
X152050Y96450D01*
Y96333D01*
Y96450D01*
X152167Y96566D01*
X152283D01*
X152400Y96450D01*
Y96216D01*
X152283Y96100D01*
X151817Y96800D02*
X151700Y96916D01*
Y97149D01*
X151817Y97266D01*
X152283D01*
X152400Y97149D01*
Y96916D01*
X152283Y96800D01*
X151817D01*
X114750Y111746D02*
Y111047D01*
X115100D01*
X115217Y111163D01*
Y111630D01*
X115100Y111746D01*
X114750D01*
X115450Y111047D02*
Y111513D01*
X115683Y111746D01*
X115916Y111513D01*
Y111047D01*
Y111396D01*
X115450D01*
X116150Y111163D02*
X116266Y111047D01*
X116499D01*
X116616Y111163D01*
Y111630D01*
X116499Y111746D01*
X116266D01*
X116150Y111630D01*
Y111513D01*
X116266Y111396D01*
X116616D01*
X162200Y80800D02*
Y80100D01*
X162550D01*
X162667Y80217D01*
Y80683D01*
X162550Y80800D01*
X162200D01*
X162900Y80100D02*
Y80567D01*
X163133Y80800D01*
X163366Y80567D01*
Y80100D01*
Y80450D01*
X162900D01*
X163600Y80100D02*
X163833D01*
X163716D01*
Y80800D01*
X163600Y80683D01*
X164183D02*
X164299Y80800D01*
X164533D01*
X164649Y80683D01*
Y80217D01*
X164533Y80100D01*
X164299D01*
X164183Y80217D01*
Y80683D01*
X63900Y125200D02*
Y124500D01*
X64250D01*
X64367Y124617D01*
Y125083D01*
X64250Y125200D01*
X63900D01*
X64600D02*
Y124500D01*
X64950D01*
X65066Y124617D01*
Y125083D01*
X64950Y125200D01*
X64600D01*
X65300Y124500D02*
X65533D01*
X65416D01*
Y125200D01*
X65300Y125083D01*
X91100Y135100D02*
Y134400D01*
X91450D01*
X91567Y134517D01*
Y134983D01*
X91450Y135100D01*
X91100D01*
X91800D02*
Y134400D01*
X92150D01*
X92266Y134517D01*
Y134983D01*
X92150Y135100D01*
X91800D01*
X92966Y134400D02*
X92500D01*
X92966Y134867D01*
Y134983D01*
X92849Y135100D01*
X92616D01*
X92500Y134983D01*
X99575Y99150D02*
Y98450D01*
X99925D01*
X100042Y98567D01*
Y99033D01*
X99925Y99150D01*
X99575D01*
X100275D02*
Y98450D01*
X100625D01*
X100741Y98567D01*
Y99033D01*
X100625Y99150D01*
X100275D01*
X101324Y98450D02*
Y99150D01*
X100975Y98800D01*
X101441D01*
X50600Y103500D02*
Y102800D01*
X50950D01*
X51067Y102917D01*
Y103383D01*
X50950Y103500D01*
X50600D01*
X51300D02*
Y102800D01*
X51650D01*
X51766Y102917D01*
Y103383D01*
X51650Y103500D01*
X51300D01*
X52466D02*
X52000D01*
Y103150D01*
X52233Y103267D01*
X52349D01*
X52466Y103150D01*
Y102917D01*
X52349Y102800D01*
X52116D01*
X52000Y102917D01*
X178200Y68175D02*
X178900D01*
Y68525D01*
X178783Y68642D01*
X178317D01*
X178200Y68525D01*
Y68175D01*
Y68875D02*
X178900D01*
Y69225D01*
X178783Y69341D01*
X178317D01*
X178200Y69225D01*
Y68875D01*
X178783Y69575D02*
X178900Y69691D01*
Y69924D01*
X178783Y70041D01*
X178317D01*
X178200Y69924D01*
Y69691D01*
X178317Y69575D01*
X178433D01*
X178550Y69691D01*
Y70041D01*
X174100Y97200D02*
X174800D01*
Y97550D01*
X174683Y97667D01*
X174217D01*
X174100Y97550D01*
Y97200D01*
Y97900D02*
X174800D01*
Y98250D01*
X174683Y98366D01*
X174217D01*
X174100Y98250D01*
Y97900D01*
Y98600D02*
Y99066D01*
X174217D01*
X174683Y98600D01*
X174800D01*
X167300Y92600D02*
X168000D01*
Y92950D01*
X167883Y93067D01*
X167417D01*
X167300Y92950D01*
Y92600D01*
Y93300D02*
X168000D01*
Y93650D01*
X167883Y93766D01*
X167417D01*
X167300Y93650D01*
Y93300D01*
X167417Y94000D02*
X167300Y94116D01*
Y94349D01*
X167417Y94466D01*
X167533D01*
X167650Y94349D01*
X167767Y94466D01*
X167883D01*
X168000Y94349D01*
Y94116D01*
X167883Y94000D01*
X167767D01*
X167650Y94116D01*
X167533Y94000D01*
X167417D01*
X167650Y94116D02*
Y94349D01*
X123967Y133483D02*
X123850Y133600D01*
X123617D01*
X123500Y133483D01*
Y133017D01*
X123617Y132900D01*
X123850D01*
X123967Y133017D01*
Y133250D01*
X123733D01*
X124200Y133600D02*
Y132900D01*
X124550D01*
X124666Y133017D01*
Y133133D01*
X124550Y133250D01*
X124200D01*
X124550D01*
X124666Y133367D01*
Y133483D01*
X124550Y133600D01*
X124200D01*
X124900Y132900D02*
X125133D01*
X125016D01*
Y133600D01*
X124900Y133483D01*
X158367Y92883D02*
X158250Y93000D01*
X158017D01*
X157900Y92883D01*
Y92417D01*
X158017Y92300D01*
X158250D01*
X158367Y92417D01*
X158600Y92883D02*
X158716Y93000D01*
X158950D01*
X159066Y92883D01*
Y92767D01*
X158950Y92650D01*
X158833D01*
X158950D01*
X159066Y92533D01*
Y92417D01*
X158950Y92300D01*
X158716D01*
X158600Y92417D01*
X159766Y93000D02*
X159533Y92883D01*
X159300Y92650D01*
Y92417D01*
X159416Y92300D01*
X159649D01*
X159766Y92417D01*
Y92533D01*
X159649Y92650D01*
X159300D01*
X50017Y68967D02*
X49900Y68850D01*
Y68617D01*
X50017Y68500D01*
X50483D01*
X50600Y68617D01*
Y68850D01*
X50483Y68967D01*
X50600Y69200D02*
Y69433D01*
Y69316D01*
X49900D01*
X50017Y69200D01*
Y69783D02*
X49900Y69900D01*
Y70133D01*
X50017Y70249D01*
X50133D01*
X50250Y70133D01*
Y70016D01*
Y70133D01*
X50367Y70249D01*
X50483D01*
X50600Y70133D01*
Y69900D01*
X50483Y69783D01*
X50600Y70949D02*
Y70483D01*
X50133Y70949D01*
X50017D01*
X49900Y70833D01*
Y70599D01*
X50017Y70483D01*
X126067Y114783D02*
X125950Y114900D01*
X125717D01*
X125600Y114783D01*
Y114317D01*
X125717Y114200D01*
X125950D01*
X126067Y114317D01*
X126766Y114200D02*
X126300D01*
X126766Y114667D01*
Y114783D01*
X126650Y114900D01*
X126416D01*
X126300Y114783D01*
X127349Y114200D02*
Y114900D01*
X127000Y114550D01*
X127466D01*
X129567Y123183D02*
X129450Y123300D01*
X129217D01*
X129100Y123183D01*
Y122717D01*
X129217Y122600D01*
X129450D01*
X129567Y122717D01*
X130266Y122600D02*
X129800D01*
X130266Y123067D01*
Y123183D01*
X130150Y123300D01*
X129916D01*
X129800Y123183D01*
X144217Y108067D02*
X144100Y107950D01*
Y107717D01*
X144217Y107600D01*
X144683D01*
X144800Y107717D01*
Y107950D01*
X144683Y108067D01*
X144800Y108300D02*
Y108533D01*
Y108416D01*
X144100D01*
X144217Y108300D01*
X144100Y109349D02*
X144217Y109116D01*
X144450Y108883D01*
X144683D01*
X144800Y109000D01*
Y109233D01*
X144683Y109349D01*
X144567D01*
X144450Y109233D01*
Y108883D01*
X153867Y85483D02*
X153750Y85600D01*
X153517D01*
X153400Y85483D01*
Y85017D01*
X153517Y84900D01*
X153750D01*
X153867Y85017D01*
X154450Y84900D02*
Y85600D01*
X154100Y85250D01*
X154566D01*
X154800Y85483D02*
X154916Y85600D01*
X155149D01*
X155266Y85483D01*
Y85017D01*
X155149Y84900D01*
X154916D01*
X154800Y85017D01*
Y85483D01*
X124300Y83750D02*
X123600D01*
Y84100D01*
X123717Y84217D01*
X123950D01*
X124067Y84100D01*
Y83750D01*
Y83983D02*
X124300Y84217D01*
Y84916D02*
Y84450D01*
X123833Y84916D01*
X123717D01*
X123600Y84800D01*
Y84566D01*
X123717Y84450D01*
X124183Y85150D02*
X124300Y85266D01*
Y85499D01*
X124183Y85616D01*
X123717D01*
X123600Y85499D01*
Y85266D01*
X123717Y85150D01*
X123833D01*
X123950Y85266D01*
Y85616D01*
X123225Y84500D02*
X122525D01*
Y84850D01*
X122642Y84967D01*
X122875D01*
X122992Y84850D01*
Y84500D01*
Y84733D02*
X123225Y84967D01*
X122642Y85200D02*
X122525Y85316D01*
Y85550D01*
X122642Y85666D01*
X122758D01*
X122875Y85550D01*
Y85433D01*
Y85550D01*
X122992Y85666D01*
X123108D01*
X123225Y85550D01*
Y85316D01*
X123108Y85200D01*
X122642Y85900D02*
X122525Y86016D01*
Y86249D01*
X122642Y86366D01*
X123108D01*
X123225Y86249D01*
Y86016D01*
X123108Y85900D01*
X122642D01*
X85700Y132125D02*
Y132825D01*
X86050D01*
X86167Y132708D01*
Y132475D01*
X86050Y132358D01*
X85700D01*
X85933D02*
X86167Y132125D01*
X86400Y132708D02*
X86516Y132825D01*
X86750D01*
X86866Y132708D01*
Y132592D01*
X86750Y132475D01*
X86633D01*
X86750D01*
X86866Y132358D01*
Y132242D01*
X86750Y132125D01*
X86516D01*
X86400Y132242D01*
X87566Y132125D02*
X87100D01*
X87566Y132592D01*
Y132708D01*
X87449Y132825D01*
X87216D01*
X87100Y132708D01*
X73100Y128600D02*
X72400D01*
Y128950D01*
X72517Y129067D01*
X72750D01*
X72867Y128950D01*
Y128600D01*
Y128833D02*
X73100Y129067D01*
X72517Y129300D02*
X72400Y129416D01*
Y129650D01*
X72517Y129766D01*
X72633D01*
X72750Y129650D01*
Y129533D01*
Y129650D01*
X72867Y129766D01*
X72983D01*
X73100Y129650D01*
Y129416D01*
X72983Y129300D01*
Y130000D02*
X73100Y130116D01*
Y130349D01*
X72983Y130466D01*
X72517D01*
X72400Y130349D01*
Y130116D01*
X72517Y130000D01*
X72633D01*
X72750Y130116D01*
Y130466D01*
X60700Y105700D02*
Y106400D01*
X61050D01*
X61167Y106283D01*
Y106050D01*
X61050Y105933D01*
X60700D01*
X60933D02*
X61167Y105700D01*
X61750D02*
Y106400D01*
X61400Y106050D01*
X61866D01*
X62100Y106283D02*
X62216Y106400D01*
X62449D01*
X62566Y106283D01*
Y105817D01*
X62449Y105700D01*
X62216D01*
X62100Y105817D01*
Y106283D01*
X48775Y132025D02*
X49242Y131325D01*
Y132025D02*
X48775Y131325D01*
X49941Y131908D02*
X49825Y132025D01*
X49591D01*
X49475Y131908D01*
Y131792D01*
X49591Y131675D01*
X49825D01*
X49941Y131558D01*
Y131442D01*
X49825Y131325D01*
X49591D01*
X49475Y131442D01*
X50175Y131908D02*
X50291Y132025D01*
X50524D01*
X50641Y131908D01*
Y131792D01*
X50524Y131675D01*
X50408D01*
X50524D01*
X50641Y131558D01*
Y131442D01*
X50524Y131325D01*
X50291D01*
X50175Y131442D01*
X174500Y91600D02*
Y92300D01*
X174850D01*
X174967Y92183D01*
Y91950D01*
X174850Y91833D01*
X174500D01*
X174733D02*
X174967Y91600D01*
X175550D02*
Y92300D01*
X175200Y91950D01*
X175666D01*
X176366Y92300D02*
X176133Y92183D01*
X175900Y91950D01*
Y91717D01*
X176016Y91600D01*
X176249D01*
X176366Y91717D01*
Y91833D01*
X176249Y91950D01*
X175900D01*
X167500Y98900D02*
X166800D01*
Y99250D01*
X166917Y99367D01*
X167150D01*
X167267Y99250D01*
Y98900D01*
Y99133D02*
X167500Y99367D01*
Y99950D02*
X166800D01*
X167150Y99600D01*
Y100066D01*
X166800Y100300D02*
Y100766D01*
X166917D01*
X167383Y100300D01*
X167500D01*
X50017Y76467D02*
X49900Y76350D01*
Y76117D01*
X50017Y76000D01*
X50483D01*
X50600Y76117D01*
Y76350D01*
X50483Y76467D01*
X50600Y76700D02*
Y76933D01*
Y76816D01*
X49900D01*
X50017Y76700D01*
Y77283D02*
X49900Y77400D01*
Y77633D01*
X50017Y77749D01*
X50133D01*
X50250Y77633D01*
Y77516D01*
Y77633D01*
X50367Y77749D01*
X50483D01*
X50600Y77633D01*
Y77400D01*
X50483Y77283D01*
X50600Y77983D02*
Y78216D01*
Y78099D01*
X49900D01*
X50017Y77983D01*
X171700Y109800D02*
Y110500D01*
X172050D01*
X172167Y110383D01*
Y110150D01*
X172050Y110033D01*
X171700D01*
X171933D02*
X172167Y109800D01*
X172866Y110500D02*
X172400D01*
Y110150D01*
X172633Y110267D01*
X172750D01*
X172866Y110150D01*
Y109917D01*
X172750Y109800D01*
X172516D01*
X172400Y109917D01*
X173100Y110383D02*
X173216Y110500D01*
X173449D01*
X173566Y110383D01*
Y109917D01*
X173449Y109800D01*
X173216D01*
X173100Y109917D01*
Y110383D01*
X168500Y106100D02*
Y106800D01*
X168850D01*
X168967Y106683D01*
Y106450D01*
X168850Y106333D01*
X168500D01*
X168733D02*
X168967Y106100D01*
X169550D02*
Y106800D01*
X169200Y106450D01*
X169666D01*
X169900Y106217D02*
X170016Y106100D01*
X170249D01*
X170366Y106217D01*
Y106683D01*
X170249Y106800D01*
X170016D01*
X169900Y106683D01*
Y106567D01*
X170016Y106450D01*
X170366D01*
X132017Y115467D02*
X131900Y115350D01*
Y115117D01*
X132017Y115000D01*
X132483D01*
X132600Y115117D01*
Y115350D01*
X132483Y115467D01*
X132600Y115700D02*
Y115933D01*
Y115816D01*
X131900D01*
X132017Y115700D01*
X131900Y116749D02*
Y116283D01*
X132250D01*
X132133Y116516D01*
Y116633D01*
X132250Y116749D01*
X132483D01*
X132600Y116633D01*
Y116400D01*
X132483Y116283D01*
X185100Y67700D02*
X185800D01*
Y67350D01*
X185683Y67233D01*
X185450D01*
X185333Y67350D01*
Y67700D01*
Y67467D02*
X185100Y67233D01*
X185800Y66534D02*
Y67000D01*
X185450D01*
X185567Y66767D01*
Y66650D01*
X185450Y66534D01*
X185217D01*
X185100Y66650D01*
Y66884D01*
X185217Y67000D01*
X185100Y66300D02*
Y66067D01*
Y66184D01*
X185800D01*
X185683Y66300D01*
X182400Y69000D02*
Y69700D01*
X182750D01*
X182867Y69583D01*
Y69350D01*
X182750Y69233D01*
X182400D01*
X182633D02*
X182867Y69000D01*
X183566Y69700D02*
X183100D01*
Y69350D01*
X183333Y69467D01*
X183450D01*
X183566Y69350D01*
Y69117D01*
X183450Y69000D01*
X183216D01*
X183100Y69117D01*
X184266Y69000D02*
X183800D01*
X184266Y69467D01*
Y69583D01*
X184149Y69700D01*
X183916D01*
X183800Y69583D01*
X137617Y117167D02*
X137500Y117050D01*
Y116817D01*
X137617Y116700D01*
X138083D01*
X138200Y116817D01*
Y117050D01*
X138083Y117167D01*
X138200Y117866D02*
Y117400D01*
X137733Y117866D01*
X137617D01*
X137500Y117750D01*
Y117516D01*
X137617Y117400D01*
X137500Y118566D02*
Y118100D01*
X137850D01*
X137733Y118333D01*
Y118449D01*
X137850Y118566D01*
X138083D01*
X138200Y118449D01*
Y118216D01*
X138083Y118100D01*
X125967Y113083D02*
X125850Y113200D01*
X125617D01*
X125500Y113083D01*
Y112617D01*
X125617Y112500D01*
X125850D01*
X125967Y112617D01*
X126666Y112500D02*
X126200D01*
X126666Y112967D01*
Y113083D01*
X126550Y113200D01*
X126316D01*
X126200Y113083D01*
X127366Y113200D02*
X127133Y113083D01*
X126900Y112850D01*
Y112617D01*
X127016Y112500D01*
X127249D01*
X127366Y112617D01*
Y112733D01*
X127249Y112850D01*
X126900D01*
X130017Y109117D02*
X129900Y109000D01*
Y108767D01*
X130017Y108650D01*
X130483D01*
X130600Y108767D01*
Y109000D01*
X130483Y109117D01*
X130600Y109816D02*
Y109350D01*
X130133Y109816D01*
X130017D01*
X129900Y109700D01*
Y109466D01*
X130017Y109350D01*
X129900Y110050D02*
Y110516D01*
X130017D01*
X130483Y110050D01*
X130600D01*
X163300Y121400D02*
X163767Y120700D01*
Y121400D02*
X163300Y120700D01*
X164000D02*
Y121400D01*
X164350D01*
X164466Y121283D01*
Y121050D01*
X164350Y120933D01*
X164000D01*
X164700Y121283D02*
X164816Y121400D01*
X165049D01*
X165166Y121283D01*
Y121167D01*
X165049Y121050D01*
X164933D01*
X165049D01*
X165166Y120933D01*
Y120817D01*
X165049Y120700D01*
X164816D01*
X164700Y120817D01*
X162200Y110000D02*
X162900Y110467D01*
X162200D02*
X162900Y110000D01*
Y110700D02*
X162200D01*
Y111050D01*
X162317Y111166D01*
X162550D01*
X162667Y111050D01*
Y110700D01*
X162900Y111749D02*
X162200D01*
X162550Y111400D01*
Y111866D01*
X162175Y107325D02*
X162875Y107792D01*
X162175D02*
X162875Y107325D01*
Y108025D02*
X162175D01*
Y108375D01*
X162292Y108491D01*
X162525D01*
X162642Y108375D01*
Y108025D01*
X162175Y109191D02*
Y108725D01*
X162525D01*
X162408Y108958D01*
Y109074D01*
X162525Y109191D01*
X162758D01*
X162875Y109074D01*
Y108841D01*
X162758Y108725D01*
X87300Y58800D02*
X87767Y58100D01*
Y58800D02*
X87300Y58100D01*
X88466Y58683D02*
X88350Y58800D01*
X88116D01*
X88000Y58683D01*
Y58567D01*
X88116Y58450D01*
X88350D01*
X88466Y58333D01*
Y58217D01*
X88350Y58100D01*
X88116D01*
X88000Y58217D01*
X89166Y58100D02*
X88700D01*
X89166Y58567D01*
Y58683D01*
X89049Y58800D01*
X88816D01*
X88700Y58683D01*
X136913Y121794D02*
X136796Y121677D01*
Y121444D01*
X136913Y121327D01*
X137379D01*
X137496Y121444D01*
Y121677D01*
X137379Y121794D01*
X137496Y122027D02*
Y122260D01*
Y122143D01*
X136796D01*
X136913Y122027D01*
Y122610D02*
X136796Y122727D01*
Y122960D01*
X136913Y123076D01*
X137029D01*
X137146Y122960D01*
Y122843D01*
Y122960D01*
X137263Y123076D01*
X137379D01*
X137496Y122960D01*
Y122727D01*
X137379Y122610D01*
X176300Y82500D02*
Y83200D01*
X176650D01*
X176767Y83083D01*
Y82850D01*
X176650Y82733D01*
X176300D01*
X176533D02*
X176767Y82500D01*
X177466Y83200D02*
X177000D01*
Y82850D01*
X177233Y82967D01*
X177350D01*
X177466Y82850D01*
Y82617D01*
X177350Y82500D01*
X177116D01*
X177000Y82617D01*
X177700D02*
X177816Y82500D01*
X178049D01*
X178166Y82617D01*
Y83083D01*
X178049Y83200D01*
X177816D01*
X177700Y83083D01*
Y82967D01*
X177816Y82850D01*
X178166D01*
X57867Y118883D02*
X57750Y119000D01*
X57517D01*
X57400Y118883D01*
Y118417D01*
X57517Y118300D01*
X57750D01*
X57867Y118417D01*
X58100Y118883D02*
X58216Y119000D01*
X58450D01*
X58566Y118883D01*
Y118767D01*
X58450Y118650D01*
X58566Y118533D01*
Y118417D01*
X58450Y118300D01*
X58216D01*
X58100Y118417D01*
Y118533D01*
X58216Y118650D01*
X58100Y118767D01*
Y118883D01*
X58216Y118650D02*
X58450D01*
X59266Y118300D02*
X58800D01*
X59266Y118767D01*
Y118883D01*
X59149Y119000D01*
X58916D01*
X58800Y118883D01*
X119875Y83450D02*
X119175D01*
Y83800D01*
X119292Y83917D01*
X119525D01*
X119642Y83800D01*
Y83450D01*
Y83683D02*
X119875Y83917D01*
Y84616D02*
Y84150D01*
X119408Y84616D01*
X119292D01*
X119175Y84500D01*
Y84266D01*
X119292Y84150D01*
X119175Y85316D02*
X119292Y85083D01*
X119525Y84850D01*
X119758D01*
X119875Y84966D01*
Y85199D01*
X119758Y85316D01*
X119642D01*
X119525Y85199D01*
Y84850D01*
X139067Y110183D02*
X138950Y110300D01*
X138717D01*
X138600Y110183D01*
Y109717D01*
X138717Y109600D01*
X138950D01*
X139067Y109717D01*
X139300Y110183D02*
X139416Y110300D01*
X139650D01*
X139766Y110183D01*
Y110067D01*
X139650Y109950D01*
X139533D01*
X139650D01*
X139766Y109833D01*
Y109717D01*
X139650Y109600D01*
X139416D01*
X139300Y109717D01*
X140000Y109600D02*
X140233D01*
X140116D01*
Y110300D01*
X140000Y110183D01*
X141567Y125783D02*
X141450Y125900D01*
X141217D01*
X141100Y125783D01*
Y125317D01*
X141217Y125200D01*
X141450D01*
X141567Y125317D01*
X141800Y125783D02*
X141916Y125900D01*
X142150D01*
X142266Y125783D01*
Y125667D01*
X142150Y125550D01*
X142033D01*
X142150D01*
X142266Y125433D01*
Y125317D01*
X142150Y125200D01*
X141916D01*
X141800Y125317D01*
X149667Y108283D02*
X149550Y108400D01*
X149317D01*
X149200Y108283D01*
Y107817D01*
X149317Y107700D01*
X149550D01*
X149667Y107817D01*
X150250Y107700D02*
Y108400D01*
X149900Y108050D01*
X150366D01*
X150600Y107700D02*
X150833D01*
X150716D01*
Y108400D01*
X150600Y108283D01*
X138825Y115475D02*
X139525D01*
Y115825D01*
X139408Y115942D01*
X138942D01*
X138825Y115825D01*
Y115475D01*
X139525Y116175D02*
X139058D01*
X138825Y116408D01*
X139058Y116641D01*
X139525D01*
X139175D01*
Y116175D01*
X139525Y116875D02*
Y117108D01*
Y116991D01*
X138825D01*
X138942Y116875D01*
X149900Y121800D02*
Y121100D01*
X150367D01*
X151066D02*
X150600D01*
X151066Y121567D01*
Y121683D01*
X150950Y121800D01*
X150716D01*
X150600Y121683D01*
X151300Y92400D02*
Y91700D01*
X151767D01*
X152000Y92400D02*
X152466D01*
Y92283D01*
X152000Y91817D01*
Y91700D01*
X65500Y73100D02*
Y72400D01*
X65967D01*
X66200D02*
X66433D01*
X66316D01*
Y73100D01*
X66200Y72983D01*
X66783D02*
X66900Y73100D01*
X67133D01*
X67249Y72983D01*
Y72517D01*
X67133Y72400D01*
X66900D01*
X66783Y72517D01*
Y72983D01*
X127100Y85200D02*
Y85900D01*
X127450D01*
X127567Y85783D01*
Y85550D01*
X127450Y85433D01*
X127100D01*
X127333D02*
X127567Y85200D01*
X127800D02*
X128033D01*
X127916D01*
Y85900D01*
X127800Y85783D01*
X128383D02*
X128500Y85900D01*
X128733D01*
X128849Y85783D01*
Y85667D01*
X128733Y85550D01*
X128849Y85433D01*
Y85317D01*
X128733Y85200D01*
X128500D01*
X128383Y85317D01*
Y85433D01*
X128500Y85550D01*
X128383Y85667D01*
Y85783D01*
X128500Y85550D02*
X128733D01*
X77867Y58483D02*
X77750Y58600D01*
X77517D01*
X77400Y58483D01*
Y58017D01*
X77517Y57900D01*
X77750D01*
X77867Y58017D01*
X78100Y57900D02*
X78333D01*
X78216D01*
Y58600D01*
X78100Y58483D01*
X79149Y57900D02*
X78683D01*
X79149Y58367D01*
Y58483D01*
X79033Y58600D01*
X78800D01*
X78683Y58483D01*
X79849Y57900D02*
X79383D01*
X79849Y58367D01*
Y58483D01*
X79733Y58600D01*
X79499D01*
X79383Y58483D01*
X77393Y72167D02*
X77228D01*
X77063Y72002D01*
Y71837D01*
X77393Y71507D01*
X77557D01*
X77722Y71672D01*
Y71837D01*
X77970Y71920D02*
X78135Y72085D01*
X78052Y72002D01*
X77557Y72497D01*
Y72332D01*
X78712Y72662D02*
X78382Y72332D01*
Y72992D01*
X78300Y73074D01*
X78135D01*
X77970Y72909D01*
Y72745D01*
X78465Y73239D02*
Y73404D01*
X78630Y73569D01*
X78795D01*
X78877Y73487D01*
Y73322D01*
X78795Y73239D01*
X78877Y73322D01*
X79042D01*
X79124Y73239D01*
Y73074D01*
X78959Y72909D01*
X78795D01*
X98117Y66467D02*
X98000Y66350D01*
Y66117D01*
X98117Y66000D01*
X98583D01*
X98700Y66117D01*
Y66350D01*
X98583Y66467D01*
X98000Y67166D02*
X98117Y66933D01*
X98350Y66700D01*
X98583D01*
X98700Y66816D01*
Y67050D01*
X98583Y67166D01*
X98467D01*
X98350Y67050D01*
Y66700D01*
X98117Y67400D02*
X98000Y67516D01*
Y67749D01*
X98117Y67866D01*
X98233D01*
X98350Y67749D01*
Y67633D01*
Y67749D01*
X98467Y67866D01*
X98583D01*
X98700Y67749D01*
Y67516D01*
X98583Y67400D01*
X154567Y93383D02*
X154450Y93500D01*
X154217D01*
X154100Y93383D01*
Y92917D01*
X154217Y92800D01*
X154450D01*
X154567Y92917D01*
X154800Y93383D02*
X154916Y93500D01*
X155150D01*
X155266Y93383D01*
Y93267D01*
X155150Y93150D01*
X155033D01*
X155150D01*
X155266Y93033D01*
Y92917D01*
X155150Y92800D01*
X154916D01*
X154800Y92917D01*
X155500Y93383D02*
X155616Y93500D01*
X155849D01*
X155966Y93383D01*
Y93267D01*
X155849Y93150D01*
X155733D01*
X155849D01*
X155966Y93033D01*
Y92917D01*
X155849Y92800D01*
X155616D01*
X155500Y92917D01*
X158775Y120950D02*
Y121650D01*
X159125D01*
X159242Y121533D01*
Y121300D01*
X159125Y121183D01*
X158775D01*
X159008D02*
X159242Y120950D01*
X159941Y121650D02*
X159475D01*
Y121300D01*
X159708Y121417D01*
X159825D01*
X159941Y121300D01*
Y121067D01*
X159825Y120950D01*
X159591D01*
X159475Y121067D01*
X160175Y121650D02*
X160641D01*
Y121533D01*
X160175Y121067D01*
Y120950D01*
X175000Y75800D02*
X174300D01*
Y76150D01*
X174417Y76267D01*
X174650D01*
X174767Y76150D01*
Y75800D01*
Y76033D02*
X175000Y76267D01*
X174300Y76966D02*
X174417Y76733D01*
X174650Y76500D01*
X174883D01*
X175000Y76616D01*
Y76850D01*
X174883Y76966D01*
X174767D01*
X174650Y76850D01*
Y76500D01*
X174417Y77200D02*
X174300Y77316D01*
Y77549D01*
X174417Y77666D01*
X174883D01*
X175000Y77549D01*
Y77316D01*
X174883Y77200D01*
X174417D01*
X88000Y128475D02*
Y129175D01*
X88350D01*
X88467Y129058D01*
Y128825D01*
X88350Y128708D01*
X88000D01*
X88233D02*
X88467Y128475D01*
X88700Y129058D02*
X88816Y129175D01*
X89050D01*
X89166Y129058D01*
Y128942D01*
X89050Y128825D01*
X88933D01*
X89050D01*
X89166Y128708D01*
Y128592D01*
X89050Y128475D01*
X88816D01*
X88700Y128592D01*
X89400Y128475D02*
X89633D01*
X89516D01*
Y129175D01*
X89400Y129058D01*
X59825Y132400D02*
X59125D01*
Y132750D01*
X59242Y132867D01*
X59475D01*
X59592Y132750D01*
Y132400D01*
Y132633D02*
X59825Y132867D01*
Y133450D02*
X59125D01*
X59475Y133100D01*
Y133566D01*
X59825Y134266D02*
Y133800D01*
X59358Y134266D01*
X59242D01*
X59125Y134149D01*
Y133916D01*
X59242Y133800D01*
X58300Y132400D02*
X57600D01*
Y132750D01*
X57717Y132867D01*
X57950D01*
X58067Y132750D01*
Y132400D01*
Y132633D02*
X58300Y132867D01*
Y133450D02*
X57600D01*
X57950Y133100D01*
Y133566D01*
X57717Y133800D02*
X57600Y133916D01*
Y134149D01*
X57717Y134266D01*
X57833D01*
X57950Y134149D01*
Y134033D01*
Y134149D01*
X58067Y134266D01*
X58183D01*
X58300Y134149D01*
Y133916D01*
X58183Y133800D01*
X56900Y132400D02*
X56200D01*
Y132750D01*
X56317Y132867D01*
X56550D01*
X56667Y132750D01*
Y132400D01*
Y132633D02*
X56900Y132867D01*
Y133450D02*
X56200D01*
X56550Y133100D01*
Y133566D01*
X56900Y134149D02*
X56200D01*
X56550Y133800D01*
Y134266D01*
X55400Y132350D02*
X54700D01*
Y132700D01*
X54817Y132817D01*
X55050D01*
X55167Y132700D01*
Y132350D01*
Y132583D02*
X55400Y132817D01*
Y133400D02*
X54700D01*
X55050Y133050D01*
Y133516D01*
X54700Y134216D02*
Y133750D01*
X55050D01*
X54933Y133983D01*
Y134099D01*
X55050Y134216D01*
X55283D01*
X55400Y134099D01*
Y133866D01*
X55283Y133750D01*
X61250Y132400D02*
X60550D01*
Y132750D01*
X60667Y132867D01*
X60900D01*
X61017Y132750D01*
Y132400D01*
Y132633D02*
X61250Y132867D01*
Y133450D02*
X60550D01*
X60900Y133100D01*
Y133566D01*
X61250Y133800D02*
Y134033D01*
Y133916D01*
X60550D01*
X60667Y133800D01*
X110100Y99700D02*
Y100400D01*
X110450D01*
X110567Y100283D01*
Y100050D01*
X110450Y99933D01*
X110100D01*
X110333D02*
X110567Y99700D01*
X110800Y100283D02*
X110916Y100400D01*
X111150D01*
X111266Y100283D01*
Y100167D01*
X111150Y100050D01*
X111033D01*
X111150D01*
X111266Y99933D01*
Y99817D01*
X111150Y99700D01*
X110916D01*
X110800Y99817D01*
X111966Y100400D02*
X111500D01*
Y100050D01*
X111733Y100167D01*
X111849D01*
X111966Y100050D01*
Y99817D01*
X111849Y99700D01*
X111616D01*
X111500Y99817D01*
X109059Y104039D02*
X108359D01*
Y104389D01*
X108476Y104506D01*
X108709D01*
X108826Y104389D01*
Y104039D01*
Y104273D02*
X109059Y104506D01*
X108476Y104739D02*
X108359Y104856D01*
Y105089D01*
X108476Y105206D01*
X108593D01*
X108709Y105089D01*
Y104972D01*
Y105089D01*
X108826Y105206D01*
X108942D01*
X109059Y105089D01*
Y104856D01*
X108942Y104739D01*
X108359Y105905D02*
X108476Y105672D01*
X108709Y105439D01*
X108942D01*
X109059Y105556D01*
Y105789D01*
X108942Y105905D01*
X108826D01*
X108709Y105789D01*
Y105439D01*
X81501Y131175D02*
X81996Y131670D01*
X82243Y131422D01*
Y131257D01*
X82078Y131092D01*
X81913D01*
X81666Y131340D01*
X81831Y131175D02*
Y130845D01*
X82408Y131092D02*
X82573D01*
X82738Y130927D01*
Y130763D01*
X82655Y130680D01*
X82490D01*
X82408Y130763D01*
X82490Y130680D01*
Y130515D01*
X82408Y130433D01*
X82243D01*
X82078Y130598D01*
Y130763D01*
X82903Y130598D02*
X83068D01*
X83233Y130433D01*
Y130268D01*
X83150Y130185D01*
X82985D01*
Y130020D01*
X82903Y129938D01*
X82738D01*
X82573Y130103D01*
Y130268D01*
X82655Y130350D01*
X82820D01*
Y130515D01*
X82903Y130598D01*
X82820Y130350D02*
X82985Y130185D01*
X184092Y75267D02*
X183975Y75150D01*
Y74917D01*
X184092Y74800D01*
X184558D01*
X184675Y74917D01*
Y75150D01*
X184558Y75267D01*
X184675Y75500D02*
Y75733D01*
Y75616D01*
X183975D01*
X184092Y75500D01*
X184675Y76083D02*
Y76316D01*
Y76200D01*
X183975D01*
X184092Y76083D01*
X184675Y77133D02*
Y76666D01*
X184208Y77133D01*
X184092D01*
X183975Y77016D01*
Y76783D01*
X184092Y76666D01*
X35300Y131567D02*
Y131100D01*
Y131333D01*
X35417Y131450D01*
X35533Y131567D01*
X35650D01*
X36350Y131100D02*
X36116D01*
X36000Y131217D01*
Y131450D01*
X36116Y131567D01*
X36350D01*
X36466Y131450D01*
Y131333D01*
X36000D01*
X36700Y130867D02*
Y131567D01*
X37049D01*
X37166Y131450D01*
Y131217D01*
X37049Y131100D01*
X36700D01*
X37399D02*
X37633D01*
X37516D01*
Y131800D01*
X37399Y131683D01*
X188400Y57267D02*
Y56800D01*
Y57033D01*
X188517Y57150D01*
X188633Y57267D01*
X188750D01*
X189450Y56800D02*
X189216D01*
X189100Y56917D01*
Y57150D01*
X189216Y57267D01*
X189450D01*
X189566Y57150D01*
Y57033D01*
X189100D01*
X189800Y56567D02*
Y57267D01*
X190149D01*
X190266Y57150D01*
Y56917D01*
X190149Y56800D01*
X189800D01*
X190966D02*
X190499D01*
X190966Y57267D01*
Y57383D01*
X190849Y57500D01*
X190616D01*
X190499Y57383D01*
X198400Y54400D02*
G03*
X200400Y56400I0J2000D01*
G01*
X25400Y56400D02*
G03*
X27400Y54400I2000J0D01*
G01*
X27400Y135400D02*
G03*
X25400Y133400I0J-2000D01*
G01*
X200400Y133400D02*
G03*
X198400Y135400I-2000J0D01*
G01*
X27400Y54400D02*
X198400Y54400D01*
X25400Y133400D02*
X25400Y56400D01*
X27400Y135400D02*
X198400D01*
X200400Y56400D02*
Y133400D01*
D125*
X152600Y81000D02*
G03*
X152600Y81000I-3900J0D01*
G01*
X138500Y95300D02*
G03*
X138500Y95300I-5000J0D01*
G01*
X138700Y129800D02*
G03*
X138700Y129800I-3900J0D01*
G01*
X155900Y116200D02*
G03*
X155900Y116200I-3900J0D01*
G01*
X166200Y98400D02*
G03*
X166200Y98400I-3900J0D01*
G01*
X174775Y65275D02*
Y66425D01*
X171575Y65275D02*
X174775D01*
X171575D02*
Y66425D01*
X174775D01*
X191475Y106700D02*
Y109900D01*
X190325D02*
X191475D01*
X190325Y106700D02*
Y109900D01*
Y106700D02*
X191475D01*
X184300Y110475D02*
X187500D01*
X184300Y109325D02*
Y110475D01*
Y109325D02*
X187500D01*
Y110475D01*
X146300Y120100D02*
Y120500D01*
X145300Y120100D02*
Y120500D01*
X42300Y80500D02*
Y85000D01*
X46200D01*
Y80500D02*
Y85000D01*
X42300Y80500D02*
X46200D01*
X194200Y107300D02*
X198700D01*
X194200D02*
Y111200D01*
X198700D01*
Y107300D02*
Y111200D01*
X42200Y58000D02*
Y62500D01*
X46100D01*
Y58000D02*
Y62500D01*
X42200Y58000D02*
X46100D01*
X42200Y65500D02*
Y70000D01*
X46100D01*
Y65500D02*
Y70000D01*
X42200Y65500D02*
X46100D01*
X42200Y73000D02*
Y77500D01*
X46100D01*
Y73000D02*
Y77500D01*
X42200Y73000D02*
X46100D01*
X52225Y72700D02*
Y75900D01*
Y72700D02*
X53375D01*
Y75900D01*
X52225D02*
X53375D01*
X52325Y80000D02*
Y83200D01*
Y80000D02*
X53475D01*
Y83200D01*
X52325D02*
X53475D01*
X52225Y65200D02*
Y68400D01*
Y65200D02*
X53375D01*
Y68400D01*
X52225D02*
X53375D01*
X52225Y57600D02*
Y60800D01*
Y57600D02*
X53375D01*
Y60800D01*
X52225D02*
X53375D01*
X170962Y116875D02*
X173225Y119138D01*
X170962Y116875D02*
X171775Y116062D01*
X174038Y118325D01*
X173225Y119138D02*
X174038Y118325D01*
X159500Y118875D02*
X162700D01*
X159500Y117725D02*
Y118875D01*
Y117725D02*
X162700D01*
Y118875D01*
X159500Y115275D02*
X162700D01*
X159500Y114125D02*
Y115275D01*
Y114125D02*
X162700D01*
Y115275D01*
X157575Y81300D02*
X157975D01*
X157575Y82300D02*
X157975D01*
X157575Y85325D02*
X157975D01*
X157575Y84325D02*
X157975D01*
X171300Y113000D02*
X171500D01*
X171300Y112200D02*
X171500D01*
X62600Y99400D02*
X62800D01*
X62600Y100200D02*
X62800D01*
X147000Y106400D02*
X147200D01*
X147000Y107200D02*
X147200D01*
X71900Y71400D02*
X72100D01*
X71900Y70600D02*
X72100D01*
X158925Y63650D02*
Y64050D01*
X159925Y63650D02*
Y64050D01*
X120500Y66200D02*
Y66600D01*
X119500Y66200D02*
Y66600D01*
X68800Y72200D02*
X69200D01*
X68800Y71200D02*
X69200D01*
X149800Y86600D02*
X150200D01*
X149800Y87600D02*
X150200D01*
X138600Y87700D02*
Y88100D01*
X139600Y87700D02*
Y88100D01*
X38700Y84400D02*
Y84800D01*
X39700Y84400D02*
Y84800D01*
X38800Y70400D02*
Y70800D01*
X37800Y70400D02*
Y70800D01*
X149700Y90100D02*
X150100D01*
X149700Y91100D02*
X150100D01*
X140000Y80800D02*
Y81200D01*
X141000Y80800D02*
Y81200D01*
X118900Y63200D02*
Y63600D01*
X117900Y63200D02*
Y63600D01*
X65200Y63800D02*
X68100D01*
X64900Y63500D02*
X65200Y63800D01*
X64900Y59800D02*
Y63500D01*
X68100Y59800D02*
Y63800D01*
X64900Y59800D02*
X68100D01*
X56600Y107300D02*
X59500D01*
X59800Y107600D01*
Y111300D01*
X56600Y107300D02*
Y111300D01*
X59800D01*
X144300Y131900D02*
X144700D01*
X144300Y132900D02*
X144700D01*
X154100Y107000D02*
X154500D01*
X154100Y108000D02*
X154500D01*
X158000Y107600D02*
Y108000D01*
X157000Y107600D02*
Y108000D01*
X142300Y107600D02*
X142700D01*
X142300Y108600D02*
X142700D01*
X132100Y117100D02*
X132500D01*
X132100Y118100D02*
X132500D01*
X135400Y117100D02*
X135800D01*
X135400Y118100D02*
X135800D01*
X137900Y122000D02*
Y122400D01*
X138900Y122000D02*
Y122400D01*
X147300Y107600D02*
X147700D01*
X147300Y108600D02*
X147700D01*
X149500Y92400D02*
X149700D01*
X149500Y91600D02*
X149700D01*
X66100Y72100D02*
X66300D01*
X66100Y71300D02*
X66300D01*
X157500Y83600D02*
X157700D01*
X157500Y82800D02*
X157700D01*
X76000Y75500D02*
X76200D01*
X76000Y76300D02*
X76200D01*
X76300Y73900D02*
X76700D01*
X76300Y74900D02*
X76700D01*
D126*
X26625Y125125D02*
D03*
X31225D02*
D03*
D127*
X27775Y127075D02*
D03*
X27850Y124825D02*
D03*
D128*
X33225Y127125D02*
D03*
D129*
X33862Y124488D02*
D03*
M02*
