M48
;Layer_Color=9474304
;FILE_FORMAT=4:3
METRIC,LZ
;TYPE=PLATED
T1F00S00C0.300
T2F00S00C0.600
T3F00S00C1.000
T4F00S00C1.200
T5F00S00C3.200
%
T01
X015875Y0061225
X0162075Y0065375
X016515Y0066475
X0164325Y0068025
Y006935
X0166075Y006825
X01686Y0067125
X017025Y006675
X0172Y00697
X01756Y00708
X0174607Y0073622
X01757Y00754
X0179Y00748
X01791Y006835
X0179925Y006755
X01847Y00712
X01844Y0072525
X01709Y00734
X0170387Y0074093
X0169525Y00738
X016765Y007165
X0166025Y00756
X016205Y0075625
X0159681Y0075972
X0159Y00777
X01604Y0069925
X016815Y0061525
X01743Y0062025
X0183675Y005835
X01709Y00769
X0169175Y0077875
X0156Y0077
X01523Y0075825
X0152475Y0072225
X0150875Y0071575
X0150281Y0070947
X01516Y00696
X01532Y0070275
X0143275Y0070425
X0140675Y0070825
X0138575Y006765
X01386Y0061675
X01339Y0061575
X013225Y00646
X01241Y00643
X01232Y00634
X01198Y0064275
X0121525Y0066825
X0126925Y0071875
X01281Y00746
Y00777
X01288Y007715
X01304Y007765
X01306Y00785
X01258
X0122675Y0079125
X013715Y0076025
X013803Y0075647
X0138355Y0076947
X0134825Y0072775
X0116525Y0075525
X0114725Y007375
X01125Y00732
X01116Y00742
X01109Y0075
X01117Y00757
X01119Y00775
X01131Y00781
X01106Y00769
X01085Y00785
X01074Y00744
Y00735
Y00726
Y00717
Y00708
Y00699
X01057Y00693
Y00684
Y00675
Y00666
Y00657
Y00648
X0102277Y0064939
X010248Y0065853
X01019Y00641
X01017Y00632
X01015Y00623
X01016Y00614
X0101675Y0058725
X0102725Y005855
X01042Y00581
X01054
X010695Y0058425
X01078Y00575
X01091Y00569
X01094Y00578
X01103Y005865
X01101Y00555
X01149Y00615
X01166Y00615
X0115Y0063425
X01172Y00665
X01151Y00697
X01178Y0077825
X00973Y00762
X0096628Y0076822
X00961Y00753
X0093
X00929Y00729
Y00717
Y00705
Y00693
Y00681
Y00669
Y00656
X00927Y00646
Y00636
Y00626
X0092725Y006165
X00917Y00616
X00925Y005785
X00945Y0059275
X00954Y00593
X00964
X00974Y00592
X00984Y0059
X00994
X01005Y0058225
X00994Y005495
X00959Y005855
X0095825Y0066275
X009395Y006625
X00939Y00675
Y00687
Y00699
Y00711
Y00723
X00972Y00656
X0086875Y00596
X008865Y00575
X00802Y00594
X008Y00674
X008005Y0078525
X0076Y00793
X00756Y00772
X0074025Y007875
X00731Y00786
X006825Y0077575
X0069225Y00744
X00707
X0071025Y006985
X00696Y00704
X00678Y00688
X0066375Y006825
X00648Y00726
X00596Y00743
X00642Y00635
X0068625Y0063125
X006905Y0063975
X007Y00646
X0069552Y0065397
X00708Y00601
X00709Y00566
X00747Y00582
X00762Y00572
X0077025Y005975
X00793Y00611
X007815Y00691
X007797Y007133
X00765Y00737
X00744Y00724
X00752Y00695
X00624Y00553
X003735Y00719
X00361Y00894
X00393Y009775
X0035Y010005
X003815Y01053
X0035075Y0109525
X00355Y01124
X003Y01106
X00404
X00415Y01113
X004415Y010985
X00457Y011135
X004725Y010985
X00488Y01123
X00529Y0113
X00539Y01133
X00553Y01142
X0056Y0113
X00567Y01136
X00577
X00587
X00597
X00584Y01148
X00575Y01152
X00566Y01155
X0057Y01164
X00562Y0117
X00554Y01175
X0054Y01169
X0053
X00522Y01163
X0052625Y0118575
X00608Y01174
X00619Y01172
X006255Y01162
X00667Y01151
X00676Y01144
X006905Y0113075
X00705Y01136
X00714Y01138
X00742Y01138
X00735Y01131
X00772Y0114525
Y011685
X007895Y011905
X007215
Y0117175
X006875Y0116675
X0066875Y0118725
X006735Y010805
X0067175Y0106475
X0068475Y01059
X0069225Y01065
X00703Y01058
X00712
X00713Y01049
X00703Y01047
X00679
X0067Y010315
X00687Y010035
X00703Y01003
X00713
X00727
X00737
X0074825
X00746Y00969
X0074425Y0095875
X0074375Y009435
X00747Y009315
X0075625
X00767
X007925Y0093225
X007365Y009315
X00725Y00949
X00707Y00959
X007Y00968
X00678Y00967
X00668Y00969
X00667Y00949
X0069375Y009485
X00652Y009905
X00627Y00985
X00606Y00976
X00588Y00964
X0057752Y0095752
X00566Y00959
X00553Y00983
X00546Y00991
X00548Y01004
Y01021
X0056Y01014
X00572Y01012
X00572Y01041
X00574Y0105
X0059Y01046
X0059Y01059
X0058302Y0106702
X00599Y0105
X00601Y01035
X0059208Y0103192
X0061125Y0102775
X006105Y010815
X00601Y01084
X006255Y0108175
X00626Y011
X00604Y0111175
X00558Y01055
X005585Y010445
X0055Y0105
X0054Y01047
X00531Y01023
X00514Y01019
X00505Y01022
X00518Y00997
X0053Y01
X00481Y0095625
X00433Y00957
X00398Y00948
X00471Y008985
X00554Y00912
X00569Y008875
X0057475Y00851
X006325Y008455
X0065425Y008065
X0066425Y0079675
X0068275Y008
X0067825Y00808
X00697Y0081025
X00692Y00796
X0069925Y0084725
X0073375Y0087025
X00747Y0087275
X007565Y0087625
X00767Y00879
X0078Y00878
X0077025Y008235
X00762Y00802
X00781Y00804
X0074Y00807
X00558Y00795
X0054025Y0079375
X00626Y009245
X0072725Y0103125
X00723Y01055
X00763Y010525
X0077475Y0103125
X0076625Y01096
X0078Y01116
X0069325Y01096
X00513Y01099
X00507Y01091
X00457Y01069
X00409Y01068
X00808Y01088
X00817
X0083Y0108
X00845Y01078
X00846Y01095
X0084Y01116
X00839Y01131
X00833Y01138
X00849Y011435
X0084575Y011685
X0088Y01167
X00884Y01158
X00887Y01174
X00884Y01186
X0087375Y0118775
X00873Y01128
X00878Y0112
X00864Y01123
X0085625Y0111675
X00887Y01139
X00918Y01137
X00919Y01149
Y01164
X00928Y01174
X00956Y01184
X00942Y01115
X00928Y01105
Y0109
X0094
X0096Y01096
X00994Y01114
Y01064
X01006Y01071
X010075Y0102175
X0098928Y0101049
X00982Y010155
X00965Y010115
X0095103Y0101749
X0095153Y0100198
X0095125Y0099325
X0094525Y00979
X00935Y00977
X00926Y00958
X00919Y00952
X00913Y00945
X00906Y00938
X00899Y00931
X008925Y009235
X00893Y00966
X00899Y00973
X00906Y00979
X00908Y00998
X00899Y00996
X00892Y0099
X00915Y00991
X00918Y01033
Y010565
X00936Y0104875
X00963Y01036
X00885Y010355
Y01023
X0087853Y0102899
X0086678Y0102699
X00867Y01017
X00873Y0101
X00883Y01008
X0086Y01007
X00852Y01012
X00853Y01028
X00836Y0103
X00835Y01003
X00844Y01002
X007985Y0100225
X008Y00966
X0083Y00939
X00849Y00929
X00859Y008915
X0085275Y008845
X0084653Y0087823
X0087503Y0087598
X008725Y00887
X00915Y00859
X0095Y00856
X00992Y00864
X010075Y00861
X01007Y00852
X01072Y00851
X010715Y008675
X0110625Y0086725
X01118Y00868
X0110625Y0085175
X01108Y0083
X01088Y00831
X01084Y0082
X01078Y00804
X01071Y00811
X01094Y00801
X01101Y00808
X0117425Y0083175
X011745Y008515
X0117475Y0086375
X0110675Y009015
X0107525Y0090425
X01082Y0099075
X01085Y0099875
X0107925Y01014
X0107525Y0102775
X01074Y01037
X01107Y01035
X01118Y01045
Y01062
X01106Y01056
Y0109
X01118
X011315Y0108975
X01132Y01117
X0112329Y0111474
X0111Y01114
X01103Y0112
X0108754Y0112424
X01074Y01117
X01072Y01136
X01069Y01148
X01063Y01158
X01056Y01165
X01103
X01185Y0109
X0118Y0104875
X01178Y010275
X0115675Y01019
Y009985
X0114975Y0099225
X0114Y0102675
X011335Y010355
X011235Y010205
X01107Y01007
X01188Y00973
X0118204Y0096673
X01188Y0096
X0099225Y0095025
X0096625Y0095
X009325Y009485
X00976Y00924
X008095Y009
X00897Y00807
X0088177Y0105
X00874Y01043
X00867Y01037
X00868Y010665
X00917Y01116
X011915Y01102
X0119975Y0109725
X01266Y01101
X01284Y01105
X01293
X01328
Y01094
X0135
X0135Y01105
X0135Y01116
X01328Y01116
X0132Y01058
X0125875Y01048
X01234Y010455
X0123125Y010315
X01219Y01
X012255Y0099125
X0126325Y0099875
X0125755Y0092123
X0125475Y0091025
X012465Y009145
X0124925Y0085125
X0126075Y00837
X0123625Y00835
X012195Y0081975
X0121825Y0080775
X0121725Y008635
X0121025Y0088425
X0120825Y00953
X0120179Y0096023
X0119504Y0095473
X0129175Y0086375
X0130005Y0085723
X012968Y0083798
X0131925Y0086075
X013625Y0082075
X01377Y0082
X01383Y00795
X01427Y00834
X01443Y00846
X01444Y00859
X01516Y008675
Y00884
X01532
X0153575Y0086875
X01541Y00824
X015155Y009025
X01526Y00946
X01575Y00945
X01493Y0106
X01513Y01085
X01509Y011
X01514Y01108
X01396
X01275Y01137
X01286Y00802
X01621Y00836
Y00862
X01658Y00864
X0166875Y0086875
X01683Y00874
X01715Y00874
X0175725Y0087175
X01755Y0083
X0171Y00824
X016915Y008205
X0169175Y0084825
X01705Y00796
X017965Y0084625
X017915Y0092
X01772Y00921
X0173225Y009145
X01715Y00971
X01757Y00982
X0176825Y0097125
X01778Y00979
X01782Y00992
X017925Y0098475
X01805Y00949
X0186Y0091
X01852Y01026
X0183575Y0111125
X0181175Y010965
X01734Y01091
X0172Y01094
X01713Y01101
X01697Y01117
X01683Y01132
X01676Y01139
X01674Y0108625
X0169Y01081
X01696Y01073
X0172Y01072
X01708Y01051
X01675Y01017
X01679Y01008
X016615Y0098975
X01661Y0098025
X01607Y0092
X01612Y00912
X01608Y01116
X01611Y01125
X01621Y01132
X0161225Y0115925
X01858Y01156
X01918Y01151
X01965Y01234
X0181375Y012455
X0178075Y0125425
X01672Y01269
X01667Y01284
X0162075Y0120075
X01584Y01216
X0124925Y01279
X0107154Y0121725
X010575Y012205
X0105675Y012035
X00953Y01193
X00956Y01263
X0096425Y0128275
X0097425Y0128325
X0093Y01286
X00918Y01291
X0092Y01264
Y01252
X00927Y01258
Y0127
X0093425Y0130475
X0086575Y01304
X0084525Y01301
X0082925Y0129825
X00821Y01267
X0081275Y01275
X0080375Y012685
X0080875Y012245
X00839Y01221
X00853
X00865
X00875
X00883Y01215
X00884Y012005
X00875Y01207
X0085475Y011935
X00823Y01194
X0086Y01266
X008535Y012755
X008795Y0127825
X00878Y012915
X0088478Y012575
X00892Y01241
X00901Y01246
X00899Y01231
X00911
X009965Y0131475
X00776Y0131
X0077475Y0127925
X00765Y01269
X0078427Y01263
X00793Y01263
X00789Y01287
X00714Y01292
X0071675Y012785
X006685Y0127525
X00666Y0126
X006555Y0125975
X00659Y01241
X00657Y01231
X00669Y0122
X00679
X00689
X00699
X00705Y01213
X00714
X00728
X00735Y01219
X00742Y01213
X00753
X00763
X007735Y012125
X0075225Y012235
X00626Y01219
X006335Y01208
X0060725Y0120525
X005565Y012075
X0053325Y0120025
X00568Y01229
X0058125Y012525
X0059575Y0124975
X00594Y0129125
X0060844
X0057925Y0129125
X0054925Y012915
X0054975Y0125575
X0052825Y0127375
X00696Y0131
T02
X01197Y00626
X01418Y00851
X01374Y01017
X01387Y01035
X01413Y01158
Y01172
X01433
Y01158
X01556Y01022
X017065Y00985
X01832Y01003
X01818Y01067
X01832Y00922
X01818Y00868
X01842Y0082
X01891Y00975
T03
X01226Y01238
X01026
T04
X01876Y00657
Y006824
Y007078
Y007332
Y007586
Y00784
X0156975Y00669
X0154435
X0151895
X0149355
X0146815
X0144275
X01876Y008094
Y008348
Y008602
Y008856
Y00911
Y009364
Y009618
Y009872
Y010126
Y01038
X01643Y010566
Y01082
Y011106
Y01136
Y011646
Y0119
X01727Y01283
X01777
X01553Y01225
X015276
T05
X01964Y00584
X00294
X01161Y00915
X01964Y01314
X00294
M30
