G04 Layer_Color=16711935*
%FSLAX43Y43*%
%MOMM*%
G71*
G01*
G75*
%ADD116C,0.100*%
%ADD215C,2.003*%
G04:AMPARAMS|DCode=216|XSize=2.003mm|YSize=2.003mm|CornerRadius=0.552mm|HoleSize=0mm|Usage=FLASHONLY|Rotation=90.000|XOffset=0mm|YOffset=0mm|HoleType=Round|Shape=RoundedRectangle|*
%AMROUNDEDRECTD216*
21,1,2.003,0.900,0,0,90.0*
21,1,0.900,2.003,0,0,90.0*
1,1,1.103,0.450,0.450*
1,1,1.103,0.450,-0.450*
1,1,1.103,-0.450,-0.450*
1,1,1.103,-0.450,0.450*
%
%ADD216ROUNDEDRECTD216*%
%ADD217C,2.203*%
G04:AMPARAMS|DCode=218|XSize=2.203mm|YSize=2.203mm|CornerRadius=0.602mm|HoleSize=0mm|Usage=FLASHONLY|Rotation=180.000|XOffset=0mm|YOffset=0mm|HoleType=Round|Shape=RoundedRectangle|*
%AMROUNDEDRECTD218*
21,1,2.203,1.000,0,0,180.0*
21,1,1.000,2.203,0,0,180.0*
1,1,1.203,-0.500,0.500*
1,1,1.203,0.500,0.500*
1,1,1.203,0.500,-0.500*
1,1,1.203,-0.500,-0.500*
%
%ADD218ROUNDEDRECTD218*%
G04:AMPARAMS|DCode=219|XSize=2.003mm|YSize=2.003mm|CornerRadius=0.552mm|HoleSize=0mm|Usage=FLASHONLY|Rotation=0.000|XOffset=0mm|YOffset=0mm|HoleType=Round|Shape=RoundedRectangle|*
%AMROUNDEDRECTD219*
21,1,2.003,0.900,0,0,0.0*
21,1,0.900,2.003,0,0,0.0*
1,1,1.103,0.450,-0.450*
1,1,1.103,-0.450,-0.450*
1,1,1.103,-0.450,0.450*
1,1,1.103,0.450,0.450*
%
%ADD219ROUNDEDRECTD219*%
%ADD220C,6.203*%
%ADD221C,0.903*%
D116*
X198400Y54400D02*
G03*
X200400Y56400I0J2000D01*
G01*
X25400Y56400D02*
G03*
X27400Y54400I2000J0D01*
G01*
X27400Y135400D02*
G03*
X25400Y133400I0J-2000D01*
G01*
X200400Y133400D02*
G03*
X198400Y135400I-2000J0D01*
G01*
X27400Y54400D02*
X198400Y54400D01*
X25400Y133400D02*
X25400Y56400D01*
X27400Y135400D02*
X198400D01*
X200400Y56400D02*
Y133400D01*
D215*
X155300Y122500D02*
D03*
X146815Y66900D02*
D03*
X144275D02*
D03*
X149355D02*
D03*
X151895D02*
D03*
X154435D02*
D03*
X164300Y116460D02*
D03*
Y111060D02*
D03*
Y105660D02*
D03*
X187600Y101260D02*
D03*
Y98720D02*
D03*
Y96180D02*
D03*
Y91100D02*
D03*
Y93640D02*
D03*
Y78400D02*
D03*
Y75860D02*
D03*
Y80940D02*
D03*
Y83480D02*
D03*
Y88560D02*
D03*
Y86020D02*
D03*
Y73320D02*
D03*
Y70780D02*
D03*
Y65700D02*
D03*
Y68240D02*
D03*
D216*
X152760Y122500D02*
D03*
X156975Y66900D02*
D03*
D217*
X172700Y128300D02*
D03*
X122600Y123800D02*
D03*
X102600D02*
D03*
D218*
X177700Y128300D02*
D03*
D219*
X164300Y119000D02*
D03*
Y113600D02*
D03*
Y108200D02*
D03*
X187600Y103800D02*
D03*
D220*
X116100Y91500D02*
D03*
X196400Y58400D02*
D03*
X29400Y131400D02*
D03*
X196400D02*
D03*
X29400Y58400D02*
D03*
D221*
X128600Y80200D02*
D03*
M02*
