G04 Layer_Color=8388736*
%FSLAX43Y43*%
%MOMM*%
G71*
G01*
G75*
%ADD18C,0.100*%
%ADD22C,0.254*%
%ADD23C,1.203*%
%ADD24R,0.903X1.103*%
%ADD25R,1.303X1.003*%
%ADD26R,1.103X0.903*%
%ADD27R,1.703X3.203*%
%ADD28C,2.203*%
D18*
X219200Y152200D02*
G03*
X218200Y153200I-1000J0D01*
G01*
Y131400D02*
G03*
X219200Y132400I0J1000D01*
G01*
X29400D02*
G03*
X30400Y131400I1000J0D01*
G01*
Y153200D02*
G03*
X29400Y152200I0J-1000D01*
G01*
X30400Y131400D02*
X218200D01*
X30400Y153200D02*
X218200D01*
X219200Y132400D02*
Y152200D01*
X29400Y132400D02*
Y152200D01*
D22*
X198700Y151600D02*
Y152700D01*
X199250D01*
X199433Y152516D01*
Y152150D01*
X199250Y151967D01*
X198700D01*
X199067D02*
X199433Y151600D01*
X200533Y152516D02*
X200349Y152700D01*
X199983D01*
X199800Y152516D01*
Y151783D01*
X199983Y151600D01*
X200349D01*
X200533Y151783D01*
Y152150D01*
X200166D01*
X201999Y151600D02*
Y152700D01*
X202549D01*
X202732Y152516D01*
Y152150D01*
X202549Y151967D01*
X201999D01*
X202365D02*
X202732Y151600D01*
X203832Y152700D02*
X203099D01*
Y151600D01*
X203832D01*
X203099Y152150D02*
X203465D01*
X204198Y151600D02*
Y152700D01*
X204565Y152333D01*
X204931Y152700D01*
Y151600D01*
X206031Y152516D02*
X205848Y152700D01*
X205481D01*
X205298Y152516D01*
Y152333D01*
X205481Y152150D01*
X205848D01*
X206031Y151967D01*
Y151783D01*
X205848Y151600D01*
X205481D01*
X205298Y151783D01*
X207131Y152700D02*
X206398D01*
Y151600D01*
X207131D01*
X206398Y152150D02*
X206764D01*
X207497Y151600D02*
Y152700D01*
X208047D01*
X208230Y152516D01*
Y152150D01*
X208047Y151967D01*
X207497D01*
X207864D02*
X208230Y151600D01*
X208597Y152700D02*
Y151967D01*
X208963Y151600D01*
X209330Y151967D01*
Y152700D01*
X209696D02*
X210063D01*
X209880D01*
Y151600D01*
X209696D01*
X210063D01*
X211346Y152516D02*
X211163Y152700D01*
X210796D01*
X210613Y152516D01*
Y151783D01*
X210796Y151600D01*
X211163D01*
X211346Y151783D01*
X212446Y152700D02*
X211712D01*
Y151600D01*
X212446D01*
X211712Y152150D02*
X212079D01*
X212995Y151417D02*
X213179Y151600D01*
Y151783D01*
X212995D01*
Y151600D01*
X213179D01*
X212995Y151417D01*
X212812Y151233D01*
X214645Y151600D02*
X213912D01*
X214645Y152333D01*
Y152516D01*
X214462Y152700D01*
X214095D01*
X213912Y152516D01*
X215011D02*
X215195Y152700D01*
X215561D01*
X215744Y152516D01*
Y151783D01*
X215561Y151600D01*
X215195D01*
X215011Y151783D01*
Y152516D01*
X216111Y151600D02*
X216478D01*
X216294D01*
Y152700D01*
X216111Y152516D01*
X217761Y152700D02*
X217394Y152516D01*
X217027Y152150D01*
Y151783D01*
X217211Y151600D01*
X217577D01*
X217761Y151783D01*
Y151967D01*
X217577Y152150D01*
X217027D01*
D23*
X216900Y133900D02*
D03*
X32400Y150400D02*
D03*
D24*
X59250Y146400D02*
D03*
X57750D02*
D03*
X59250Y147800D02*
D03*
X57750D02*
D03*
D25*
X41300Y142300D02*
D03*
Y140300D02*
D03*
X60000Y140300D02*
D03*
Y142300D02*
D03*
X65400Y140300D02*
D03*
Y142300D02*
D03*
X80500Y140300D02*
D03*
Y142300D02*
D03*
X85900Y140300D02*
D03*
Y142300D02*
D03*
X101000Y140300D02*
D03*
Y142300D02*
D03*
X106400Y140300D02*
D03*
Y142300D02*
D03*
X121500Y140300D02*
D03*
Y142300D02*
D03*
X126900Y140300D02*
D03*
Y142300D02*
D03*
X142000Y140300D02*
D03*
Y142300D02*
D03*
X147400Y140300D02*
D03*
Y142300D02*
D03*
X162500Y140300D02*
D03*
Y142300D02*
D03*
X167900Y140300D02*
D03*
Y142300D02*
D03*
X182999Y140300D02*
D03*
Y142300D02*
D03*
X188400Y140300D02*
D03*
Y142300D02*
D03*
X203500Y140300D02*
D03*
Y142300D02*
D03*
X208900Y140300D02*
D03*
Y142300D02*
D03*
X42900D02*
D03*
Y140300D02*
D03*
D26*
X167900Y145150D02*
D03*
Y143650D02*
D03*
X142000Y145150D02*
D03*
Y143650D02*
D03*
X147400Y145150D02*
D03*
Y143650D02*
D03*
X65400Y145125D02*
D03*
Y143625D02*
D03*
X60025Y145125D02*
D03*
Y143625D02*
D03*
X80500Y145150D02*
D03*
Y143650D02*
D03*
X85900Y145150D02*
D03*
Y143650D02*
D03*
X101000Y145150D02*
D03*
Y143650D02*
D03*
X106400Y145150D02*
D03*
Y143650D02*
D03*
X121500Y145150D02*
D03*
Y143650D02*
D03*
X126900Y145150D02*
D03*
Y143650D02*
D03*
X162500Y145150D02*
D03*
Y143650D02*
D03*
X183000Y145150D02*
D03*
Y143650D02*
D03*
X188400Y145150D02*
D03*
Y143650D02*
D03*
X203500Y145150D02*
D03*
Y143650D02*
D03*
X208900Y145150D02*
D03*
Y143650D02*
D03*
D27*
X62700Y136800D02*
D03*
Y145800D02*
D03*
X83200Y136800D02*
D03*
Y145800D02*
D03*
X103700Y136800D02*
D03*
Y145800D02*
D03*
X124200Y136800D02*
D03*
Y145800D02*
D03*
X144700Y136800D02*
D03*
Y145800D02*
D03*
X165200Y136800D02*
D03*
Y145800D02*
D03*
X185700Y136800D02*
D03*
Y145800D02*
D03*
X206200Y136800D02*
D03*
Y145800D02*
D03*
D28*
X97450Y143800D02*
D03*
X109950D02*
D03*
Y138800D02*
D03*
X68950D02*
D03*
X56450D02*
D03*
X68950Y143800D02*
D03*
X56450D02*
D03*
X150950Y138800D02*
D03*
X138450D02*
D03*
X150950Y143800D02*
D03*
X138450D02*
D03*
X212450Y138800D02*
D03*
X199950D02*
D03*
X212450Y143800D02*
D03*
X199950D02*
D03*
X130450Y138800D02*
D03*
X117950D02*
D03*
X130450Y143800D02*
D03*
X117950D02*
D03*
X191950Y138800D02*
D03*
X179450D02*
D03*
X191950Y143800D02*
D03*
X179450D02*
D03*
X89450Y138800D02*
D03*
X76950D02*
D03*
X89450Y143800D02*
D03*
X76950D02*
D03*
X171450Y138800D02*
D03*
X158950D02*
D03*
X171450Y143800D02*
D03*
X158950D02*
D03*
X97450Y138800D02*
D03*
M02*
