G04 Layer_Color=16711935*
%FSLAX43Y43*%
%MOMM*%
G71*
G01*
G75*
%ADD18C,0.100*%
%ADD23C,1.203*%
%ADD28C,2.203*%
%ADD29R,0.803X1.753*%
D18*
X219200Y152200D02*
G03*
X218200Y153200I-1000J0D01*
G01*
Y131400D02*
G03*
X219200Y132400I0J1000D01*
G01*
X29400D02*
G03*
X30400Y131400I1000J0D01*
G01*
Y153200D02*
G03*
X29400Y152200I0J-1000D01*
G01*
X30400Y131400D02*
X218200D01*
X30400Y153200D02*
X218200D01*
X219200Y132400D02*
Y152200D01*
X29400Y132400D02*
Y152200D01*
D23*
X31900Y134400D02*
D03*
X217400Y151400D02*
D03*
D28*
X97450Y143800D02*
D03*
X109950D02*
D03*
Y138800D02*
D03*
X68950D02*
D03*
X56450D02*
D03*
X68950Y143800D02*
D03*
X56450D02*
D03*
X150950Y138800D02*
D03*
X138450D02*
D03*
X150950Y143800D02*
D03*
X138450D02*
D03*
X212450Y138800D02*
D03*
X199950D02*
D03*
X212450Y143800D02*
D03*
X199950D02*
D03*
X130450Y138800D02*
D03*
X117950D02*
D03*
X130450Y143800D02*
D03*
X117950D02*
D03*
X191950Y138800D02*
D03*
X179450D02*
D03*
X191950Y143800D02*
D03*
X179450D02*
D03*
X89450Y138800D02*
D03*
X76950D02*
D03*
X89450Y143800D02*
D03*
X76950D02*
D03*
X171450Y138800D02*
D03*
X158950D02*
D03*
X171450Y143800D02*
D03*
X158950D02*
D03*
X97450Y138800D02*
D03*
D29*
X65300Y145900D02*
D03*
X63300Y145900D02*
D03*
X61300D02*
D03*
X59300D02*
D03*
X64300Y149300D02*
D03*
X62300D02*
D03*
X60300D02*
D03*
X58300D02*
D03*
X57300Y145900D02*
D03*
X56300Y149300D02*
D03*
M02*
