G04 Layer_Color=32896*
%FSLAX43Y43*%
%MOMM*%
G71*
G01*
G75*
%ADD18C,0.100*%
%ADD22C,0.254*%
D18*
X64800Y149100D02*
X66400D01*
X67300Y148200D01*
Y146100D02*
Y148200D01*
X54300Y146100D02*
Y149100D01*
X65900Y146100D02*
X67300D01*
X63800D02*
X64800D01*
X61800D02*
X62800D01*
X59800D02*
X60800D01*
X57800D02*
X58800D01*
X54300Y146100D02*
X56800Y146100D01*
X62800Y149100D02*
X63800D01*
X60800D02*
X61800D01*
X58800D02*
X59800D01*
X56800D02*
X57800D01*
X54300D02*
X55800D01*
X62500Y150500D02*
X61967Y149700D01*
Y150500D02*
X62500Y149700D01*
X61167Y150366D02*
X61300Y150500D01*
X61567D01*
X61700Y150366D01*
Y150233D01*
X61567Y150100D01*
X61300D01*
X61167Y149967D01*
Y149833D01*
X61300Y149700D01*
X61567D01*
X61700Y149833D01*
X60901Y149700D02*
X60634D01*
X60767D01*
Y150500D01*
X60901Y150366D01*
X219200Y152200D02*
G03*
X218200Y153200I-1000J0D01*
G01*
Y131400D02*
G03*
X219200Y132400I0J1000D01*
G01*
X29400D02*
G03*
X30400Y131400I1000J0D01*
G01*
Y153200D02*
G03*
X29400Y152200I0J-1000D01*
G01*
X30400Y131400D02*
X218200D01*
X30400Y153200D02*
X218200D01*
X219200Y132400D02*
Y152200D01*
X29400Y132400D02*
Y152200D01*
D22*
X65750Y144875D02*
X74800D01*
M02*
